solid inlet_1
facet normal -0.8443669823171057 -0.2581488929050014 -0.4694715627858906
outer loop
vertex -0.156998598172908 0.02556464937804412 -0.09379706218170929
vertex -0.13096792105412328 -0.025051215327952243 -0.11278226928623802
vertex -0.15611685293369268 -0.06271940825974824 -0.04683806206096485
endloop
endfacet
facet normal -0.8443669823171059 -0.2581488929050016 -0.46947156278589064
outer loop
vertex -0.156998598172908 0.02556464937804412 -0.09379706218170929
vertex -0.15611685293369268 -0.06271940825974824 -0.04683806206096485
vertex -0.1821475300524774 -0.012103543553751879 -0.027852854956436114
endloop
endfacet
endsolid inlet_1
solid inlet_2
facet normal 0.8443669823171057 0.2581488929050015 0.4694715627858907
outer loop
vertex 0.15611685293369268 0.06271940825974824 0.04683806206096485
vertex 0.13008617581490795 0.11333527296574461 0.06582326916549358
vertex 0.10493724393533854 0.0756670800339486 0.13176747639076675
endloop
endfacet
facet normal 0.8443669823171058 0.25814889290500165 0.4694715627858907
outer loop
vertex 0.15611685293369268 0.06271940825974824 0.04683806206096485
vertex 0.10493724393533854 0.0756670800339486 0.13176747639076675
vertex 0.13096792105412328 0.025051215327952243 0.11278226928623802
endloop
endfacet
endsolid inlet_2
solid outlet_1
facet normal 0.4338446186464121 -0.8435977450999395 -0.3164201184088122
outer loop
vertex 0.04798170308076926 -0.10701405463524358 -0.09135506707344704
vertex 0.0986437220197956 -0.0915251210609435 -0.06318677330629359
vertex 0.07349479014022617 -0.1291933139927395 0.0027574339189795904
endloop
endfacet
facet normal 0.4338446186464124 -0.8435977450999393 -0.31642011840881223
outer loop
vertex 0.04798170308076926 -0.10701405463524358 -0.09135506707344704
vertex 0.07349479014022617 -0.1291933139927395 0.0027574339189795904
vertex 0.022832771201199836 -0.1446822475670396 -0.025410859848173862
endloop
endfacet
endsolid outlet_1
solid walls
facet normal -0.31436164849461773 -0.47085241164745006 0.8243025903159146
outer loop
vertex -0.1821475300524774 -0.012103543553751879 -0.027852854956436114
vertex -0.15611685293369268 -0.06271940825974824 -0.04683806206096485
vertex -0.03790547540929788 -0.026578563253048044 0.018887956729059862
endloop
endfacet
facet normal 0.31436164849461773 0.47085241164745006 -0.8243025903159147
outer loop
vertex -0.012756543529728458 0.011089629678747959 -0.047056250496213314
vertex -0.13096792105412328 -0.025051215327952243 -0.11278226928623802
vertex -0.156998598172908 0.02556464937804412 -0.09379706218170929
endloop
endfacet
facet normal -0.3143616484946179 -0.47085241164745 0.8243025903159147
outer loop
vertex -0.03790547540929788 -0.026578563253048044 0.018887956729059862
vertex 0.022832771201199836 -0.1446822475670396 -0.025410859848173862
vertex 0.07349479014022617 -0.1291933139927395 0.0027574339189795904
endloop
endfacet
facet normal 0.3143616484946179 0.4708524116474501 -0.8243025903159146
outer loop
vertex 0.0986437220197956 -0.0915251210609435 -0.06318677330629359
vertex 0.04798170308076926 -0.10701405463524358 -0.09135506707344704
vertex -0.012756543529728458 0.011089629678747959 -0.047056250496213314
endloop
endfacet
facet normal -0.3143616484946179 -0.47085241164745006 0.8243025903159147
outer loop
vertex -0.03790547540929788 -0.026578563253048044 0.018887956729059862
vertex 0.07349479014022617 -0.1291933139927395 0.0027574339189795904
vertex 0.012756543529728458 -0.011089629678747959 0.047056250496213314
endloop
endfacet
facet normal 0.31436164849461784 0.4708524116474501 -0.8243025903159147
outer loop
vertex 0.03790547540929788 0.026578563253048044 -0.018887956729059862
vertex 0.0986437220197956 -0.0915251210609435 -0.06318677330629359
vertex -0.012756543529728458 0.011089629678747959 -0.047056250496213314
endloop
endfacet
facet normal -0.3143616484946178 -0.4708524116474501 0.8243025903159145
outer loop
vertex -0.1821475300524774 -0.012103543553751879 -0.027852854956436114
vertex -0.03790547540929788 -0.026578563253048044 0.018887956729059862
vertex 0.012756543529728458 -0.011089629678747959 0.047056250496213314
endloop
endfacet
facet normal 0.31436164849461773 0.47085241164745034 -0.8243025903159145
outer loop
vertex 0.03790547540929788 0.026578563253048044 -0.018887956729059862
vertex -0.012756543529728458 0.011089629678747959 -0.047056250496213314
vertex -0.156998598172908 0.02556464937804412 -0.09379706218170929
endloop
endfacet
facet normal -0.3143616484946178 -0.47085241164744995 0.8243025903159147
outer loop
vertex -0.1821475300524774 -0.012103543553751879 -0.027852854956436114
vertex 0.012756543529728458 -0.011089629678747959 0.047056250496213314
vertex 0.13096792105412328 0.025051215327952243 0.11278226928623802
endloop
endfacet
facet normal 0.31436164849461773 0.47085241164745034 -0.8243025903159147
outer loop
vertex 0.15611685293369268 0.06271940825974824 0.04683806206096485
vertex 0.03790547540929788 0.026578563253048044 -0.018887956729059862
vertex -0.156998598172908 0.02556464937804412 -0.09379706218170929
endloop
endfacet
facet normal -0.3143616484946178 -0.4708524116474499 0.8243025903159147
outer loop
vertex 0.13096792105412328 0.025051215327952243 0.11278226928623802
vertex 0.10493724393533854 0.0756670800339486 0.13176747639076675
vertex -0.1821475300524774 -0.012103543553751879 -0.027852854956436114
endloop
endfacet
facet normal 0.3143616484946178 0.47085241164745 -0.8243025903159148
outer loop
vertex -0.156998598172908 0.02556464937804412 -0.09379706218170929
vertex 0.13008617581490795 0.11333527296574461 0.06582326916549358
vertex 0.15611685293369268 0.06271940825974824 0.04683806206096485
endloop
endfacet
facet normal 0.4338446186464122 -0.8435977450999395 -0.3164201184088123
outer loop
vertex -0.13096792105412328 -0.025051215327952243 -0.11278226928623802
vertex -0.012756543529728458 0.011089629678747959 -0.047056250496213314
vertex -0.03790547540929788 -0.026578563253048044 0.018887956729059862
endloop
endfacet
facet normal 0.43384461864641233 -0.8435977450999395 -0.31642011840881235
outer loop
vertex -0.13096792105412328 -0.025051215327952243 -0.11278226928623802
vertex -0.03790547540929788 -0.026578563253048044 0.018887956729059862
vertex -0.15611685293369268 -0.06271940825974824 -0.04683806206096485
endloop
endfacet
facet normal -0.8443669823171057 -0.25814889290500137 -0.46947156278589086
outer loop
vertex -0.012756543529728458 0.011089629678747959 -0.047056250496213314
vertex 0.04798170308076926 -0.10701405463524358 -0.09135506707344704
vertex 0.022832771201199836 -0.1446822475670396 -0.025410859848173862
endloop
endfacet
facet normal -0.8443669823171057 -0.25814889290500137 -0.46947156278589086
outer loop
vertex -0.012756543529728458 0.011089629678747959 -0.047056250496213314
vertex 0.022832771201199836 -0.1446822475670396 -0.025410859848173862
vertex -0.03790547540929788 -0.026578563253048044 0.018887956729059862
endloop
endfacet
facet normal 0.8443669823171058 0.2581488929050014 0.46947156278589086
outer loop
vertex 0.0986437220197956 -0.0915251210609435 -0.06318677330629359
vertex 0.03790547540929788 0.026578563253048044 -0.018887956729059862
vertex 0.012756543529728458 -0.011089629678747959 0.047056250496213314
endloop
endfacet
facet normal 0.8443669823171058 0.25814889290500137 0.46947156278589086
outer loop
vertex 0.0986437220197956 -0.0915251210609435 -0.06318677330629359
vertex 0.012756543529728458 -0.011089629678747959 0.047056250496213314
vertex 0.07349479014022617 -0.1291933139927395 0.0027574339189795904
endloop
endfacet
facet normal 0.43384461864641233 -0.8435977450999395 -0.3164201184088123
outer loop
vertex 0.03790547540929788 0.026578563253048044 -0.018887956729059862
vertex 0.15611685293369268 0.06271940825974824 0.04683806206096485
vertex 0.13096792105412328 0.025051215327952243 0.11278226928623802
endloop
endfacet
facet normal 0.4338446186464123 -0.8435977450999395 -0.3164201184088123
outer loop
vertex 0.03790547540929788 0.026578563253048044 -0.018887956729059862
vertex 0.13096792105412328 0.025051215327952243 0.11278226928623802
vertex 0.012756543529728458 -0.011089629678747959 0.047056250496213314
endloop
endfacet
facet normal -0.4338446186464122 0.8435977450999393 0.3164201184088123
outer loop
vertex 0.13008617581490795 0.11333527296574461 0.06582326916549358
vertex -0.156998598172908 0.02556464937804412 -0.09379706218170929
vertex -0.1821475300524774 -0.012103543553751879 -0.027852854956436114
endloop
endfacet
facet normal -0.43384461864641216 0.8435977450999393 0.31642011840881207
outer loop
vertex 0.13008617581490795 0.11333527296574461 0.06582326916549358
vertex -0.1821475300524774 -0.012103543553751879 -0.027852854956436114
vertex 0.10493724393533854 0.0756670800339486 0.13176747639076675
endloop
endfacet
endsolid walls
