solid pipe_expansion
  facet normal 0.000000 0.980785 0.195090
    outer loop
      vertex 0.000000 0.500000 0.000000
      vertex 0.000000 0.461940 0.191342
      vertex 4.000000 0.461940 0.191342
    endloop
  endfacet
  facet normal 0.000000 0.980785 0.195090
    outer loop
      vertex 0.000000 0.500000 0.000000
      vertex 4.000000 0.461940 0.191342
      vertex 4.000000 0.500000 0.000000
    endloop
  endfacet
  facet normal 0.000000 0.831470 0.555570
    outer loop
      vertex 0.000000 0.461940 0.191342
      vertex 0.000000 0.353553 0.353553
      vertex 4.000000 0.353553 0.353553
    endloop
  endfacet
  facet normal 0.000000 0.831470 0.555570
    outer loop
      vertex 0.000000 0.461940 0.191342
      vertex 4.000000 0.353553 0.353553
      vertex 4.000000 0.461940 0.191342
    endloop
  endfacet
  facet normal 0.000000 0.555570 0.831470
    outer loop
      vertex 0.000000 0.353553 0.353553
      vertex 0.000000 0.191342 0.461940
      vertex 4.000000 0.191342 0.461940
    endloop
  endfacet
  facet normal 0.000000 0.555570 0.831470
    outer loop
      vertex 0.000000 0.353553 0.353553
      vertex 4.000000 0.191342 0.461940
      vertex 4.000000 0.353553 0.353553
    endloop
  endfacet
  facet normal 0.000000 0.195090 0.980785
    outer loop
      vertex 0.000000 0.191342 0.461940
      vertex 0.000000 0.000000 0.500000
      vertex 4.000000 0.000000 0.500000
    endloop
  endfacet
  facet normal 0.000000 0.195090 0.980785
    outer loop
      vertex 0.000000 0.191342 0.461940
      vertex 4.000000 0.000000 0.500000
      vertex 4.000000 0.191342 0.461940
    endloop
  endfacet
  facet normal 0.000000 -0.195090 0.980785
    outer loop
      vertex 0.000000 0.000000 0.500000
      vertex 0.000000 -0.191342 0.461940
      vertex 4.000000 -0.191342 0.461940
    endloop
  endfacet
  facet normal 0.000000 -0.195090 0.980785
    outer loop
      vertex 0.000000 0.000000 0.500000
      vertex 4.000000 -0.191342 0.461940
      vertex 4.000000 0.000000 0.500000
    endloop
  endfacet
  facet normal 0.000000 -0.555570 0.831470
    outer loop
      vertex 0.000000 -0.191342 0.461940
      vertex 0.000000 -0.353553 0.353553
      vertex 4.000000 -0.353553 0.353553
    endloop
  endfacet
  facet normal 0.000000 -0.555570 0.831470
    outer loop
      vertex 0.000000 -0.191342 0.461940
      vertex 4.000000 -0.353553 0.353553
      vertex 4.000000 -0.191342 0.461940
    endloop
  endfacet
  facet normal 0.000000 -0.831470 0.555570
    outer loop
      vertex 0.000000 -0.353553 0.353553
      vertex 0.000000 -0.461940 0.191342
      vertex 4.000000 -0.461940 0.191342
    endloop
  endfacet
  facet normal 0.000000 -0.831470 0.555570
    outer loop
      vertex 0.000000 -0.353553 0.353553
      vertex 4.000000 -0.461940 0.191342
      vertex 4.000000 -0.353553 0.353553
    endloop
  endfacet
  facet normal 0.000000 -0.980785 0.195090
    outer loop
      vertex 0.000000 -0.461940 0.191342
      vertex 0.000000 -0.500000 0.000000
      vertex 4.000000 -0.500000 0.000000
    endloop
  endfacet
  facet normal 0.000000 -0.980785 0.195090
    outer loop
      vertex 0.000000 -0.461940 0.191342
      vertex 4.000000 -0.500000 0.000000
      vertex 4.000000 -0.461940 0.191342
    endloop
  endfacet
  facet normal 0.000000 -0.980785 -0.195090
    outer loop
      vertex 0.000000 -0.500000 0.000000
      vertex 0.000000 -0.461940 -0.191342
      vertex 4.000000 -0.461940 -0.191342
    endloop
  endfacet
  facet normal 0.000000 -0.980785 -0.195090
    outer loop
      vertex 0.000000 -0.500000 0.000000
      vertex 4.000000 -0.461940 -0.191342
      vertex 4.000000 -0.500000 0.000000
    endloop
  endfacet
  facet normal 0.000000 -0.831470 -0.555570
    outer loop
      vertex 0.000000 -0.461940 -0.191342
      vertex 0.000000 -0.353553 -0.353553
      vertex 4.000000 -0.353553 -0.353553
    endloop
  endfacet
  facet normal 0.000000 -0.831470 -0.555570
    outer loop
      vertex 0.000000 -0.461940 -0.191342
      vertex 4.000000 -0.353553 -0.353553
      vertex 4.000000 -0.461940 -0.191342
    endloop
  endfacet
  facet normal 0.000000 -0.555570 -0.831470
    outer loop
      vertex 0.000000 -0.353553 -0.353553
      vertex 0.000000 -0.191342 -0.461940
      vertex 4.000000 -0.191342 -0.461940
    endloop
  endfacet
  facet normal 0.000000 -0.555570 -0.831470
    outer loop
      vertex 0.000000 -0.353553 -0.353553
      vertex 4.000000 -0.191342 -0.461940
      vertex 4.000000 -0.353553 -0.353553
    endloop
  endfacet
  facet normal 0.000000 -0.195090 -0.980785
    outer loop
      vertex 0.000000 -0.191342 -0.461940
      vertex 0.000000 0.000000 -0.500000
      vertex 4.000000 0.000000 -0.500000
    endloop
  endfacet
  facet normal 0.000000 -0.195090 -0.980785
    outer loop
      vertex 0.000000 -0.191342 -0.461940
      vertex 4.000000 0.000000 -0.500000
      vertex 4.000000 -0.191342 -0.461940
    endloop
  endfacet
  facet normal 0.000000 0.195090 -0.980785
    outer loop
      vertex 0.000000 0.000000 -0.500000
      vertex 0.000000 0.191342 -0.461940
      vertex 4.000000 0.191342 -0.461940
    endloop
  endfacet
  facet normal 0.000000 0.195090 -0.980785
    outer loop
      vertex 0.000000 0.000000 -0.500000
      vertex 4.000000 0.191342 -0.461940
      vertex 4.000000 0.000000 -0.500000
    endloop
  endfacet
  facet normal 0.000000 0.555570 -0.831470
    outer loop
      vertex 0.000000 0.191342 -0.461940
      vertex 0.000000 0.353553 -0.353553
      vertex 4.000000 0.353553 -0.353553
    endloop
  endfacet
  facet normal 0.000000 0.555570 -0.831470
    outer loop
      vertex 0.000000 0.191342 -0.461940
      vertex 4.000000 0.353553 -0.353553
      vertex 4.000000 0.191342 -0.461940
    endloop
  endfacet
  facet normal 0.000000 0.831470 -0.555570
    outer loop
      vertex 0.000000 0.353553 -0.353553
      vertex 0.000000 0.461940 -0.191342
      vertex 4.000000 0.461940 -0.191342
    endloop
  endfacet
  facet normal 0.000000 0.831470 -0.555570
    outer loop
      vertex 0.000000 0.353553 -0.353553
      vertex 4.000000 0.461940 -0.191342
      vertex 4.000000 0.353553 -0.353553
    endloop
  endfacet
  facet normal 0.000000 0.980785 -0.195090
    outer loop
      vertex 0.000000 0.461940 -0.191342
      vertex 0.000000 0.500000 0.000000
      vertex 4.000000 0.500000 0.000000
    endloop
  endfacet
  facet normal 0.000000 0.980785 -0.195090
    outer loop
      vertex 0.000000 0.461940 -0.191342
      vertex 4.000000 0.500000 0.000000
      vertex 4.000000 0.461940 -0.191342
    endloop
  endfacet
  facet normal 0.000000 0.980785 0.195090
    outer loop
      vertex 4.000000 1.000000 0.000000
      vertex 4.000000 0.923880 0.382683
      vertex 12.000000 0.923880 0.382683
    endloop
  endfacet
  facet normal 0.000000 0.980785 0.195090
    outer loop
      vertex 4.000000 1.000000 0.000000
      vertex 12.000000 0.923880 0.382683
      vertex 12.000000 1.000000 0.000000
    endloop
  endfacet
  facet normal 0.000000 0.831470 0.555570
    outer loop
      vertex 4.000000 0.923880 0.382683
      vertex 4.000000 0.707107 0.707107
      vertex 12.000000 0.707107 0.707107
    endloop
  endfacet
  facet normal 0.000000 0.831470 0.555570
    outer loop
      vertex 4.000000 0.923880 0.382683
      vertex 12.000000 0.707107 0.707107
      vertex 12.000000 0.923880 0.382683
    endloop
  endfacet
  facet normal 0.000000 0.555570 0.831470
    outer loop
      vertex 4.000000 0.707107 0.707107
      vertex 4.000000 0.382683 0.923880
      vertex 12.000000 0.382683 0.923880
    endloop
  endfacet
  facet normal 0.000000 0.555570 0.831470
    outer loop
      vertex 4.000000 0.707107 0.707107
      vertex 12.000000 0.382683 0.923880
      vertex 12.000000 0.707107 0.707107
    endloop
  endfacet
  facet normal 0.000000 0.195090 0.980785
    outer loop
      vertex 4.000000 0.382683 0.923880
      vertex 4.000000 0.000000 1.000000
      vertex 12.000000 0.000000 1.000000
    endloop
  endfacet
  facet normal 0.000000 0.195090 0.980785
    outer loop
      vertex 4.000000 0.382683 0.923880
      vertex 12.000000 0.000000 1.000000
      vertex 12.000000 0.382683 0.923880
    endloop
  endfacet
  facet normal 0.000000 -0.195090 0.980785
    outer loop
      vertex 4.000000 0.000000 1.000000
      vertex 4.000000 -0.382683 0.923880
      vertex 12.000000 -0.382683 0.923880
    endloop
  endfacet
  facet normal 0.000000 -0.195090 0.980785
    outer loop
      vertex 4.000000 0.000000 1.000000
      vertex 12.000000 -0.382683 0.923880
      vertex 12.000000 0.000000 1.000000
    endloop
  endfacet
  facet normal 0.000000 -0.555570 0.831470
    outer loop
      vertex 4.000000 -0.382683 0.923880
      vertex 4.000000 -0.707107 0.707107
      vertex 12.000000 -0.707107 0.707107
    endloop
  endfacet
  facet normal 0.000000 -0.555570 0.831470
    outer loop
      vertex 4.000000 -0.382683 0.923880
      vertex 12.000000 -0.707107 0.707107
      vertex 12.000000 -0.382683 0.923880
    endloop
  endfacet
  facet normal 0.000000 -0.831470 0.555570
    outer loop
      vertex 4.000000 -0.707107 0.707107
      vertex 4.000000 -0.923880 0.382683
      vertex 12.000000 -0.923880 0.382683
    endloop
  endfacet
  facet normal 0.000000 -0.831470 0.555570
    outer loop
      vertex 4.000000 -0.707107 0.707107
      vertex 12.000000 -0.923880 0.382683
      vertex 12.000000 -0.707107 0.707107
    endloop
  endfacet
  facet normal 0.000000 -0.980785 0.195090
    outer loop
      vertex 4.000000 -0.923880 0.382683
      vertex 4.000000 -1.000000 0.000000
      vertex 12.000000 -1.000000 0.000000
    endloop
  endfacet
  facet normal 0.000000 -0.980785 0.195090
    outer loop
      vertex 4.000000 -0.923880 0.382683
      vertex 12.000000 -1.000000 0.000000
      vertex 12.000000 -0.923880 0.382683
    endloop
  endfacet
  facet normal 0.000000 -0.980785 -0.195090
    outer loop
      vertex 4.000000 -1.000000 0.000000
      vertex 4.000000 -0.923880 -0.382683
      vertex 12.000000 -0.923880 -0.382683
    endloop
  endfacet
  facet normal 0.000000 -0.980785 -0.195090
    outer loop
      vertex 4.000000 -1.000000 0.000000
      vertex 12.000000 -0.923880 -0.382683
      vertex 12.000000 -1.000000 0.000000
    endloop
  endfacet
  facet normal 0.000000 -0.831470 -0.555570
    outer loop
      vertex 4.000000 -0.923880 -0.382683
      vertex 4.000000 -0.707107 -0.707107
      vertex 12.000000 -0.707107 -0.707107
    endloop
  endfacet
  facet normal 0.000000 -0.831470 -0.555570
    outer loop
      vertex 4.000000 -0.923880 -0.382683
      vertex 12.000000 -0.707107 -0.707107
      vertex 12.000000 -0.923880 -0.382683
    endloop
  endfacet
  facet normal 0.000000 -0.555570 -0.831470
    outer loop
      vertex 4.000000 -0.707107 -0.707107
      vertex 4.000000 -0.382683 -0.923880
      vertex 12.000000 -0.382683 -0.923880
    endloop
  endfacet
  facet normal 0.000000 -0.555570 -0.831470
    outer loop
      vertex 4.000000 -0.707107 -0.707107
      vertex 12.000000 -0.382683 -0.923880
      vertex 12.000000 -0.707107 -0.707107
    endloop
  endfacet
  facet normal 0.000000 -0.195090 -0.980785
    outer loop
      vertex 4.000000 -0.382683 -0.923880
      vertex 4.000000 0.000000 -1.000000
      vertex 12.000000 0.000000 -1.000000
    endloop
  endfacet
  facet normal 0.000000 -0.195090 -0.980785
    outer loop
      vertex 4.000000 -0.382683 -0.923880
      vertex 12.000000 0.000000 -1.000000
      vertex 12.000000 -0.382683 -0.923880
    endloop
  endfacet
  facet normal 0.000000 0.195090 -0.980785
    outer loop
      vertex 4.000000 0.000000 -1.000000
      vertex 4.000000 0.382683 -0.923880
      vertex 12.000000 0.382683 -0.923880
    endloop
  endfacet
  facet normal 0.000000 0.195090 -0.980785
    outer loop
      vertex 4.000000 0.000000 -1.000000
      vertex 12.000000 0.382683 -0.923880
      vertex 12.000000 0.000000 -1.000000
    endloop
  endfacet
  facet normal 0.000000 0.555570 -0.831470
    outer loop
      vertex 4.000000 0.382683 -0.923880
      vertex 4.000000 0.707107 -0.707107
      vertex 12.000000 0.707107 -0.707107
    endloop
  endfacet
  facet normal 0.000000 0.555570 -0.831470
    outer loop
      vertex 4.000000 0.382683 -0.923880
      vertex 12.000000 0.707107 -0.707107
      vertex 12.000000 0.382683 -0.923880
    endloop
  endfacet
  facet normal 0.000000 0.831470 -0.555570
    outer loop
      vertex 4.000000 0.707107 -0.707107
      vertex 4.000000 0.923880 -0.382683
      vertex 12.000000 0.923880 -0.382683
    endloop
  endfacet
  facet normal 0.000000 0.831470 -0.555570
    outer loop
      vertex 4.000000 0.707107 -0.707107
      vertex 12.000000 0.923880 -0.382683
      vertex 12.000000 0.707107 -0.707107
    endloop
  endfacet
  facet normal 0.000000 0.980785 -0.195090
    outer loop
      vertex 4.000000 0.923880 -0.382683
      vertex 4.000000 1.000000 0.000000
      vertex 12.000000 1.000000 0.000000
    endloop
  endfacet
  facet normal 0.000000 0.980785 -0.195090
    outer loop
      vertex 4.000000 0.923880 -0.382683
      vertex 12.000000 1.000000 0.000000
      vertex 12.000000 0.923880 -0.382683
    endloop
  endfacet
  facet normal -1.000000 0.000000 0.000000
    outer loop
      vertex 4.000000 0.500000 0.000000
      vertex 4.000000 0.461940 0.191342
      vertex 4.000000 0.923880 0.382683
    endloop
  endfacet
  facet normal -1.000000 0.000000 0.000000
    outer loop
      vertex 4.000000 0.500000 0.000000
      vertex 4.000000 0.923880 0.382683
      vertex 4.000000 1.000000 0.000000
    endloop
  endfacet
  facet normal -1.000000 0.000000 0.000000
    outer loop
      vertex 4.000000 0.461940 0.191342
      vertex 4.000000 0.353553 0.353553
      vertex 4.000000 0.707107 0.707107
    endloop
  endfacet
  facet normal -1.000000 0.000000 0.000000
    outer loop
      vertex 4.000000 0.461940 0.191342
      vertex 4.000000 0.707107 0.707107
      vertex 4.000000 0.923880 0.382683
    endloop
  endfacet
  facet normal -1.000000 0.000000 0.000000
    outer loop
      vertex 4.000000 0.353553 0.353553
      vertex 4.000000 0.191342 0.461940
      vertex 4.000000 0.382683 0.923880
    endloop
  endfacet
  facet normal -1.000000 0.000000 0.000000
    outer loop
      vertex 4.000000 0.353553 0.353553
      vertex 4.000000 0.382683 0.923880
      vertex 4.000000 0.707107 0.707107
    endloop
  endfacet
  facet normal -1.000000 0.000000 0.000000
    outer loop
      vertex 4.000000 0.191342 0.461940
      vertex 4.000000 0.000000 0.500000
      vertex 4.000000 0.000000 1.000000
    endloop
  endfacet
  facet normal -1.000000 0.000000 0.000000
    outer loop
      vertex 4.000000 0.191342 0.461940
      vertex 4.000000 0.000000 1.000000
      vertex 4.000000 0.382683 0.923880
    endloop
  endfacet
  facet normal -1.000000 0.000000 0.000000
    outer loop
      vertex 4.000000 0.000000 0.500000
      vertex 4.000000 -0.191342 0.461940
      vertex 4.000000 -0.382683 0.923880
    endloop
  endfacet
  facet normal -1.000000 0.000000 0.000000
    outer loop
      vertex 4.000000 0.000000 0.500000
      vertex 4.000000 -0.382683 0.923880
      vertex 4.000000 0.000000 1.000000
    endloop
  endfacet
  facet normal -1.000000 0.000000 0.000000
    outer loop
      vertex 4.000000 -0.191342 0.461940
      vertex 4.000000 -0.353553 0.353553
      vertex 4.000000 -0.707107 0.707107
    endloop
  endfacet
  facet normal -1.000000 0.000000 0.000000
    outer loop
      vertex 4.000000 -0.191342 0.461940
      vertex 4.000000 -0.707107 0.707107
      vertex 4.000000 -0.382683 0.923880
    endloop
  endfacet
  facet normal -1.000000 0.000000 0.000000
    outer loop
      vertex 4.000000 -0.353553 0.353553
      vertex 4.000000 -0.461940 0.191342
      vertex 4.000000 -0.923880 0.382683
    endloop
  endfacet
  facet normal -1.000000 0.000000 0.000000
    outer loop
      vertex 4.000000 -0.353553 0.353553
      vertex 4.000000 -0.923880 0.382683
      vertex 4.000000 -0.707107 0.707107
    endloop
  endfacet
  facet normal -1.000000 0.000000 0.000000
    outer loop
      vertex 4.000000 -0.461940 0.191342
      vertex 4.000000 -0.500000 0.000000
      vertex 4.000000 -1.000000 0.000000
    endloop
  endfacet
  facet normal -1.000000 0.000000 0.000000
    outer loop
      vertex 4.000000 -0.461940 0.191342
      vertex 4.000000 -1.000000 0.000000
      vertex 4.000000 -0.923880 0.382683
    endloop
  endfacet
  facet normal -1.000000 0.000000 0.000000
    outer loop
      vertex 4.000000 -0.500000 0.000000
      vertex 4.000000 -0.461940 -0.191342
      vertex 4.000000 -0.923880 -0.382683
    endloop
  endfacet
  facet normal -1.000000 0.000000 0.000000
    outer loop
      vertex 4.000000 -0.500000 0.000000
      vertex 4.000000 -0.923880 -0.382683
      vertex 4.000000 -1.000000 0.000000
    endloop
  endfacet
  facet normal -1.000000 0.000000 0.000000
    outer loop
      vertex 4.000000 -0.461940 -0.191342
      vertex 4.000000 -0.353553 -0.353553
      vertex 4.000000 -0.707107 -0.707107
    endloop
  endfacet
  facet normal -1.000000 0.000000 0.000000
    outer loop
      vertex 4.000000 -0.461940 -0.191342
      vertex 4.000000 -0.707107 -0.707107
      vertex 4.000000 -0.923880 -0.382683
    endloop
  endfacet
  facet normal -1.000000 0.000000 0.000000
    outer loop
      vertex 4.000000 -0.353553 -0.353553
      vertex 4.000000 -0.191342 -0.461940
      vertex 4.000000 -0.382683 -0.923880
    endloop
  endfacet
  facet normal -1.000000 0.000000 0.000000
    outer loop
      vertex 4.000000 -0.353553 -0.353553
      vertex 4.000000 -0.382683 -0.923880
      vertex 4.000000 -0.707107 -0.707107
    endloop
  endfacet
  facet normal -1.000000 0.000000 0.000000
    outer loop
      vertex 4.000000 -0.191342 -0.461940
      vertex 4.000000 0.000000 -0.500000
      vertex 4.000000 0.000000 -1.000000
    endloop
  endfacet
  facet normal -1.000000 0.000000 0.000000
    outer loop
      vertex 4.000000 -0.191342 -0.461940
      vertex 4.000000 0.000000 -1.000000
      vertex 4.000000 -0.382683 -0.923880
    endloop
  endfacet
  facet normal -1.000000 0.000000 0.000000
    outer loop
      vertex 4.000000 0.000000 -0.500000
      vertex 4.000000 0.191342 -0.461940
      vertex 4.000000 0.382683 -0.923880
    endloop
  endfacet
  facet normal -1.000000 0.000000 0.000000
    outer loop
      vertex 4.000000 0.000000 -0.500000
      vertex 4.000000 0.382683 -0.923880
      vertex 4.000000 0.000000 -1.000000
    endloop
  endfacet
  facet normal -1.000000 0.000000 0.000000
    outer loop
      vertex 4.000000 0.191342 -0.461940
      vertex 4.000000 0.353553 -0.353553
      vertex 4.000000 0.707107 -0.707107
    endloop
  endfacet
  facet normal -1.000000 0.000000 0.000000
    outer loop
      vertex 4.000000 0.191342 -0.461940
      vertex 4.000000 0.707107 -0.707107
      vertex 4.000000 0.382683 -0.923880
    endloop
  endfacet
  facet normal -1.000000 0.000000 0.000000
    outer loop
      vertex 4.000000 0.353553 -0.353553
      vertex 4.000000 0.461940 -0.191342
      vertex 4.000000 0.923880 -0.382683
    endloop
  endfacet
  facet normal -1.000000 0.000000 0.000000
    outer loop
      vertex 4.000000 0.353553 -0.353553
      vertex 4.000000 0.923880 -0.382683
      vertex 4.000000 0.707107 -0.707107
    endloop
  endfacet
  facet normal -1.000000 0.000000 0.000000
    outer loop
      vertex 4.000000 0.461940 -0.191342
      vertex 4.000000 0.500000 0.000000
      vertex 4.000000 1.000000 0.000000
    endloop
  endfacet
  facet normal -1.000000 0.000000 0.000000
    outer loop
      vertex 4.000000 0.461940 -0.191342
      vertex 4.000000 1.000000 0.000000
      vertex 4.000000 0.923880 -0.382683
    endloop
  endfacet
  facet normal -1.000000 0.000000 0.000000
    outer loop
      vertex 0.000000 0.000000 0.000000
      vertex 0.000000 0.461940 0.191342
      vertex 0.000000 0.500000 0.000000
    endloop
  endfacet
  facet normal -1.000000 0.000000 0.000000
    outer loop
      vertex 0.000000 0.000000 0.000000
      vertex 0.000000 0.353553 0.353553
      vertex 0.000000 0.461940 0.191342
    endloop
  endfacet
  facet normal -1.000000 0.000000 0.000000
    outer loop
      vertex 0.000000 0.000000 0.000000
      vertex 0.000000 0.191342 0.461940
      vertex 0.000000 0.353553 0.353553
    endloop
  endfacet
  facet normal -1.000000 0.000000 0.000000
    outer loop
      vertex 0.000000 0.000000 0.000000
      vertex 0.000000 0.000000 0.500000
      vertex 0.000000 0.191342 0.461940
    endloop
  endfacet
  facet normal -1.000000 0.000000 0.000000
    outer loop
      vertex 0.000000 0.000000 0.000000
      vertex 0.000000 -0.191342 0.461940
      vertex 0.000000 0.000000 0.500000
    endloop
  endfacet
  facet normal -1.000000 0.000000 0.000000
    outer loop
      vertex 0.000000 0.000000 0.000000
      vertex 0.000000 -0.353553 0.353553
      vertex 0.000000 -0.191342 0.461940
    endloop
  endfacet
  facet normal -1.000000 0.000000 0.000000
    outer loop
      vertex 0.000000 0.000000 0.000000
      vertex 0.000000 -0.461940 0.191342
      vertex 0.000000 -0.353553 0.353553
    endloop
  endfacet
  facet normal -1.000000 0.000000 0.000000
    outer loop
      vertex 0.000000 0.000000 0.000000
      vertex 0.000000 -0.500000 0.000000
      vertex 0.000000 -0.461940 0.191342
    endloop
  endfacet
  facet normal -1.000000 0.000000 0.000000
    outer loop
      vertex 0.000000 0.000000 0.000000
      vertex 0.000000 -0.461940 -0.191342
      vertex 0.000000 -0.500000 0.000000
    endloop
  endfacet
  facet normal -1.000000 0.000000 0.000000
    outer loop
      vertex 0.000000 0.000000 0.000000
      vertex 0.000000 -0.353553 -0.353553
      vertex 0.000000 -0.461940 -0.191342
    endloop
  endfacet
  facet normal -1.000000 0.000000 0.000000
    outer loop
      vertex 0.000000 0.000000 0.000000
      vertex 0.000000 -0.191342 -0.461940
      vertex 0.000000 -0.353553 -0.353553
    endloop
  endfacet
  facet normal -1.000000 0.000000 0.000000
    outer loop
      vertex 0.000000 0.000000 0.000000
      vertex 0.000000 0.000000 -0.500000
      vertex 0.000000 -0.191342 -0.461940
    endloop
  endfacet
  facet normal -1.000000 0.000000 0.000000
    outer loop
      vertex 0.000000 0.000000 0.000000
      vertex 0.000000 0.191342 -0.461940
      vertex 0.000000 0.000000 -0.500000
    endloop
  endfacet
  facet normal -1.000000 0.000000 0.000000
    outer loop
      vertex 0.000000 0.000000 0.000000
      vertex 0.000000 0.353553 -0.353553
      vertex 0.000000 0.191342 -0.461940
    endloop
  endfacet
  facet normal -1.000000 0.000000 0.000000
    outer loop
      vertex 0.000000 0.000000 0.000000
      vertex 0.000000 0.461940 -0.191342
      vertex 0.000000 0.353553 -0.353553
    endloop
  endfacet
  facet normal -1.000000 0.000000 0.000000
    outer loop
      vertex 0.000000 0.000000 0.000000
      vertex 0.000000 0.500000 0.000000
      vertex 0.000000 0.461940 -0.191342
    endloop
  endfacet
  facet normal 1.000000 0.000000 0.000000
    outer loop
      vertex 12.000000 0.000000 0.000000
      vertex 12.000000 1.000000 0.000000
      vertex 12.000000 0.923880 0.382683
    endloop
  endfacet
  facet normal 1.000000 0.000000 0.000000
    outer loop
      vertex 12.000000 0.000000 0.000000
      vertex 12.000000 0.923880 0.382683
      vertex 12.000000 0.707107 0.707107
    endloop
  endfacet
  facet normal 1.000000 0.000000 0.000000
    outer loop
      vertex 12.000000 0.000000 0.000000
      vertex 12.000000 0.707107 0.707107
      vertex 12.000000 0.382683 0.923880
    endloop
  endfacet
  facet normal 1.000000 0.000000 0.000000
    outer loop
      vertex 12.000000 0.000000 0.000000
      vertex 12.000000 0.382683 0.923880
      vertex 12.000000 0.000000 1.000000
    endloop
  endfacet
  facet normal 1.000000 0.000000 0.000000
    outer loop
      vertex 12.000000 0.000000 0.000000
      vertex 12.000000 0.000000 1.000000
      vertex 12.000000 -0.382683 0.923880
    endloop
  endfacet
  facet normal 1.000000 0.000000 0.000000
    outer loop
      vertex 12.000000 0.000000 0.000000
      vertex 12.000000 -0.382683 0.923880
      vertex 12.000000 -0.707107 0.707107
    endloop
  endfacet
  facet normal 1.000000 0.000000 0.000000
    outer loop
      vertex 12.000000 0.000000 0.000000
      vertex 12.000000 -0.707107 0.707107
      vertex 12.000000 -0.923880 0.382683
    endloop
  endfacet
  facet normal 1.000000 0.000000 0.000000
    outer loop
      vertex 12.000000 0.000000 0.000000
      vertex 12.000000 -0.923880 0.382683
      vertex 12.000000 -1.000000 0.000000
    endloop
  endfacet
  facet normal 1.000000 0.000000 0.000000
    outer loop
      vertex 12.000000 0.000000 0.000000
      vertex 12.000000 -1.000000 0.000000
      vertex 12.000000 -0.923880 -0.382683
    endloop
  endfacet
  facet normal 1.000000 0.000000 0.000000
    outer loop
      vertex 12.000000 0.000000 0.000000
      vertex 12.000000 -0.923880 -0.382683
      vertex 12.000000 -0.707107 -0.707107
    endloop
  endfacet
  facet normal 1.000000 0.000000 0.000000
    outer loop
      vertex 12.000000 0.000000 0.000000
      vertex 12.000000 -0.707107 -0.707107
      vertex 12.000000 -0.382683 -0.923880
    endloop
  endfacet
  facet normal 1.000000 0.000000 0.000000
    outer loop
      vertex 12.000000 0.000000 0.000000
      vertex 12.000000 -0.382683 -0.923880
      vertex 12.000000 0.000000 -1.000000
    endloop
  endfacet
  facet normal 1.000000 0.000000 0.000000
    outer loop
      vertex 12.000000 0.000000 0.000000
      vertex 12.000000 0.000000 -1.000000
      vertex 12.000000 0.382683 -0.923880
    endloop
  endfacet
  facet normal 1.000000 0.000000 0.000000
    outer loop
      vertex 12.000000 0.000000 0.000000
      vertex 12.000000 0.382683 -0.923880
      vertex 12.000000 0.707107 -0.707107
    endloop
  endfacet
  facet normal 1.000000 0.000000 0.000000
    outer loop
      vertex 12.000000 0.000000 0.000000
      vertex 12.000000 0.707107 -0.707107
      vertex 12.000000 0.923880 -0.382683
    endloop
  endfacet
  facet normal 1.000000 0.000000 0.000000
    outer loop
      vertex 12.000000 0.000000 0.000000
      vertex 12.000000 0.923880 -0.382683
      vertex 12.000000 1.000000 0.000000
    endloop
  endfacet
endsolid pipe_expansion
