solid inlet
facet normal 0.0 0.0 -1.0
outer loop
vertex 0.0 0.0 0.0
vertex 0.04957224306869052 0.006526309611002579 0.0
vertex 0.05 0.0 0.0
endloop
endfacet
facet normal 0.0 0.0 -1.0
outer loop
vertex 0.0 0.0 0.0
vertex 0.04829629131445342 0.012940952255126037 0.0
vertex 0.04957224306869052 0.006526309611002579 0.0
endloop
endfacet
facet normal 0.0 0.0 -1.0
outer loop
vertex 0.0 0.0 0.0
vertex 0.04619397662556434 0.01913417161825449 0.0
vertex 0.04829629131445342 0.012940952255126037 0.0
endloop
endfacet
facet normal 0.0 0.0 -1.0
outer loop
vertex 0.0 0.0 0.0
vertex 0.04330127018922194 0.024999999999999998 0.0
vertex 0.04619397662556434 0.01913417161825449 0.0
endloop
endfacet
facet normal 0.0 0.0 -1.0
outer loop
vertex 0.0 0.0 0.0
vertex 0.039667667014561765 0.03043807145043603 0.0
vertex 0.04330127018922194 0.024999999999999998 0.0
endloop
endfacet
facet normal 0.0 0.0 -1.0
outer loop
vertex 0.0 0.0 0.0
vertex 0.03535533905932738 0.035355339059327376 0.0
vertex 0.039667667014561765 0.03043807145043603 0.0
endloop
endfacet
facet normal 0.0 0.0 -1.0
outer loop
vertex 0.0 0.0 0.0
vertex 0.030438071450436033 0.03966766701456176 0.0
vertex 0.03535533905932738 0.035355339059327376 0.0
endloop
endfacet
facet normal 0.0 0.0 -1.0
outer loop
vertex 0.0 0.0 0.0
vertex 0.02500000000000001 0.04330127018922193 0.0
vertex 0.030438071450436033 0.03966766701456176 0.0
endloop
endfacet
facet normal 0.0 0.0 -1.0
outer loop
vertex 0.0 0.0 0.0
vertex 0.019134171618254495 0.04619397662556434 0.0
vertex 0.02500000000000001 0.04330127018922193 0.0
endloop
endfacet
facet normal 0.0 0.0 -1.0
outer loop
vertex 0.0 0.0 0.0
vertex 0.012940952255126049 0.04829629131445341 0.0
vertex 0.019134171618254495 0.04619397662556434 0.0
endloop
endfacet
facet normal 0.0 0.0 -1.0
outer loop
vertex 0.0 0.0 0.0
vertex 0.006526309611002586 0.04957224306869052 0.0
vertex 0.012940952255126049 0.04829629131445341 0.0
endloop
endfacet
facet normal 0.0 0.0 -1.0
outer loop
vertex 0.0 0.0 0.0
vertex 3.061616997868383e-18 0.05 0.0
vertex 0.006526309611002586 0.04957224306869052 0.0
endloop
endfacet
facet normal 0.0 0.0 -1.0
outer loop
vertex 0.0 0.0 0.0
vertex -0.006526309611002569 0.04957224306869053 0.0
vertex 3.061616997868383e-18 0.05 0.0
endloop
endfacet
facet normal 0.0 0.0 -1.0
outer loop
vertex 0.0 0.0 0.0
vertex -0.012940952255126032 0.04829629131445342 0.0
vertex -0.006526309611002569 0.04957224306869053 0.0
endloop
endfacet
facet normal 0.0 0.0 -1.0
outer loop
vertex 0.0 0.0 0.0
vertex -0.019134171618254477 0.04619397662556435 0.0
vertex -0.012940952255126032 0.04829629131445342 0.0
endloop
endfacet
facet normal 0.0 0.0 -0.9999999999999999
outer loop
vertex 0.0 0.0 0.0
vertex -0.024999999999999994 0.04330127018922194 0.0
vertex -0.019134171618254477 0.04619397662556435 0.0
endloop
endfacet
facet normal 0.0 0.0 -1.0
outer loop
vertex 0.0 0.0 0.0
vertex -0.03043807145043602 0.03966766701456177 0.0
vertex -0.024999999999999994 0.04330127018922194 0.0
endloop
endfacet
facet normal 0.0 0.0 -1.0
outer loop
vertex 0.0 0.0 0.0
vertex -0.035355339059327376 0.03535533905932738 0.0
vertex -0.03043807145043602 0.03966766701456177 0.0
endloop
endfacet
facet normal 0.0 0.0 -1.0
outer loop
vertex 0.0 0.0 0.0
vertex -0.03966766701456176 0.030438071450436047 0.0
vertex -0.035355339059327376 0.03535533905932738 0.0
endloop
endfacet
facet normal 0.0 0.0 -1.0
outer loop
vertex 0.0 0.0 0.0
vertex -0.043301270189221926 0.02500000000000002 0.0
vertex -0.03966766701456176 0.030438071450436047 0.0
endloop
endfacet
facet normal 0.0 0.0 -0.9999999999999999
outer loop
vertex 0.0 0.0 0.0
vertex -0.04619397662556434 0.019134171618254495 0.0
vertex -0.043301270189221926 0.02500000000000002 0.0
endloop
endfacet
facet normal 0.0 0.0 -1.0
outer loop
vertex 0.0 0.0 0.0
vertex -0.04829629131445341 0.01294095225512605 0.0
vertex -0.04619397662556434 0.019134171618254495 0.0
endloop
endfacet
facet normal 0.0 0.0 -1.0
outer loop
vertex 0.0 0.0 0.0
vertex -0.04957224306869052 0.0065263096110026 0.0
vertex -0.04829629131445341 0.01294095225512605 0.0
endloop
endfacet
facet normal 0.0 0.0 -1.0
outer loop
vertex 0.0 0.0 0.0
vertex -0.05 6.123233995736766e-18 0.0
vertex -0.04957224306869052 0.0065263096110026 0.0
endloop
endfacet
endsolid inlet
solid outlet
facet normal 0.0 -0.0 1.0
outer loop
vertex 0.0 0.0 0.3
vertex 0.05 0.0 0.3
vertex 0.04957224306869052 0.006526309611002579 0.3
endloop
endfacet
facet normal 0.0 -0.0 0.9999999999999999
outer loop
vertex 0.0 0.0 0.3
vertex 0.04957224306869052 0.006526309611002579 0.3
vertex 0.04829629131445342 0.012940952255126037 0.3
endloop
endfacet
facet normal 0.0 -0.0 1.0
outer loop
vertex 0.0 0.0 0.3
vertex 0.04829629131445342 0.012940952255126037 0.3
vertex 0.04619397662556434 0.01913417161825449 0.3
endloop
endfacet
facet normal 0.0 -0.0 1.0
outer loop
vertex 0.0 0.0 0.3
vertex 0.04619397662556434 0.01913417161825449 0.3
vertex 0.04330127018922194 0.024999999999999998 0.3
endloop
endfacet
facet normal 0.0 -0.0 1.0
outer loop
vertex 0.0 0.0 0.3
vertex 0.04330127018922194 0.024999999999999998 0.3
vertex 0.039667667014561765 0.03043807145043603 0.3
endloop
endfacet
facet normal 0.0 -0.0 1.0
outer loop
vertex 0.0 0.0 0.3
vertex 0.039667667014561765 0.03043807145043603 0.3
vertex 0.03535533905932738 0.035355339059327376 0.3
endloop
endfacet
facet normal 0.0 -0.0 1.0
outer loop
vertex 0.0 0.0 0.3
vertex 0.03535533905932738 0.035355339059327376 0.3
vertex 0.030438071450436033 0.03966766701456176 0.3
endloop
endfacet
facet normal 0.0 -0.0 1.0
outer loop
vertex 0.0 0.0 0.3
vertex 0.030438071450436033 0.03966766701456176 0.3
vertex 0.02500000000000001 0.04330127018922193 0.3
endloop
endfacet
facet normal 0.0 -0.0 1.0
outer loop
vertex 0.0 0.0 0.3
vertex 0.02500000000000001 0.04330127018922193 0.3
vertex 0.019134171618254495 0.04619397662556434 0.3
endloop
endfacet
facet normal 0.0 -0.0 1.0
outer loop
vertex 0.0 0.0 0.3
vertex 0.019134171618254495 0.04619397662556434 0.3
vertex 0.012940952255126049 0.04829629131445341 0.3
endloop
endfacet
facet normal 0.0 -0.0 1.0
outer loop
vertex 0.0 0.0 0.3
vertex 0.012940952255126049 0.04829629131445341 0.3
vertex 0.006526309611002586 0.04957224306869052 0.3
endloop
endfacet
facet normal 0.0 -0.0 1.0
outer loop
vertex 0.0 0.0 0.3
vertex 0.006526309611002586 0.04957224306869052 0.3
vertex 3.061616997868383e-18 0.05 0.3
endloop
endfacet
facet normal 0.0 -0.0 1.0
outer loop
vertex 0.0 0.0 0.3
vertex 3.061616997868383e-18 0.05 0.3
vertex -0.006526309611002569 0.04957224306869053 0.3
endloop
endfacet
facet normal 0.0 0.0 1.0
outer loop
vertex 0.0 0.0 0.3
vertex -0.006526309611002569 0.04957224306869053 0.3
vertex -0.012940952255126032 0.04829629131445342 0.3
endloop
endfacet
facet normal 0.0 0.0 1.0
outer loop
vertex 0.0 0.0 0.3
vertex -0.012940952255126032 0.04829629131445342 0.3
vertex -0.019134171618254477 0.04619397662556435 0.3
endloop
endfacet
facet normal 0.0 0.0 0.9999999999999999
outer loop
vertex 0.0 0.0 0.3
vertex -0.019134171618254477 0.04619397662556435 0.3
vertex -0.024999999999999994 0.04330127018922194 0.3
endloop
endfacet
facet normal 0.0 0.0 1.0
outer loop
vertex 0.0 0.0 0.3
vertex -0.024999999999999994 0.04330127018922194 0.3
vertex -0.03043807145043602 0.03966766701456177 0.3
endloop
endfacet
facet normal 0.0 0.0 1.0
outer loop
vertex 0.0 0.0 0.3
vertex -0.03043807145043602 0.03966766701456177 0.3
vertex -0.035355339059327376 0.03535533905932738 0.3
endloop
endfacet
facet normal 0.0 0.0 1.0
outer loop
vertex 0.0 0.0 0.3
vertex -0.035355339059327376 0.03535533905932738 0.3
vertex -0.03966766701456176 0.030438071450436047 0.3
endloop
endfacet
facet normal 0.0 0.0 1.0
outer loop
vertex 0.0 0.0 0.3
vertex -0.03966766701456176 0.030438071450436047 0.3
vertex -0.043301270189221926 0.02500000000000002 0.3
endloop
endfacet
facet normal 0.0 0.0 0.9999999999999999
outer loop
vertex 0.0 0.0 0.3
vertex -0.043301270189221926 0.02500000000000002 0.3
vertex -0.04619397662556434 0.019134171618254495 0.3
endloop
endfacet
facet normal 0.0 0.0 1.0
outer loop
vertex 0.0 0.0 0.3
vertex -0.04619397662556434 0.019134171618254495 0.3
vertex -0.04829629131445341 0.01294095225512605 0.3
endloop
endfacet
facet normal 0.0 0.0 1.0
outer loop
vertex 0.0 0.0 0.3
vertex -0.04829629131445341 0.01294095225512605 0.3
vertex -0.04957224306869052 0.0065263096110026 0.3
endloop
endfacet
facet normal 0.0 0.0 1.0
outer loop
vertex 0.0 0.0 0.3
vertex -0.04957224306869052 0.0065263096110026 0.3
vertex -0.05 6.123233995736766e-18 0.3
endloop
endfacet
endsolid outlet
solid walls
facet normal 0.9978589232386035 0.06540312923014349 -0.0
outer loop
vertex 0.05 0.0 0.0
vertex 0.04957224306869052 0.006526309611002579 0.0
vertex 0.04957224306869052 0.006526309611002579 0.3
endloop
endfacet
facet normal 0.9978589232386035 0.06540312923014349 0.0
outer loop
vertex 0.05 0.0 0.0
vertex 0.04957224306869052 0.006526309611002579 0.3
vertex 0.05 0.0 0.3
endloop
endfacet
facet normal 0.9807852804032305 0.19509032201612747 -0.0
outer loop
vertex 0.04957224306869052 0.006526309611002579 0.0
vertex 0.04829629131445342 0.012940952255126037 0.0
vertex 0.04829629131445342 0.012940952255126037 0.3
endloop
endfacet
facet normal 0.9807852804032305 0.19509032201612747 0.0
outer loop
vertex 0.04957224306869052 0.006526309611002579 0.0
vertex 0.04829629131445342 0.012940952255126037 0.3
vertex 0.04957224306869052 0.006526309611002579 0.3
endloop
endfacet
facet normal 0.9469301294951056 0.3214394653031617 -0.0
outer loop
vertex 0.04829629131445342 0.012940952255126037 0.0
vertex 0.04619397662556434 0.01913417161825449 0.0
vertex 0.04619397662556434 0.01913417161825449 0.3
endloop
endfacet
facet normal 0.9469301294951056 0.3214394653031617 0.0
outer loop
vertex 0.04829629131445342 0.012940952255126037 0.0
vertex 0.04619397662556434 0.01913417161825449 0.3
vertex 0.04829629131445342 0.012940952255126037 0.3
endloop
endfacet
facet normal 0.8968727415326884 0.4422886902190011 -0.0
outer loop
vertex 0.04619397662556434 0.01913417161825449 0.0
vertex 0.04330127018922194 0.024999999999999998 0.0
vertex 0.04330127018922194 0.024999999999999998 0.3
endloop
endfacet
facet normal 0.8968727415326884 0.4422886902190011 0.0
outer loop
vertex 0.04619397662556434 0.01913417161825449 0.0
vertex 0.04330127018922194 0.024999999999999998 0.3
vertex 0.04619397662556434 0.01913417161825449 0.3
endloop
endfacet
facet normal 0.8314696123025452 0.5555702330196024 -0.0
outer loop
vertex 0.04330127018922194 0.024999999999999998 0.0
vertex 0.039667667014561765 0.03043807145043603 0.0
vertex 0.039667667014561765 0.03043807145043603 0.3
endloop
endfacet
facet normal 0.8314696123025452 0.5555702330196024 0.0
outer loop
vertex 0.04330127018922194 0.024999999999999998 0.0
vertex 0.039667667014561765 0.03043807145043603 0.3
vertex 0.04330127018922194 0.024999999999999998 0.3
endloop
endfacet
facet normal 0.7518398074789776 0.6593458151000687 -0.0
outer loop
vertex 0.039667667014561765 0.03043807145043603 0.0
vertex 0.03535533905932738 0.035355339059327376 0.0
vertex 0.03535533905932738 0.035355339059327376 0.3
endloop
endfacet
facet normal 0.7518398074789776 0.6593458151000687 0.0
outer loop
vertex 0.039667667014561765 0.03043807145043603 0.0
vertex 0.03535533905932738 0.035355339059327376 0.3
vertex 0.039667667014561765 0.03043807145043603 0.3
endloop
endfacet
facet normal 0.6593458151000684 0.7518398074789777 -0.0
outer loop
vertex 0.03535533905932738 0.035355339059327376 0.0
vertex 0.030438071450436033 0.03966766701456176 0.0
vertex 0.030438071450436033 0.03966766701456176 0.3
endloop
endfacet
facet normal 0.6593458151000684 0.7518398074789777 0.0
outer loop
vertex 0.03535533905932738 0.035355339059327376 0.0
vertex 0.030438071450436033 0.03966766701456176 0.3
vertex 0.03535533905932738 0.035355339059327376 0.3
endloop
endfacet
facet normal 0.5555702330196027 0.8314696123025448 -0.0
outer loop
vertex 0.030438071450436033 0.03966766701456176 0.0
vertex 0.02500000000000001 0.04330127018922193 0.0
vertex 0.02500000000000001 0.04330127018922193 0.3
endloop
endfacet
facet normal 0.5555702330196027 0.8314696123025448 0.0
outer loop
vertex 0.030438071450436033 0.03966766701456176 0.0
vertex 0.02500000000000001 0.04330127018922193 0.3
vertex 0.030438071450436033 0.03966766701456176 0.3
endloop
endfacet
facet normal 0.4422886902190015 0.8968727415326881 -0.0
outer loop
vertex 0.02500000000000001 0.04330127018922193 0.0
vertex 0.019134171618254495 0.04619397662556434 0.0
vertex 0.019134171618254495 0.04619397662556434 0.3
endloop
endfacet
facet normal 0.4422886902190015 0.8968727415326881 0.0
outer loop
vertex 0.02500000000000001 0.04330127018922193 0.0
vertex 0.019134171618254495 0.04619397662556434 0.3
vertex 0.02500000000000001 0.04330127018922193 0.3
endloop
endfacet
facet normal 0.3214394653031611 0.9469301294951057 -0.0
outer loop
vertex 0.019134171618254495 0.04619397662556434 0.0
vertex 0.012940952255126049 0.04829629131445341 0.0
vertex 0.012940952255126049 0.04829629131445341 0.3
endloop
endfacet
facet normal 0.3214394653031611 0.9469301294951057 0.0
outer loop
vertex 0.019134171618254495 0.04619397662556434 0.0
vertex 0.012940952255126049 0.04829629131445341 0.3
vertex 0.019134171618254495 0.04619397662556434 0.3
endloop
endfacet
facet normal 0.19509032201612833 0.9807852804032304 -0.0
outer loop
vertex 0.012940952255126049 0.04829629131445341 0.0
vertex 0.006526309611002586 0.04957224306869052 0.0
vertex 0.006526309611002586 0.04957224306869052 0.3
endloop
endfacet
facet normal 0.19509032201612833 0.9807852804032304 0.0
outer loop
vertex 0.012940952255126049 0.04829629131445341 0.0
vertex 0.006526309611002586 0.04957224306869052 0.3
vertex 0.012940952255126049 0.04829629131445341 0.3
endloop
endfacet
facet normal 0.06540312923014346 0.9978589232386035 -0.0
outer loop
vertex 0.006526309611002586 0.04957224306869052 0.0
vertex 3.061616997868383e-18 0.05 0.0
vertex 3.061616997868383e-18 0.05 0.3
endloop
endfacet
facet normal 0.06540312923014346 0.9978589232386035 0.0
outer loop
vertex 0.006526309611002586 0.04957224306869052 0.0
vertex 3.061616997868383e-18 0.05 0.3
vertex 0.006526309611002586 0.04957224306869052 0.3
endloop
endfacet
facet normal -0.0654031292301425 0.9978589232386035 0.0
outer loop
vertex 3.061616997868383e-18 0.05 0.0
vertex -0.006526309611002569 0.04957224306869053 0.0
vertex -0.006526309611002569 0.04957224306869053 0.3
endloop
endfacet
facet normal -0.0654031292301425 0.9978589232386035 0.0
outer loop
vertex 3.061616997868383e-18 0.05 0.0
vertex -0.006526309611002569 0.04957224306869053 0.3
vertex 3.061616997868383e-18 0.05 0.3
endloop
endfacet
facet normal -0.19509032201612833 0.9807852804032304 0.0
outer loop
vertex -0.006526309611002569 0.04957224306869053 0.0
vertex -0.012940952255126032 0.04829629131445342 0.0
vertex -0.012940952255126032 0.04829629131445342 0.3
endloop
endfacet
facet normal -0.19509032201612833 0.9807852804032304 0.0
outer loop
vertex -0.006526309611002569 0.04957224306869053 0.0
vertex -0.012940952255126032 0.04829629131445342 0.3
vertex -0.006526309611002569 0.04957224306869053 0.3
endloop
endfacet
facet normal -0.3214394653031611 0.9469301294951057 0.0
outer loop
vertex -0.012940952255126032 0.04829629131445342 0.0
vertex -0.019134171618254477 0.04619397662556435 0.0
vertex -0.019134171618254477 0.04619397662556435 0.3
endloop
endfacet
facet normal -0.3214394653031611 0.9469301294951057 0.0
outer loop
vertex -0.012940952255126032 0.04829629131445342 0.0
vertex -0.019134171618254477 0.04619397662556435 0.3
vertex -0.012940952255126032 0.04829629131445342 0.3
endloop
endfacet
facet normal -0.44228869021900136 0.8968727415326883 0.0
outer loop
vertex -0.019134171618254477 0.04619397662556435 0.0
vertex -0.024999999999999994 0.04330127018922194 0.0
vertex -0.024999999999999994 0.04330127018922194 0.3
endloop
endfacet
facet normal -0.44228869021900136 0.8968727415326883 0.0
outer loop
vertex -0.019134171618254477 0.04619397662556435 0.0
vertex -0.024999999999999994 0.04330127018922194 0.3
vertex -0.019134171618254477 0.04619397662556435 0.3
endloop
endfacet
facet normal -0.5555702330196021 0.8314696123025453 0.0
outer loop
vertex -0.024999999999999994 0.04330127018922194 0.0
vertex -0.03043807145043602 0.03966766701456177 0.0
vertex -0.03043807145043602 0.03966766701456177 0.3
endloop
endfacet
facet normal -0.5555702330196021 0.8314696123025453 0.0
outer loop
vertex -0.024999999999999994 0.04330127018922194 0.0
vertex -0.03043807145043602 0.03966766701456177 0.3
vertex -0.024999999999999994 0.04330127018922194 0.3
endloop
endfacet
facet normal -0.6593458151000685 0.7518398074789776 0.0
outer loop
vertex -0.03043807145043602 0.03966766701456177 0.0
vertex -0.035355339059327376 0.03535533905932738 0.0
vertex -0.035355339059327376 0.03535533905932738 0.3
endloop
endfacet
facet normal -0.6593458151000685 0.7518398074789776 0.0
outer loop
vertex -0.03043807145043602 0.03966766701456177 0.0
vertex -0.035355339059327376 0.03535533905932738 0.3
vertex -0.03043807145043602 0.03966766701456177 0.3
endloop
endfacet
facet normal -0.7518398074789767 0.6593458151000694 0.0
outer loop
vertex -0.035355339059327376 0.03535533905932738 0.0
vertex -0.03966766701456176 0.030438071450436047 0.0
vertex -0.03966766701456176 0.030438071450436047 0.3
endloop
endfacet
facet normal -0.7518398074789767 0.6593458151000694 0.0
outer loop
vertex -0.035355339059327376 0.03535533905932738 0.0
vertex -0.03966766701456176 0.030438071450436047 0.3
vertex -0.035355339059327376 0.03535533905932738 0.3
endloop
endfacet
facet normal -0.8314696123025456 0.5555702330196017 0.0
outer loop
vertex -0.03966766701456176 0.030438071450436047 0.0
vertex -0.043301270189221926 0.02500000000000002 0.0
vertex -0.043301270189221926 0.02500000000000002 0.3
endloop
endfacet
facet normal -0.8314696123025456 0.5555702330196017 0.0
outer loop
vertex -0.03966766701456176 0.030438071450436047 0.0
vertex -0.043301270189221926 0.02500000000000002 0.3
vertex -0.03966766701456176 0.030438071450436047 0.3
endloop
endfacet
facet normal -0.896872741532688 0.4422886902190017 0.0
outer loop
vertex -0.043301270189221926 0.02500000000000002 0.0
vertex -0.04619397662556434 0.019134171618254495 0.0
vertex -0.04619397662556434 0.019134171618254495 0.3
endloop
endfacet
facet normal -0.896872741532688 0.4422886902190017 0.0
outer loop
vertex -0.043301270189221926 0.02500000000000002 0.0
vertex -0.04619397662556434 0.019134171618254495 0.3
vertex -0.043301270189221926 0.02500000000000002 0.3
endloop
endfacet
facet normal -0.9469301294951058 0.32143946530316125 0.0
outer loop
vertex -0.04619397662556434 0.019134171618254495 0.0
vertex -0.04829629131445341 0.01294095225512605 0.0
vertex -0.04829629131445341 0.01294095225512605 0.3
endloop
endfacet
facet normal -0.9469301294951058 0.32143946530316125 0.0
outer loop
vertex -0.04619397662556434 0.019134171618254495 0.0
vertex -0.04829629131445341 0.01294095225512605 0.3
vertex -0.04619397662556434 0.019134171618254495 0.3
endloop
endfacet
facet normal -0.9807852804032302 0.1950903220161287 0.0
outer loop
vertex -0.04829629131445341 0.01294095225512605 0.0
vertex -0.04957224306869052 0.0065263096110026 0.0
vertex -0.04957224306869052 0.0065263096110026 0.3
endloop
endfacet
facet normal -0.9807852804032302 0.1950903220161287 0.0
outer loop
vertex -0.04829629131445341 0.01294095225512605 0.0
vertex -0.04957224306869052 0.0065263096110026 0.3
vertex -0.04829629131445341 0.01294095225512605 0.3
endloop
endfacet
facet normal -0.9978589232386035 0.06540312923014334 0.0
outer loop
vertex -0.04957224306869052 0.0065263096110026 0.0
vertex -0.05 6.123233995736766e-18 0.0
vertex -0.05 6.123233995736766e-18 0.3
endloop
endfacet
facet normal -0.9978589232386035 0.06540312923014334 0.0
outer loop
vertex -0.04957224306869052 0.0065263096110026 0.0
vertex -0.05 6.123233995736766e-18 0.3
vertex -0.04957224306869052 0.0065263096110026 0.3
endloop
endfacet
endsolid walls
solid symmetry
facet normal -0.0 -1.0 -0.0
outer loop
vertex 0.05 0.0 0.0
vertex 0.0 0.0 0.3
vertex 0.0 0.0 0.0
endloop
endfacet
facet normal 0.0 -1.0 0.0
outer loop
vertex 0.05 0.0 0.0
vertex 0.05 0.0 0.3
vertex 0.0 0.0 0.3
endloop
endfacet
facet normal -1.2246467991473535e-16 -1.0 -0.0
outer loop
vertex 0.0 0.0 0.0
vertex -0.05 6.123233995736766e-18 0.3
vertex -0.05 6.123233995736766e-18 0.0
endloop
endfacet
facet normal -1.2246467991473535e-16 -1.0 0.0
outer loop
vertex 0.0 0.0 0.0
vertex 0.0 0.0 0.3
vertex -0.05 6.123233995736766e-18 0.3
endloop
endfacet
endsolid symmetry
