<?xml version="1.0" encoding="utf-8" standalone="no"?>
<!DOCTYPE svg PUBLIC "-//W3C//DTD SVG 1.1//EN"
  "http://www.w3.org/Graphics/SVG/1.1/DTD/svg11.dtd">
<svg xmlns:xlink="http://www.w3.org/1999/xlink" width="639.146516pt" height="316.588375pt" viewBox="0 0 639.146516 316.588375" xmlns="http://www.w3.org/2000/svg" version="1.1">
 <metadata>
  <rdf:RDF xmlns:dc="http://purl.org/dc/elements/1.1/" xmlns:cc="http://creativecommons.org/ns#" xmlns:rdf="http://www.w3.org/1999/02/22-rdf-syntax-ns#">
   <cc:Work>
    <dc:type rdf:resource="http://purl.org/dc/dcmitype/StillImage"/>
    <dc:date>2026-04-19T11:58:42.312145</dc:date>
    <dc:format>image/svg+xml</dc:format>
    <dc:creator>
     <cc:Agent>
      <dc:title>Matplotlib v3.9.4, https://matplotlib.org/</dc:title>
     </cc:Agent>
    </dc:creator>
   </cc:Work>
  </rdf:RDF>
 </metadata>
 <defs>
  <style type="text/css">*{stroke-linejoin: round; stroke-linecap: butt}</style>
 </defs>
 <g id="figure_1">
  <g id="patch_1">
   <path d="M 0 316.588375 
L 639.146516 316.588375 
L 639.146516 0 
L 0 0 
z
" style="fill: #0b0d10"/>
  </g>
  <g id="axes_1">
   <g id="patch_2">
    <path d="M 49.028125 291.4365 
L 631.946516 291.4365 
L 631.946516 33.875875 
L 49.028125 33.875875 
z
" style="fill: #0b0d10"/>
   </g>
   <g id="patch_3">
    <path d="M 75.524415 56499.039409 
L 128.039586 56499.039409 
L 128.039586 120.786207 
L 75.524415 120.786207 
z
" clip-path="url(#paf49cea516)" style="fill: #d29922; stroke: #6b7580; stroke-width: 0.6; stroke-linejoin: miter"/>
   </g>
   <g id="patch_4">
    <path d="M 171.006543 56499.039409 
L 223.521714 56499.039409 
L 223.521714 185.739297 
L 171.006543 185.739297 
z
" clip-path="url(#paf49cea516)" style="fill: #d29922; stroke: #6b7580; stroke-width: 0.6; stroke-linejoin: miter"/>
   </g>
   <g id="patch_5">
    <path d="M 266.488671 56499.039409 
L 319.003842 56499.039409 
L 319.003842 71.72867 
L 266.488671 71.72867 
z
" clip-path="url(#paf49cea516)" style="fill: #d29922; stroke: #6b7580; stroke-width: 0.6; stroke-linejoin: miter"/>
   </g>
   <g id="patch_6">
    <path d="M 361.970799 56499.039409 
L 414.485969 56499.039409 
L 414.485969 45.583176 
L 361.970799 45.583176 
z
" clip-path="url(#paf49cea516)" style="fill: #d29922; stroke: #6b7580; stroke-width: 0.6; stroke-linejoin: miter"/>
   </g>
   <g id="patch_7">
    <path d="M 457.452927 56499.039409 
L 509.968097 56499.039409 
L 509.968097 115.198871 
L 457.452927 115.198871 
z
" clip-path="url(#paf49cea516)" style="fill: #d29922; stroke: #6b7580; stroke-width: 0.6; stroke-linejoin: miter"/>
   </g>
   <g id="patch_8">
    <path d="M 552.935055 56499.039409 
L 605.450225 56499.039409 
L 605.450225 105.168816 
L 552.935055 105.168816 
z
" clip-path="url(#paf49cea516)" style="fill: #d29922; stroke: #6b7580; stroke-width: 0.6; stroke-linejoin: miter"/>
   </g>
   <g id="matplotlib.axis_1">
    <g id="xtick_1">
     <g id="line2d_1">
      <defs>
       <path id="m54c6d2ef63" d="M 0 0 
L 0 3.5 
" style="stroke: #9aa3ad; stroke-width: 0.8"/>
      </defs>
      <g>
       <use xlink:href="#m54c6d2ef63" x="101.782001" y="291.4365" style="fill: #9aa3ad; stroke: #9aa3ad; stroke-width: 0.8"/>
      </g>
     </g>
     <g id="text_1">
      <!-- h -->
      <g style="fill: #9aa3ad" transform="translate(98.296376 306.794781) scale(0.11 -0.11)">
       <defs>
        <path id="DejaVuSans-68" d="M 3513 2113 
L 3513 0 
L 2938 0 
L 2938 2094 
Q 2938 2591 2744 2837 
Q 2550 3084 2163 3084 
Q 1697 3084 1428 2787 
Q 1159 2491 1159 1978 
L 1159 0 
L 581 0 
L 581 4863 
L 1159 4863 
L 1159 2956 
Q 1366 3272 1645 3428 
Q 1925 3584 2291 3584 
Q 2894 3584 3203 3211 
Q 3513 2838 3513 2113 
z
" transform="scale(0.015625)"/>
       </defs>
       <use xlink:href="#DejaVuSans-68"/>
      </g>
     </g>
    </g>
    <g id="xtick_2">
     <g id="line2d_2">
      <g>
       <use xlink:href="#m54c6d2ef63" x="197.264129" y="291.4365" style="fill: #9aa3ad; stroke: #9aa3ad; stroke-width: 0.8"/>
      </g>
     </g>
     <g id="text_2">
      <!-- p_rgh -->
      <g style="fill: #9aa3ad" transform="translate(181.880457 306.794781) scale(0.11 -0.11)">
       <defs>
        <path id="DejaVuSans-70" d="M 1159 525 
L 1159 -1331 
L 581 -1331 
L 581 3500 
L 1159 3500 
L 1159 2969 
Q 1341 3281 1617 3432 
Q 1894 3584 2278 3584 
Q 2916 3584 3314 3078 
Q 3713 2572 3713 1747 
Q 3713 922 3314 415 
Q 2916 -91 2278 -91 
Q 1894 -91 1617 61 
Q 1341 213 1159 525 
z
M 3116 1747 
Q 3116 2381 2855 2742 
Q 2594 3103 2138 3103 
Q 1681 3103 1420 2742 
Q 1159 2381 1159 1747 
Q 1159 1113 1420 752 
Q 1681 391 2138 391 
Q 2594 391 2855 752 
Q 3116 1113 3116 1747 
z
" transform="scale(0.015625)"/>
        <path id="DejaVuSans-5f" d="M 3263 -1063 
L 3263 -1509 
L -63 -1509 
L -63 -1063 
L 3263 -1063 
z
" transform="scale(0.015625)"/>
        <path id="DejaVuSans-72" d="M 2631 2963 
Q 2534 3019 2420 3045 
Q 2306 3072 2169 3072 
Q 1681 3072 1420 2755 
Q 1159 2438 1159 1844 
L 1159 0 
L 581 0 
L 581 3500 
L 1159 3500 
L 1159 2956 
Q 1341 3275 1631 3429 
Q 1922 3584 2338 3584 
Q 2397 3584 2469 3576 
Q 2541 3569 2628 3553 
L 2631 2963 
z
" transform="scale(0.015625)"/>
        <path id="DejaVuSans-67" d="M 2906 1791 
Q 2906 2416 2648 2759 
Q 2391 3103 1925 3103 
Q 1463 3103 1205 2759 
Q 947 2416 947 1791 
Q 947 1169 1205 825 
Q 1463 481 1925 481 
Q 2391 481 2648 825 
Q 2906 1169 2906 1791 
z
M 3481 434 
Q 3481 -459 3084 -895 
Q 2688 -1331 1869 -1331 
Q 1566 -1331 1297 -1286 
Q 1028 -1241 775 -1147 
L 775 -588 
Q 1028 -725 1275 -790 
Q 1522 -856 1778 -856 
Q 2344 -856 2625 -561 
Q 2906 -266 2906 331 
L 2906 616 
Q 2728 306 2450 153 
Q 2172 0 1784 0 
Q 1141 0 747 490 
Q 353 981 353 1791 
Q 353 2603 747 3093 
Q 1141 3584 1784 3584 
Q 2172 3584 2450 3431 
Q 2728 3278 2906 2969 
L 2906 3500 
L 3481 3500 
L 3481 434 
z
" transform="scale(0.015625)"/>
       </defs>
       <use xlink:href="#DejaVuSans-70"/>
       <use xlink:href="#DejaVuSans-5f" x="63.476562"/>
       <use xlink:href="#DejaVuSans-72" x="113.476562"/>
       <use xlink:href="#DejaVuSans-67" x="152.839844"/>
       <use xlink:href="#DejaVuSans-68" x="216.316406"/>
      </g>
     </g>
    </g>
    <g id="xtick_3">
     <g id="line2d_3">
      <g>
       <use xlink:href="#m54c6d2ef63" x="292.746256" y="291.4365" style="fill: #9aa3ad; stroke: #9aa3ad; stroke-width: 0.8"/>
      </g>
     </g>
     <g id="text_3">
      <!-- k -->
      <g style="fill: #9aa3ad" transform="translate(289.561413 306.794781) scale(0.11 -0.11)">
       <defs>
        <path id="DejaVuSans-6b" d="M 581 4863 
L 1159 4863 
L 1159 1991 
L 2875 3500 
L 3609 3500 
L 1753 1863 
L 3688 0 
L 2938 0 
L 1159 1709 
L 1159 0 
L 581 0 
L 581 4863 
z
" transform="scale(0.015625)"/>
       </defs>
       <use xlink:href="#DejaVuSans-6b"/>
      </g>
     </g>
    </g>
    <g id="xtick_4">
     <g id="line2d_4">
      <g>
       <use xlink:href="#m54c6d2ef63" x="388.228384" y="291.4365" style="fill: #9aa3ad; stroke: #9aa3ad; stroke-width: 0.8"/>
      </g>
     </g>
     <g id="text_4">
      <!-- epsilon -->
      <g style="fill: #9aa3ad" transform="translate(368.580494 306.794781) scale(0.11 -0.11)">
       <defs>
        <path id="DejaVuSans-65" d="M 3597 1894 
L 3597 1613 
L 953 1613 
Q 991 1019 1311 708 
Q 1631 397 2203 397 
Q 2534 397 2845 478 
Q 3156 559 3463 722 
L 3463 178 
Q 3153 47 2828 -22 
Q 2503 -91 2169 -91 
Q 1331 -91 842 396 
Q 353 884 353 1716 
Q 353 2575 817 3079 
Q 1281 3584 2069 3584 
Q 2775 3584 3186 3129 
Q 3597 2675 3597 1894 
z
M 3022 2063 
Q 3016 2534 2758 2815 
Q 2500 3097 2075 3097 
Q 1594 3097 1305 2825 
Q 1016 2553 972 2059 
L 3022 2063 
z
" transform="scale(0.015625)"/>
        <path id="DejaVuSans-73" d="M 2834 3397 
L 2834 2853 
Q 2591 2978 2328 3040 
Q 2066 3103 1784 3103 
Q 1356 3103 1142 2972 
Q 928 2841 928 2578 
Q 928 2378 1081 2264 
Q 1234 2150 1697 2047 
L 1894 2003 
Q 2506 1872 2764 1633 
Q 3022 1394 3022 966 
Q 3022 478 2636 193 
Q 2250 -91 1575 -91 
Q 1294 -91 989 -36 
Q 684 19 347 128 
L 347 722 
Q 666 556 975 473 
Q 1284 391 1588 391 
Q 1994 391 2212 530 
Q 2431 669 2431 922 
Q 2431 1156 2273 1281 
Q 2116 1406 1581 1522 
L 1381 1569 
Q 847 1681 609 1914 
Q 372 2147 372 2553 
Q 372 3047 722 3315 
Q 1072 3584 1716 3584 
Q 2034 3584 2315 3537 
Q 2597 3491 2834 3397 
z
" transform="scale(0.015625)"/>
        <path id="DejaVuSans-69" d="M 603 3500 
L 1178 3500 
L 1178 0 
L 603 0 
L 603 3500 
z
M 603 4863 
L 1178 4863 
L 1178 4134 
L 603 4134 
L 603 4863 
z
" transform="scale(0.015625)"/>
        <path id="DejaVuSans-6c" d="M 603 4863 
L 1178 4863 
L 1178 0 
L 603 0 
L 603 4863 
z
" transform="scale(0.015625)"/>
        <path id="DejaVuSans-6f" d="M 1959 3097 
Q 1497 3097 1228 2736 
Q 959 2375 959 1747 
Q 959 1119 1226 758 
Q 1494 397 1959 397 
Q 2419 397 2687 759 
Q 2956 1122 2956 1747 
Q 2956 2369 2687 2733 
Q 2419 3097 1959 3097 
z
M 1959 3584 
Q 2709 3584 3137 3096 
Q 3566 2609 3566 1747 
Q 3566 888 3137 398 
Q 2709 -91 1959 -91 
Q 1206 -91 779 398 
Q 353 888 353 1747 
Q 353 2609 779 3096 
Q 1206 3584 1959 3584 
z
" transform="scale(0.015625)"/>
        <path id="DejaVuSans-6e" d="M 3513 2113 
L 3513 0 
L 2938 0 
L 2938 2094 
Q 2938 2591 2744 2837 
Q 2550 3084 2163 3084 
Q 1697 3084 1428 2787 
Q 1159 2491 1159 1978 
L 1159 0 
L 581 0 
L 581 3500 
L 1159 3500 
L 1159 2956 
Q 1366 3272 1645 3428 
Q 1925 3584 2291 3584 
Q 2894 3584 3203 3211 
Q 3513 2838 3513 2113 
z
" transform="scale(0.015625)"/>
       </defs>
       <use xlink:href="#DejaVuSans-65"/>
       <use xlink:href="#DejaVuSans-70" x="61.523438"/>
       <use xlink:href="#DejaVuSans-73" x="125"/>
       <use xlink:href="#DejaVuSans-69" x="177.099609"/>
       <use xlink:href="#DejaVuSans-6c" x="204.882812"/>
       <use xlink:href="#DejaVuSans-6f" x="232.666016"/>
       <use xlink:href="#DejaVuSans-6e" x="293.847656"/>
      </g>
     </g>
    </g>
    <g id="xtick_5">
     <g id="line2d_5">
      <g>
       <use xlink:href="#m54c6d2ef63" x="483.710512" y="291.4365" style="fill: #9aa3ad; stroke: #9aa3ad; stroke-width: 0.8"/>
      </g>
     </g>
     <g id="text_5">
      <!-- Ux -->
      <g style="fill: #9aa3ad" transform="translate(476.429887 306.794781) scale(0.11 -0.11)">
       <defs>
        <path id="DejaVuSans-55" d="M 556 4666 
L 1191 4666 
L 1191 1831 
Q 1191 1081 1462 751 
Q 1734 422 2344 422 
Q 2950 422 3222 751 
Q 3494 1081 3494 1831 
L 3494 4666 
L 4128 4666 
L 4128 1753 
Q 4128 841 3676 375 
Q 3225 -91 2344 -91 
Q 1459 -91 1007 375 
Q 556 841 556 1753 
L 556 4666 
z
" transform="scale(0.015625)"/>
        <path id="DejaVuSans-78" d="M 3513 3500 
L 2247 1797 
L 3578 0 
L 2900 0 
L 1881 1375 
L 863 0 
L 184 0 
L 1544 1831 
L 300 3500 
L 978 3500 
L 1906 2253 
L 2834 3500 
L 3513 3500 
z
" transform="scale(0.015625)"/>
       </defs>
       <use xlink:href="#DejaVuSans-55"/>
       <use xlink:href="#DejaVuSans-78" x="73.193359"/>
      </g>
     </g>
    </g>
    <g id="xtick_6">
     <g id="line2d_6">
      <g>
       <use xlink:href="#m54c6d2ef63" x="579.19264" y="291.4365" style="fill: #9aa3ad; stroke: #9aa3ad; stroke-width: 0.8"/>
      </g>
     </g>
     <g id="text_6">
      <!-- Uy -->
      <g style="fill: #9aa3ad" transform="translate(571.912015 306.794781) scale(0.11 -0.11)">
       <defs>
        <path id="DejaVuSans-79" d="M 2059 -325 
Q 1816 -950 1584 -1140 
Q 1353 -1331 966 -1331 
L 506 -1331 
L 506 -850 
L 844 -850 
Q 1081 -850 1212 -737 
Q 1344 -625 1503 -206 
L 1606 56 
L 191 3500 
L 800 3500 
L 1894 763 
L 2988 3500 
L 3597 3500 
L 2059 -325 
z
" transform="scale(0.015625)"/>
       </defs>
       <use xlink:href="#DejaVuSans-55"/>
       <use xlink:href="#DejaVuSans-79" x="73.193359"/>
      </g>
     </g>
    </g>
   </g>
   <g id="matplotlib.axis_2">
    <g id="ytick_1">
     <g id="line2d_7">
      <path d="M 49.028125 279.729199 
L 631.946516 279.729199 
" clip-path="url(#paf49cea516)" style="fill: none; stroke-dasharray: 2.96,1.28; stroke-dashoffset: 0; stroke: #6b7580; stroke-opacity: 0.2; stroke-width: 0.8"/>
     </g>
     <g id="line2d_8">
      <defs>
       <path id="m3b4970882a" d="M 0 0 
L -3.5 0 
" style="stroke: #9aa3ad; stroke-width: 0.8"/>
      </defs>
      <g>
       <use xlink:href="#m3b4970882a" x="49.028125" y="279.729199" style="fill: #9aa3ad; stroke: #9aa3ad; stroke-width: 0.8"/>
      </g>
     </g>
     <g id="text_7">
      <!-- $\mathdefault{10^{-6}}$ -->
      <g style="fill: #9aa3ad" transform="translate(20.878125 283.148496) scale(0.09 -0.09)">
       <defs>
        <path id="DejaVuSans-31" d="M 794 531 
L 1825 531 
L 1825 4091 
L 703 3866 
L 703 4441 
L 1819 4666 
L 2450 4666 
L 2450 531 
L 3481 531 
L 3481 0 
L 794 0 
L 794 531 
z
" transform="scale(0.015625)"/>
        <path id="DejaVuSans-30" d="M 2034 4250 
Q 1547 4250 1301 3770 
Q 1056 3291 1056 2328 
Q 1056 1369 1301 889 
Q 1547 409 2034 409 
Q 2525 409 2770 889 
Q 3016 1369 3016 2328 
Q 3016 3291 2770 3770 
Q 2525 4250 2034 4250 
z
M 2034 4750 
Q 2819 4750 3233 4129 
Q 3647 3509 3647 2328 
Q 3647 1150 3233 529 
Q 2819 -91 2034 -91 
Q 1250 -91 836 529 
Q 422 1150 422 2328 
Q 422 3509 836 4129 
Q 1250 4750 2034 4750 
z
" transform="scale(0.015625)"/>
        <path id="DejaVuSans-2212" d="M 678 2272 
L 4684 2272 
L 4684 1741 
L 678 1741 
L 678 2272 
z
" transform="scale(0.015625)"/>
        <path id="DejaVuSans-36" d="M 2113 2584 
Q 1688 2584 1439 2293 
Q 1191 2003 1191 1497 
Q 1191 994 1439 701 
Q 1688 409 2113 409 
Q 2538 409 2786 701 
Q 3034 994 3034 1497 
Q 3034 2003 2786 2293 
Q 2538 2584 2113 2584 
z
M 3366 4563 
L 3366 3988 
Q 3128 4100 2886 4159 
Q 2644 4219 2406 4219 
Q 1781 4219 1451 3797 
Q 1122 3375 1075 2522 
Q 1259 2794 1537 2939 
Q 1816 3084 2150 3084 
Q 2853 3084 3261 2657 
Q 3669 2231 3669 1497 
Q 3669 778 3244 343 
Q 2819 -91 2113 -91 
Q 1303 -91 875 529 
Q 447 1150 447 2328 
Q 447 3434 972 4092 
Q 1497 4750 2381 4750 
Q 2619 4750 2861 4703 
Q 3103 4656 3366 4563 
z
" transform="scale(0.015625)"/>
       </defs>
       <use xlink:href="#DejaVuSans-31" transform="translate(0 0.765625)"/>
       <use xlink:href="#DejaVuSans-30" transform="translate(63.623047 0.765625)"/>
       <use xlink:href="#DejaVuSans-2212" transform="translate(128.203125 39.046875) scale(0.7)"/>
       <use xlink:href="#DejaVuSans-36" transform="translate(186.855469 39.046875) scale(0.7)"/>
      </g>
     </g>
    </g>
    <g id="ytick_2">
     <g id="line2d_9">
      <path d="M 49.028125 223.170537 
L 631.946516 223.170537 
" clip-path="url(#paf49cea516)" style="fill: none; stroke-dasharray: 2.96,1.28; stroke-dashoffset: 0; stroke: #6b7580; stroke-opacity: 0.2; stroke-width: 0.8"/>
     </g>
     <g id="line2d_10">
      <g>
       <use xlink:href="#m3b4970882a" x="49.028125" y="223.170537" style="fill: #9aa3ad; stroke: #9aa3ad; stroke-width: 0.8"/>
      </g>
     </g>
     <g id="text_8">
      <!-- $\mathdefault{10^{-5}}$ -->
      <g style="fill: #9aa3ad" transform="translate(20.878125 226.589834) scale(0.09 -0.09)">
       <defs>
        <path id="DejaVuSans-35" d="M 691 4666 
L 3169 4666 
L 3169 4134 
L 1269 4134 
L 1269 2991 
Q 1406 3038 1543 3061 
Q 1681 3084 1819 3084 
Q 2600 3084 3056 2656 
Q 3513 2228 3513 1497 
Q 3513 744 3044 326 
Q 2575 -91 1722 -91 
Q 1428 -91 1123 -41 
Q 819 9 494 109 
L 494 744 
Q 775 591 1075 516 
Q 1375 441 1709 441 
Q 2250 441 2565 725 
Q 2881 1009 2881 1497 
Q 2881 1984 2565 2268 
Q 2250 2553 1709 2553 
Q 1456 2553 1204 2497 
Q 953 2441 691 2322 
L 691 4666 
z
" transform="scale(0.015625)"/>
       </defs>
       <use xlink:href="#DejaVuSans-31" transform="translate(0 0.684375)"/>
       <use xlink:href="#DejaVuSans-30" transform="translate(63.623047 0.684375)"/>
       <use xlink:href="#DejaVuSans-2212" transform="translate(128.203125 38.965625) scale(0.7)"/>
       <use xlink:href="#DejaVuSans-35" transform="translate(186.855469 38.965625) scale(0.7)"/>
      </g>
     </g>
    </g>
    <g id="ytick_3">
     <g id="line2d_11">
      <path d="M 49.028125 166.611874 
L 631.946516 166.611874 
" clip-path="url(#paf49cea516)" style="fill: none; stroke-dasharray: 2.96,1.28; stroke-dashoffset: 0; stroke: #6b7580; stroke-opacity: 0.2; stroke-width: 0.8"/>
     </g>
     <g id="line2d_12">
      <g>
       <use xlink:href="#m3b4970882a" x="49.028125" y="166.611874" style="fill: #9aa3ad; stroke: #9aa3ad; stroke-width: 0.8"/>
      </g>
     </g>
     <g id="text_9">
      <!-- $\mathdefault{10^{-4}}$ -->
      <g style="fill: #9aa3ad" transform="translate(20.878125 170.031171) scale(0.09 -0.09)">
       <defs>
        <path id="DejaVuSans-34" d="M 2419 4116 
L 825 1625 
L 2419 1625 
L 2419 4116 
z
M 2253 4666 
L 3047 4666 
L 3047 1625 
L 3713 1625 
L 3713 1100 
L 3047 1100 
L 3047 0 
L 2419 0 
L 2419 1100 
L 313 1100 
L 313 1709 
L 2253 4666 
z
" transform="scale(0.015625)"/>
       </defs>
       <use xlink:href="#DejaVuSans-31" transform="translate(0 0.684375)"/>
       <use xlink:href="#DejaVuSans-30" transform="translate(63.623047 0.684375)"/>
       <use xlink:href="#DejaVuSans-2212" transform="translate(128.203125 38.965625) scale(0.7)"/>
       <use xlink:href="#DejaVuSans-34" transform="translate(186.855469 38.965625) scale(0.7)"/>
      </g>
     </g>
    </g>
    <g id="ytick_4">
     <g id="line2d_13">
      <path d="M 49.028125 110.053212 
L 631.946516 110.053212 
" clip-path="url(#paf49cea516)" style="fill: none; stroke-dasharray: 2.96,1.28; stroke-dashoffset: 0; stroke: #6b7580; stroke-opacity: 0.2; stroke-width: 0.8"/>
     </g>
     <g id="line2d_14">
      <g>
       <use xlink:href="#m3b4970882a" x="49.028125" y="110.053212" style="fill: #9aa3ad; stroke: #9aa3ad; stroke-width: 0.8"/>
      </g>
     </g>
     <g id="text_10">
      <!-- $\mathdefault{10^{-3}}$ -->
      <g style="fill: #9aa3ad" transform="translate(20.878125 113.472509) scale(0.09 -0.09)">
       <defs>
        <path id="DejaVuSans-33" d="M 2597 2516 
Q 3050 2419 3304 2112 
Q 3559 1806 3559 1356 
Q 3559 666 3084 287 
Q 2609 -91 1734 -91 
Q 1441 -91 1130 -33 
Q 819 25 488 141 
L 488 750 
Q 750 597 1062 519 
Q 1375 441 1716 441 
Q 2309 441 2620 675 
Q 2931 909 2931 1356 
Q 2931 1769 2642 2001 
Q 2353 2234 1838 2234 
L 1294 2234 
L 1294 2753 
L 1863 2753 
Q 2328 2753 2575 2939 
Q 2822 3125 2822 3475 
Q 2822 3834 2567 4026 
Q 2313 4219 1838 4219 
Q 1578 4219 1281 4162 
Q 984 4106 628 3988 
L 628 4550 
Q 988 4650 1302 4700 
Q 1616 4750 1894 4750 
Q 2613 4750 3031 4423 
Q 3450 4097 3450 3541 
Q 3450 3153 3228 2886 
Q 3006 2619 2597 2516 
z
" transform="scale(0.015625)"/>
       </defs>
       <use xlink:href="#DejaVuSans-31" transform="translate(0 0.765625)"/>
       <use xlink:href="#DejaVuSans-30" transform="translate(63.623047 0.765625)"/>
       <use xlink:href="#DejaVuSans-2212" transform="translate(128.203125 39.046875) scale(0.7)"/>
       <use xlink:href="#DejaVuSans-33" transform="translate(186.855469 39.046875) scale(0.7)"/>
      </g>
     </g>
    </g>
    <g id="ytick_5">
     <g id="line2d_15">
      <path d="M 49.028125 53.49455 
L 631.946516 53.49455 
" clip-path="url(#paf49cea516)" style="fill: none; stroke-dasharray: 2.96,1.28; stroke-dashoffset: 0; stroke: #6b7580; stroke-opacity: 0.2; stroke-width: 0.8"/>
     </g>
     <g id="line2d_16">
      <g>
       <use xlink:href="#m3b4970882a" x="49.028125" y="53.49455" style="fill: #9aa3ad; stroke: #9aa3ad; stroke-width: 0.8"/>
      </g>
     </g>
     <g id="text_11">
      <!-- $\mathdefault{10^{-2}}$ -->
      <g style="fill: #9aa3ad" transform="translate(20.878125 56.913847) scale(0.09 -0.09)">
       <defs>
        <path id="DejaVuSans-32" d="M 1228 531 
L 3431 531 
L 3431 0 
L 469 0 
L 469 531 
Q 828 903 1448 1529 
Q 2069 2156 2228 2338 
Q 2531 2678 2651 2914 
Q 2772 3150 2772 3378 
Q 2772 3750 2511 3984 
Q 2250 4219 1831 4219 
Q 1534 4219 1204 4116 
Q 875 4013 500 3803 
L 500 4441 
Q 881 4594 1212 4672 
Q 1544 4750 1819 4750 
Q 2544 4750 2975 4387 
Q 3406 4025 3406 3419 
Q 3406 3131 3298 2873 
Q 3191 2616 2906 2266 
Q 2828 2175 2409 1742 
Q 1991 1309 1228 531 
z
" transform="scale(0.015625)"/>
       </defs>
       <use xlink:href="#DejaVuSans-31" transform="translate(0 0.765625)"/>
       <use xlink:href="#DejaVuSans-30" transform="translate(63.623047 0.765625)"/>
       <use xlink:href="#DejaVuSans-2212" transform="translate(128.203125 39.046875) scale(0.7)"/>
       <use xlink:href="#DejaVuSans-32" transform="translate(186.855469 39.046875) scale(0.7)"/>
      </g>
     </g>
    </g>
    <g id="ytick_6">
     <g id="line2d_17">
      <defs>
       <path id="m7aa398eb42" d="M 0 0 
L -2 0 
" style="stroke: #9aa3ad; stroke-width: 0.6"/>
      </defs>
      <g>
       <use xlink:href="#m7aa398eb42" x="49.028125" y="288.490246" style="fill: #9aa3ad; stroke: #9aa3ad; stroke-width: 0.6"/>
      </g>
     </g>
    </g>
    <g id="ytick_7">
     <g id="line2d_18">
      <g>
       <use xlink:href="#m7aa398eb42" x="49.028125" y="285.2103" style="fill: #9aa3ad; stroke: #9aa3ad; stroke-width: 0.6"/>
      </g>
     </g>
    </g>
    <g id="ytick_8">
     <g id="line2d_19">
      <g>
       <use xlink:href="#m7aa398eb42" x="49.028125" y="282.317181" style="fill: #9aa3ad; stroke: #9aa3ad; stroke-width: 0.6"/>
      </g>
     </g>
    </g>
    <g id="ytick_9">
     <g id="line2d_20">
      <g>
       <use xlink:href="#m7aa398eb42" x="49.028125" y="262.703345" style="fill: #9aa3ad; stroke: #9aa3ad; stroke-width: 0.6"/>
      </g>
     </g>
    </g>
    <g id="ytick_10">
     <g id="line2d_21">
      <g>
       <use xlink:href="#m7aa398eb42" x="49.028125" y="252.743859" style="fill: #9aa3ad; stroke: #9aa3ad; stroke-width: 0.6"/>
      </g>
     </g>
    </g>
    <g id="ytick_11">
     <g id="line2d_22">
      <g>
       <use xlink:href="#m7aa398eb42" x="49.028125" y="245.677491" style="fill: #9aa3ad; stroke: #9aa3ad; stroke-width: 0.6"/>
      </g>
     </g>
    </g>
    <g id="ytick_12">
     <g id="line2d_23">
      <g>
       <use xlink:href="#m7aa398eb42" x="49.028125" y="240.196391" style="fill: #9aa3ad; stroke: #9aa3ad; stroke-width: 0.6"/>
      </g>
     </g>
    </g>
    <g id="ytick_13">
     <g id="line2d_24">
      <g>
       <use xlink:href="#m7aa398eb42" x="49.028125" y="235.718005" style="fill: #9aa3ad; stroke: #9aa3ad; stroke-width: 0.6"/>
      </g>
     </g>
    </g>
    <g id="ytick_14">
     <g id="line2d_25">
      <g>
       <use xlink:href="#m7aa398eb42" x="49.028125" y="231.931584" style="fill: #9aa3ad; stroke: #9aa3ad; stroke-width: 0.6"/>
      </g>
     </g>
    </g>
    <g id="ytick_15">
     <g id="line2d_26">
      <g>
       <use xlink:href="#m7aa398eb42" x="49.028125" y="228.651637" style="fill: #9aa3ad; stroke: #9aa3ad; stroke-width: 0.6"/>
      </g>
     </g>
    </g>
    <g id="ytick_16">
     <g id="line2d_27">
      <g>
       <use xlink:href="#m7aa398eb42" x="49.028125" y="225.758519" style="fill: #9aa3ad; stroke: #9aa3ad; stroke-width: 0.6"/>
      </g>
     </g>
    </g>
    <g id="ytick_17">
     <g id="line2d_28">
      <g>
       <use xlink:href="#m7aa398eb42" x="49.028125" y="206.144683" style="fill: #9aa3ad; stroke: #9aa3ad; stroke-width: 0.6"/>
      </g>
     </g>
    </g>
    <g id="ytick_18">
     <g id="line2d_29">
      <g>
       <use xlink:href="#m7aa398eb42" x="49.028125" y="196.185197" style="fill: #9aa3ad; stroke: #9aa3ad; stroke-width: 0.6"/>
      </g>
     </g>
    </g>
    <g id="ytick_19">
     <g id="line2d_30">
      <g>
       <use xlink:href="#m7aa398eb42" x="49.028125" y="189.118829" style="fill: #9aa3ad; stroke: #9aa3ad; stroke-width: 0.6"/>
      </g>
     </g>
    </g>
    <g id="ytick_20">
     <g id="line2d_31">
      <g>
       <use xlink:href="#m7aa398eb42" x="49.028125" y="183.637728" style="fill: #9aa3ad; stroke: #9aa3ad; stroke-width: 0.6"/>
      </g>
     </g>
    </g>
    <g id="ytick_21">
     <g id="line2d_32">
      <g>
       <use xlink:href="#m7aa398eb42" x="49.028125" y="179.159343" style="fill: #9aa3ad; stroke: #9aa3ad; stroke-width: 0.6"/>
      </g>
     </g>
    </g>
    <g id="ytick_22">
     <g id="line2d_33">
      <g>
       <use xlink:href="#m7aa398eb42" x="49.028125" y="175.372922" style="fill: #9aa3ad; stroke: #9aa3ad; stroke-width: 0.6"/>
      </g>
     </g>
    </g>
    <g id="ytick_23">
     <g id="line2d_34">
      <g>
       <use xlink:href="#m7aa398eb42" x="49.028125" y="172.092975" style="fill: #9aa3ad; stroke: #9aa3ad; stroke-width: 0.6"/>
      </g>
     </g>
    </g>
    <g id="ytick_24">
     <g id="line2d_35">
      <g>
       <use xlink:href="#m7aa398eb42" x="49.028125" y="169.199857" style="fill: #9aa3ad; stroke: #9aa3ad; stroke-width: 0.6"/>
      </g>
     </g>
    </g>
    <g id="ytick_25">
     <g id="line2d_36">
      <g>
       <use xlink:href="#m7aa398eb42" x="49.028125" y="149.586021" style="fill: #9aa3ad; stroke: #9aa3ad; stroke-width: 0.6"/>
      </g>
     </g>
    </g>
    <g id="ytick_26">
     <g id="line2d_37">
      <g>
       <use xlink:href="#m7aa398eb42" x="49.028125" y="139.626535" style="fill: #9aa3ad; stroke: #9aa3ad; stroke-width: 0.6"/>
      </g>
     </g>
    </g>
    <g id="ytick_27">
     <g id="line2d_38">
      <g>
       <use xlink:href="#m7aa398eb42" x="49.028125" y="132.560167" style="fill: #9aa3ad; stroke: #9aa3ad; stroke-width: 0.6"/>
      </g>
     </g>
    </g>
    <g id="ytick_28">
     <g id="line2d_39">
      <g>
       <use xlink:href="#m7aa398eb42" x="49.028125" y="127.079066" style="fill: #9aa3ad; stroke: #9aa3ad; stroke-width: 0.6"/>
      </g>
     </g>
    </g>
    <g id="ytick_29">
     <g id="line2d_40">
      <g>
       <use xlink:href="#m7aa398eb42" x="49.028125" y="122.600681" style="fill: #9aa3ad; stroke: #9aa3ad; stroke-width: 0.6"/>
      </g>
     </g>
    </g>
    <g id="ytick_30">
     <g id="line2d_41">
      <g>
       <use xlink:href="#m7aa398eb42" x="49.028125" y="118.81426" style="fill: #9aa3ad; stroke: #9aa3ad; stroke-width: 0.6"/>
      </g>
     </g>
    </g>
    <g id="ytick_31">
     <g id="line2d_42">
      <g>
       <use xlink:href="#m7aa398eb42" x="49.028125" y="115.534313" style="fill: #9aa3ad; stroke: #9aa3ad; stroke-width: 0.6"/>
      </g>
     </g>
    </g>
    <g id="ytick_32">
     <g id="line2d_43">
      <g>
       <use xlink:href="#m7aa398eb42" x="49.028125" y="112.641195" style="fill: #9aa3ad; stroke: #9aa3ad; stroke-width: 0.6"/>
      </g>
     </g>
    </g>
    <g id="ytick_33">
     <g id="line2d_44">
      <g>
       <use xlink:href="#m7aa398eb42" x="49.028125" y="93.027358" style="fill: #9aa3ad; stroke: #9aa3ad; stroke-width: 0.6"/>
      </g>
     </g>
    </g>
    <g id="ytick_34">
     <g id="line2d_45">
      <g>
       <use xlink:href="#m7aa398eb42" x="49.028125" y="83.067872" style="fill: #9aa3ad; stroke: #9aa3ad; stroke-width: 0.6"/>
      </g>
     </g>
    </g>
    <g id="ytick_35">
     <g id="line2d_46">
      <g>
       <use xlink:href="#m7aa398eb42" x="49.028125" y="76.001505" style="fill: #9aa3ad; stroke: #9aa3ad; stroke-width: 0.6"/>
      </g>
     </g>
    </g>
    <g id="ytick_36">
     <g id="line2d_47">
      <g>
       <use xlink:href="#m7aa398eb42" x="49.028125" y="70.520404" style="fill: #9aa3ad; stroke: #9aa3ad; stroke-width: 0.6"/>
      </g>
     </g>
    </g>
    <g id="ytick_37">
     <g id="line2d_48">
      <g>
       <use xlink:href="#m7aa398eb42" x="49.028125" y="66.042019" style="fill: #9aa3ad; stroke: #9aa3ad; stroke-width: 0.6"/>
      </g>
     </g>
    </g>
    <g id="ytick_38">
     <g id="line2d_49">
      <g>
       <use xlink:href="#m7aa398eb42" x="49.028125" y="62.255598" style="fill: #9aa3ad; stroke: #9aa3ad; stroke-width: 0.6"/>
      </g>
     </g>
    </g>
    <g id="ytick_39">
     <g id="line2d_50">
      <g>
       <use xlink:href="#m7aa398eb42" x="49.028125" y="58.975651" style="fill: #9aa3ad; stroke: #9aa3ad; stroke-width: 0.6"/>
      </g>
     </g>
    </g>
    <g id="ytick_40">
     <g id="line2d_51">
      <g>
       <use xlink:href="#m7aa398eb42" x="49.028125" y="56.082533" style="fill: #9aa3ad; stroke: #9aa3ad; stroke-width: 0.6"/>
      </g>
     </g>
    </g>
    <g id="ytick_41">
     <g id="line2d_52">
      <g>
       <use xlink:href="#m7aa398eb42" x="49.028125" y="36.468696" style="fill: #9aa3ad; stroke: #9aa3ad; stroke-width: 0.6"/>
      </g>
     </g>
    </g>
    <g id="text_12">
     <!-- Final residual (log scale) -->
     <g style="fill: #e6e8eb" transform="translate(14.798438 223.164781) rotate(-90) scale(0.1 -0.1)">
      <defs>
       <path id="DejaVuSans-46" d="M 628 4666 
L 3309 4666 
L 3309 4134 
L 1259 4134 
L 1259 2759 
L 3109 2759 
L 3109 2228 
L 1259 2228 
L 1259 0 
L 628 0 
L 628 4666 
z
" transform="scale(0.015625)"/>
       <path id="DejaVuSans-61" d="M 2194 1759 
Q 1497 1759 1228 1600 
Q 959 1441 959 1056 
Q 959 750 1161 570 
Q 1363 391 1709 391 
Q 2188 391 2477 730 
Q 2766 1069 2766 1631 
L 2766 1759 
L 2194 1759 
z
M 3341 1997 
L 3341 0 
L 2766 0 
L 2766 531 
Q 2569 213 2275 61 
Q 1981 -91 1556 -91 
Q 1019 -91 701 211 
Q 384 513 384 1019 
Q 384 1609 779 1909 
Q 1175 2209 1959 2209 
L 2766 2209 
L 2766 2266 
Q 2766 2663 2505 2880 
Q 2244 3097 1772 3097 
Q 1472 3097 1187 3025 
Q 903 2953 641 2809 
L 641 3341 
Q 956 3463 1253 3523 
Q 1550 3584 1831 3584 
Q 2591 3584 2966 3190 
Q 3341 2797 3341 1997 
z
" transform="scale(0.015625)"/>
       <path id="DejaVuSans-20" transform="scale(0.015625)"/>
       <path id="DejaVuSans-64" d="M 2906 2969 
L 2906 4863 
L 3481 4863 
L 3481 0 
L 2906 0 
L 2906 525 
Q 2725 213 2448 61 
Q 2172 -91 1784 -91 
Q 1150 -91 751 415 
Q 353 922 353 1747 
Q 353 2572 751 3078 
Q 1150 3584 1784 3584 
Q 2172 3584 2448 3432 
Q 2725 3281 2906 2969 
z
M 947 1747 
Q 947 1113 1208 752 
Q 1469 391 1925 391 
Q 2381 391 2643 752 
Q 2906 1113 2906 1747 
Q 2906 2381 2643 2742 
Q 2381 3103 1925 3103 
Q 1469 3103 1208 2742 
Q 947 2381 947 1747 
z
" transform="scale(0.015625)"/>
       <path id="DejaVuSans-75" d="M 544 1381 
L 544 3500 
L 1119 3500 
L 1119 1403 
Q 1119 906 1312 657 
Q 1506 409 1894 409 
Q 2359 409 2629 706 
Q 2900 1003 2900 1516 
L 2900 3500 
L 3475 3500 
L 3475 0 
L 2900 0 
L 2900 538 
Q 2691 219 2414 64 
Q 2138 -91 1772 -91 
Q 1169 -91 856 284 
Q 544 659 544 1381 
z
M 1991 3584 
L 1991 3584 
z
" transform="scale(0.015625)"/>
       <path id="DejaVuSans-28" d="M 1984 4856 
Q 1566 4138 1362 3434 
Q 1159 2731 1159 2009 
Q 1159 1288 1364 580 
Q 1569 -128 1984 -844 
L 1484 -844 
Q 1016 -109 783 600 
Q 550 1309 550 2009 
Q 550 2706 781 3412 
Q 1013 4119 1484 4856 
L 1984 4856 
z
" transform="scale(0.015625)"/>
       <path id="DejaVuSans-63" d="M 3122 3366 
L 3122 2828 
Q 2878 2963 2633 3030 
Q 2388 3097 2138 3097 
Q 1578 3097 1268 2742 
Q 959 2388 959 1747 
Q 959 1106 1268 751 
Q 1578 397 2138 397 
Q 2388 397 2633 464 
Q 2878 531 3122 666 
L 3122 134 
Q 2881 22 2623 -34 
Q 2366 -91 2075 -91 
Q 1284 -91 818 406 
Q 353 903 353 1747 
Q 353 2603 823 3093 
Q 1294 3584 2113 3584 
Q 2378 3584 2631 3529 
Q 2884 3475 3122 3366 
z
" transform="scale(0.015625)"/>
       <path id="DejaVuSans-29" d="M 513 4856 
L 1013 4856 
Q 1481 4119 1714 3412 
Q 1947 2706 1947 2009 
Q 1947 1309 1714 600 
Q 1481 -109 1013 -844 
L 513 -844 
Q 928 -128 1133 580 
Q 1338 1288 1338 2009 
Q 1338 2731 1133 3434 
Q 928 4138 513 4856 
z
" transform="scale(0.015625)"/>
      </defs>
      <use xlink:href="#DejaVuSans-46"/>
      <use xlink:href="#DejaVuSans-69" x="50.269531"/>
      <use xlink:href="#DejaVuSans-6e" x="78.052734"/>
      <use xlink:href="#DejaVuSans-61" x="141.431641"/>
      <use xlink:href="#DejaVuSans-6c" x="202.710938"/>
      <use xlink:href="#DejaVuSans-20" x="230.494141"/>
      <use xlink:href="#DejaVuSans-72" x="262.28125"/>
      <use xlink:href="#DejaVuSans-65" x="301.144531"/>
      <use xlink:href="#DejaVuSans-73" x="362.667969"/>
      <use xlink:href="#DejaVuSans-69" x="414.767578"/>
      <use xlink:href="#DejaVuSans-64" x="442.550781"/>
      <use xlink:href="#DejaVuSans-75" x="506.027344"/>
      <use xlink:href="#DejaVuSans-61" x="569.40625"/>
      <use xlink:href="#DejaVuSans-6c" x="630.685547"/>
      <use xlink:href="#DejaVuSans-20" x="658.46875"/>
      <use xlink:href="#DejaVuSans-28" x="690.255859"/>
      <use xlink:href="#DejaVuSans-6c" x="729.269531"/>
      <use xlink:href="#DejaVuSans-6f" x="757.052734"/>
      <use xlink:href="#DejaVuSans-67" x="818.234375"/>
      <use xlink:href="#DejaVuSans-20" x="881.710938"/>
      <use xlink:href="#DejaVuSans-73" x="913.498047"/>
      <use xlink:href="#DejaVuSans-63" x="965.597656"/>
      <use xlink:href="#DejaVuSans-61" x="1020.578125"/>
      <use xlink:href="#DejaVuSans-6c" x="1081.857422"/>
      <use xlink:href="#DejaVuSans-65" x="1109.640625"/>
      <use xlink:href="#DejaVuSans-29" x="1171.164062"/>
     </g>
    </g>
   </g>
   <g id="line2d_53">
    <path d="M 49.028125 166.611874 
L 631.946516 166.611874 
" clip-path="url(#paf49cea516)" style="fill: none; stroke-dasharray: 3.7,1.6; stroke-dashoffset: 0; stroke: #4aa3ff; stroke-opacity: 0.7"/>
   </g>
   <g id="line2d_54">
    <path d="M 49.028125 223.170537 
L 631.946516 223.170537 
" clip-path="url(#paf49cea516)" style="fill: none; stroke-dasharray: 3.7,1.6; stroke-dashoffset: 0; stroke: #bc8cff; stroke-opacity: 0.7"/>
   </g>
   <g id="line2d_55">
    <path d="M 49.028125 279.729199 
L 631.946516 279.729199 
" clip-path="url(#paf49cea516)" style="fill: none; stroke-dasharray: 1,1.65; stroke-dashoffset: 0; stroke: #f85149; stroke-opacity: 0.7"/>
   </g>
   <g id="patch_9">
    <path d="M 49.028125 291.4365 
L 49.028125 33.875875 
" style="fill: none; stroke: #6b7580; stroke-width: 0.8; stroke-linejoin: miter; stroke-linecap: square"/>
   </g>
   <g id="patch_10">
    <path d="M 49.028125 291.4365 
L 631.946516 291.4365 
" style="fill: none; stroke: #6b7580; stroke-width: 0.8; stroke-linejoin: miter; stroke-linecap: square"/>
   </g>
   <g id="text_13">
    <!-- 6.46e-04 -->
    <g style="fill: #e6e8eb" transform="translate(83.881376 114.341724) scale(0.08 -0.08)">
     <defs>
      <path id="DejaVuSans-2e" d="M 684 794 
L 1344 794 
L 1344 0 
L 684 0 
L 684 794 
z
" transform="scale(0.015625)"/>
      <path id="DejaVuSans-2d" d="M 313 2009 
L 1997 2009 
L 1997 1497 
L 313 1497 
L 313 2009 
z
" transform="scale(0.015625)"/>
     </defs>
     <use xlink:href="#DejaVuSans-36"/>
     <use xlink:href="#DejaVuSans-2e" x="63.623047"/>
     <use xlink:href="#DejaVuSans-34" x="95.410156"/>
     <use xlink:href="#DejaVuSans-36" x="159.033203"/>
     <use xlink:href="#DejaVuSans-65" x="222.65625"/>
     <use xlink:href="#DejaVuSans-2d" x="284.179688"/>
     <use xlink:href="#DejaVuSans-30" x="320.263672"/>
     <use xlink:href="#DejaVuSans-34" x="383.886719"/>
    </g>
   </g>
   <g id="text_14">
    <!-- 4.59e-05 -->
    <g style="fill: #e6e8eb" transform="translate(179.363504 179.294813) scale(0.08 -0.08)">
     <defs>
      <path id="DejaVuSans-39" d="M 703 97 
L 703 672 
Q 941 559 1184 500 
Q 1428 441 1663 441 
Q 2288 441 2617 861 
Q 2947 1281 2994 2138 
Q 2813 1869 2534 1725 
Q 2256 1581 1919 1581 
Q 1219 1581 811 2004 
Q 403 2428 403 3163 
Q 403 3881 828 4315 
Q 1253 4750 1959 4750 
Q 2769 4750 3195 4129 
Q 3622 3509 3622 2328 
Q 3622 1225 3098 567 
Q 2575 -91 1691 -91 
Q 1453 -91 1209 -44 
Q 966 3 703 97 
z
M 1959 2075 
Q 2384 2075 2632 2365 
Q 2881 2656 2881 3163 
Q 2881 3666 2632 3958 
Q 2384 4250 1959 4250 
Q 1534 4250 1286 3958 
Q 1038 3666 1038 3163 
Q 1038 2656 1286 2365 
Q 1534 2075 1959 2075 
z
" transform="scale(0.015625)"/>
     </defs>
     <use xlink:href="#DejaVuSans-34"/>
     <use xlink:href="#DejaVuSans-2e" x="63.623047"/>
     <use xlink:href="#DejaVuSans-35" x="95.410156"/>
     <use xlink:href="#DejaVuSans-39" x="159.033203"/>
     <use xlink:href="#DejaVuSans-65" x="222.65625"/>
     <use xlink:href="#DejaVuSans-2d" x="284.179688"/>
     <use xlink:href="#DejaVuSans-30" x="320.263672"/>
     <use xlink:href="#DejaVuSans-35" x="383.886719"/>
    </g>
   </g>
   <g id="text_15">
    <!-- 4.76e-03 -->
    <g style="fill: #e6e8eb" transform="translate(274.845631 65.284186) scale(0.08 -0.08)">
     <defs>
      <path id="DejaVuSans-37" d="M 525 4666 
L 3525 4666 
L 3525 4397 
L 1831 0 
L 1172 0 
L 2766 4134 
L 525 4134 
L 525 4666 
z
" transform="scale(0.015625)"/>
     </defs>
     <use xlink:href="#DejaVuSans-34"/>
     <use xlink:href="#DejaVuSans-2e" x="63.623047"/>
     <use xlink:href="#DejaVuSans-37" x="95.410156"/>
     <use xlink:href="#DejaVuSans-36" x="159.033203"/>
     <use xlink:href="#DejaVuSans-65" x="222.65625"/>
     <use xlink:href="#DejaVuSans-2d" x="284.179688"/>
     <use xlink:href="#DejaVuSans-30" x="320.263672"/>
     <use xlink:href="#DejaVuSans-33" x="383.886719"/>
    </g>
   </g>
   <g id="text_16">
    <!-- 1.38e-02 -->
    <g style="fill: #e6e8eb" transform="translate(370.327759 39.138693) scale(0.08 -0.08)">
     <defs>
      <path id="DejaVuSans-38" d="M 2034 2216 
Q 1584 2216 1326 1975 
Q 1069 1734 1069 1313 
Q 1069 891 1326 650 
Q 1584 409 2034 409 
Q 2484 409 2743 651 
Q 3003 894 3003 1313 
Q 3003 1734 2745 1975 
Q 2488 2216 2034 2216 
z
M 1403 2484 
Q 997 2584 770 2862 
Q 544 3141 544 3541 
Q 544 4100 942 4425 
Q 1341 4750 2034 4750 
Q 2731 4750 3128 4425 
Q 3525 4100 3525 3541 
Q 3525 3141 3298 2862 
Q 3072 2584 2669 2484 
Q 3125 2378 3379 2068 
Q 3634 1759 3634 1313 
Q 3634 634 3220 271 
Q 2806 -91 2034 -91 
Q 1263 -91 848 271 
Q 434 634 434 1313 
Q 434 1759 690 2068 
Q 947 2378 1403 2484 
z
M 1172 3481 
Q 1172 3119 1398 2916 
Q 1625 2713 2034 2713 
Q 2441 2713 2670 2916 
Q 2900 3119 2900 3481 
Q 2900 3844 2670 4047 
Q 2441 4250 2034 4250 
Q 1625 4250 1398 4047 
Q 1172 3844 1172 3481 
z
" transform="scale(0.015625)"/>
     </defs>
     <use xlink:href="#DejaVuSans-31"/>
     <use xlink:href="#DejaVuSans-2e" x="63.623047"/>
     <use xlink:href="#DejaVuSans-33" x="95.410156"/>
     <use xlink:href="#DejaVuSans-38" x="159.033203"/>
     <use xlink:href="#DejaVuSans-65" x="222.65625"/>
     <use xlink:href="#DejaVuSans-2d" x="284.179688"/>
     <use xlink:href="#DejaVuSans-30" x="320.263672"/>
     <use xlink:href="#DejaVuSans-32" x="383.886719"/>
    </g>
   </g>
   <g id="text_17">
    <!-- 8.11e-04 -->
    <g style="fill: #e6e8eb" transform="translate(465.809887 108.754388) scale(0.08 -0.08)">
     <use xlink:href="#DejaVuSans-38"/>
     <use xlink:href="#DejaVuSans-2e" x="63.623047"/>
     <use xlink:href="#DejaVuSans-31" x="95.410156"/>
     <use xlink:href="#DejaVuSans-31" x="159.033203"/>
     <use xlink:href="#DejaVuSans-65" x="222.65625"/>
     <use xlink:href="#DejaVuSans-2d" x="284.179688"/>
     <use xlink:href="#DejaVuSans-30" x="320.263672"/>
     <use xlink:href="#DejaVuSans-34" x="383.886719"/>
    </g>
   </g>
   <g id="text_18">
    <!-- 1.22e-03 -->
    <g style="fill: #e6e8eb" transform="translate(561.292015 98.724332) scale(0.08 -0.08)">
     <use xlink:href="#DejaVuSans-31"/>
     <use xlink:href="#DejaVuSans-2e" x="63.623047"/>
     <use xlink:href="#DejaVuSans-32" x="95.410156"/>
     <use xlink:href="#DejaVuSans-32" x="159.033203"/>
     <use xlink:href="#DejaVuSans-65" x="222.65625"/>
     <use xlink:href="#DejaVuSans-2d" x="284.179688"/>
     <use xlink:href="#DejaVuSans-30" x="320.263672"/>
     <use xlink:href="#DejaVuSans-33" x="383.886719"/>
    </g>
   </g>
   <g id="text_19">
    <g id="patch_11">
     <path d="M 60.686493 73.31315 
L 332.227743 73.31315 
Q 337.627743 73.31315 337.627743 67.91315 
L 337.627743 39.008806 
Q 337.627743 33.608806 332.227743 33.608806 
L 60.686493 33.608806 
Q 55.286493 33.608806 55.286493 39.008806 
L 55.286493 67.91315 
Q 55.286493 73.31315 60.686493 73.31315 
z
" style="fill: #181d24; stroke: #6b7580; stroke-linejoin: miter"/>
    </g>
    <!-- $\bf{Status}$: CONVERGED within loose target; h field 6.46e-4 -->
    <g style="fill: #9aa3ad" transform="translate(60.686493 45.867087) scale(0.09 -0.09)">
     <defs>
      <path id="DejaVuSans-Bold-53" d="M 3834 4519 
L 3834 3531 
Q 3450 3703 3084 3790 
Q 2719 3878 2394 3878 
Q 1963 3878 1756 3759 
Q 1550 3641 1550 3391 
Q 1550 3203 1689 3098 
Q 1828 2994 2194 2919 
L 2706 2816 
Q 3484 2659 3812 2340 
Q 4141 2022 4141 1434 
Q 4141 663 3683 286 
Q 3225 -91 2284 -91 
Q 1841 -91 1394 -6 
Q 947 78 500 244 
L 500 1259 
Q 947 1022 1364 901 
Q 1781 781 2169 781 
Q 2563 781 2772 912 
Q 2981 1044 2981 1288 
Q 2981 1506 2839 1625 
Q 2697 1744 2272 1838 
L 1806 1941 
Q 1106 2091 782 2419 
Q 459 2747 459 3303 
Q 459 4000 909 4375 
Q 1359 4750 2203 4750 
Q 2588 4750 2994 4692 
Q 3400 4634 3834 4519 
z
" transform="scale(0.015625)"/>
      <path id="DejaVuSans-Bold-74" d="M 1759 4494 
L 1759 3500 
L 2913 3500 
L 2913 2700 
L 1759 2700 
L 1759 1216 
Q 1759 972 1856 886 
Q 1953 800 2241 800 
L 2816 800 
L 2816 0 
L 1856 0 
Q 1194 0 917 276 
Q 641 553 641 1216 
L 641 2700 
L 84 2700 
L 84 3500 
L 641 3500 
L 641 4494 
L 1759 4494 
z
" transform="scale(0.015625)"/>
      <path id="DejaVuSans-Bold-61" d="M 2106 1575 
Q 1756 1575 1579 1456 
Q 1403 1338 1403 1106 
Q 1403 894 1545 773 
Q 1688 653 1941 653 
Q 2256 653 2472 879 
Q 2688 1106 2688 1447 
L 2688 1575 
L 2106 1575 
z
M 3816 1997 
L 3816 0 
L 2688 0 
L 2688 519 
Q 2463 200 2181 54 
Q 1900 -91 1497 -91 
Q 953 -91 614 226 
Q 275 544 275 1050 
Q 275 1666 698 1953 
Q 1122 2241 2028 2241 
L 2688 2241 
L 2688 2328 
Q 2688 2594 2478 2717 
Q 2269 2841 1825 2841 
Q 1466 2841 1156 2769 
Q 847 2697 581 2553 
L 581 3406 
Q 941 3494 1303 3539 
Q 1666 3584 2028 3584 
Q 2975 3584 3395 3211 
Q 3816 2838 3816 1997 
z
" transform="scale(0.015625)"/>
      <path id="DejaVuSans-Bold-75" d="M 500 1363 
L 500 3500 
L 1625 3500 
L 1625 3150 
Q 1625 2866 1622 2436 
Q 1619 2006 1619 1863 
Q 1619 1441 1641 1255 
Q 1663 1069 1716 984 
Q 1784 875 1895 815 
Q 2006 756 2150 756 
Q 2500 756 2700 1025 
Q 2900 1294 2900 1772 
L 2900 3500 
L 4019 3500 
L 4019 0 
L 2900 0 
L 2900 506 
Q 2647 200 2364 54 
Q 2081 -91 1741 -91 
Q 1134 -91 817 281 
Q 500 653 500 1363 
z
" transform="scale(0.015625)"/>
      <path id="DejaVuSans-Bold-73" d="M 3272 3391 
L 3272 2541 
Q 2913 2691 2578 2766 
Q 2244 2841 1947 2841 
Q 1628 2841 1473 2761 
Q 1319 2681 1319 2516 
Q 1319 2381 1436 2309 
Q 1553 2238 1856 2203 
L 2053 2175 
Q 2913 2066 3209 1816 
Q 3506 1566 3506 1031 
Q 3506 472 3093 190 
Q 2681 -91 1863 -91 
Q 1516 -91 1145 -36 
Q 775 19 384 128 
L 384 978 
Q 719 816 1070 734 
Q 1422 653 1784 653 
Q 2113 653 2278 743 
Q 2444 834 2444 1013 
Q 2444 1163 2330 1236 
Q 2216 1309 1875 1350 
L 1678 1375 
Q 931 1469 631 1722 
Q 331 1975 331 2491 
Q 331 3047 712 3315 
Q 1094 3584 1881 3584 
Q 2191 3584 2531 3537 
Q 2872 3491 3272 3391 
z
" transform="scale(0.015625)"/>
      <path id="DejaVuSans-3a" d="M 750 794 
L 1409 794 
L 1409 0 
L 750 0 
L 750 794 
z
M 750 3309 
L 1409 3309 
L 1409 2516 
L 750 2516 
L 750 3309 
z
" transform="scale(0.015625)"/>
      <path id="DejaVuSans-43" d="M 4122 4306 
L 4122 3641 
Q 3803 3938 3442 4084 
Q 3081 4231 2675 4231 
Q 1875 4231 1450 3742 
Q 1025 3253 1025 2328 
Q 1025 1406 1450 917 
Q 1875 428 2675 428 
Q 3081 428 3442 575 
Q 3803 722 4122 1019 
L 4122 359 
Q 3791 134 3420 21 
Q 3050 -91 2638 -91 
Q 1578 -91 968 557 
Q 359 1206 359 2328 
Q 359 3453 968 4101 
Q 1578 4750 2638 4750 
Q 3056 4750 3426 4639 
Q 3797 4528 4122 4306 
z
" transform="scale(0.015625)"/>
      <path id="DejaVuSans-4f" d="M 2522 4238 
Q 1834 4238 1429 3725 
Q 1025 3213 1025 2328 
Q 1025 1447 1429 934 
Q 1834 422 2522 422 
Q 3209 422 3611 934 
Q 4013 1447 4013 2328 
Q 4013 3213 3611 3725 
Q 3209 4238 2522 4238 
z
M 2522 4750 
Q 3503 4750 4090 4092 
Q 4678 3434 4678 2328 
Q 4678 1225 4090 567 
Q 3503 -91 2522 -91 
Q 1538 -91 948 565 
Q 359 1222 359 2328 
Q 359 3434 948 4092 
Q 1538 4750 2522 4750 
z
" transform="scale(0.015625)"/>
      <path id="DejaVuSans-4e" d="M 628 4666 
L 1478 4666 
L 3547 763 
L 3547 4666 
L 4159 4666 
L 4159 0 
L 3309 0 
L 1241 3903 
L 1241 0 
L 628 0 
L 628 4666 
z
" transform="scale(0.015625)"/>
      <path id="DejaVuSans-56" d="M 1831 0 
L 50 4666 
L 709 4666 
L 2188 738 
L 3669 4666 
L 4325 4666 
L 2547 0 
L 1831 0 
z
" transform="scale(0.015625)"/>
      <path id="DejaVuSans-45" d="M 628 4666 
L 3578 4666 
L 3578 4134 
L 1259 4134 
L 1259 2753 
L 3481 2753 
L 3481 2222 
L 1259 2222 
L 1259 531 
L 3634 531 
L 3634 0 
L 628 0 
L 628 4666 
z
" transform="scale(0.015625)"/>
      <path id="DejaVuSans-52" d="M 2841 2188 
Q 3044 2119 3236 1894 
Q 3428 1669 3622 1275 
L 4263 0 
L 3584 0 
L 2988 1197 
Q 2756 1666 2539 1819 
Q 2322 1972 1947 1972 
L 1259 1972 
L 1259 0 
L 628 0 
L 628 4666 
L 2053 4666 
Q 2853 4666 3247 4331 
Q 3641 3997 3641 3322 
Q 3641 2881 3436 2590 
Q 3231 2300 2841 2188 
z
M 1259 4147 
L 1259 2491 
L 2053 2491 
Q 2509 2491 2742 2702 
Q 2975 2913 2975 3322 
Q 2975 3731 2742 3939 
Q 2509 4147 2053 4147 
L 1259 4147 
z
" transform="scale(0.015625)"/>
      <path id="DejaVuSans-47" d="M 3809 666 
L 3809 1919 
L 2778 1919 
L 2778 2438 
L 4434 2438 
L 4434 434 
Q 4069 175 3628 42 
Q 3188 -91 2688 -91 
Q 1594 -91 976 548 
Q 359 1188 359 2328 
Q 359 3472 976 4111 
Q 1594 4750 2688 4750 
Q 3144 4750 3555 4637 
Q 3966 4525 4313 4306 
L 4313 3634 
Q 3963 3931 3569 4081 
Q 3175 4231 2741 4231 
Q 1884 4231 1454 3753 
Q 1025 3275 1025 2328 
Q 1025 1384 1454 906 
Q 1884 428 2741 428 
Q 3075 428 3337 486 
Q 3600 544 3809 666 
z
" transform="scale(0.015625)"/>
      <path id="DejaVuSans-44" d="M 1259 4147 
L 1259 519 
L 2022 519 
Q 2988 519 3436 956 
Q 3884 1394 3884 2338 
Q 3884 3275 3436 3711 
Q 2988 4147 2022 4147 
L 1259 4147 
z
M 628 4666 
L 1925 4666 
Q 3281 4666 3915 4102 
Q 4550 3538 4550 2338 
Q 4550 1131 3912 565 
Q 3275 0 1925 0 
L 628 0 
L 628 4666 
z
" transform="scale(0.015625)"/>
      <path id="DejaVuSans-77" d="M 269 3500 
L 844 3500 
L 1563 769 
L 2278 3500 
L 2956 3500 
L 3675 769 
L 4391 3500 
L 4966 3500 
L 4050 0 
L 3372 0 
L 2619 2869 
L 1863 0 
L 1184 0 
L 269 3500 
z
" transform="scale(0.015625)"/>
      <path id="DejaVuSans-74" d="M 1172 4494 
L 1172 3500 
L 2356 3500 
L 2356 3053 
L 1172 3053 
L 1172 1153 
Q 1172 725 1289 603 
Q 1406 481 1766 481 
L 2356 481 
L 2356 0 
L 1766 0 
Q 1100 0 847 248 
Q 594 497 594 1153 
L 594 3053 
L 172 3053 
L 172 3500 
L 594 3500 
L 594 4494 
L 1172 4494 
z
" transform="scale(0.015625)"/>
      <path id="DejaVuSans-3b" d="M 750 3309 
L 1409 3309 
L 1409 2516 
L 750 2516 
L 750 3309 
z
M 750 794 
L 1409 794 
L 1409 256 
L 897 -744 
L 494 -744 
L 750 256 
L 750 794 
z
" transform="scale(0.015625)"/>
      <path id="DejaVuSans-66" d="M 2375 4863 
L 2375 4384 
L 1825 4384 
Q 1516 4384 1395 4259 
Q 1275 4134 1275 3809 
L 1275 3500 
L 2222 3500 
L 2222 3053 
L 1275 3053 
L 1275 0 
L 697 0 
L 697 3053 
L 147 3053 
L 147 3500 
L 697 3500 
L 697 3744 
Q 697 4328 969 4595 
Q 1241 4863 1831 4863 
L 2375 4863 
z
" transform="scale(0.015625)"/>
     </defs>
     <use xlink:href="#DejaVuSans-Bold-53" transform="translate(0 0.015625)"/>
     <use xlink:href="#DejaVuSans-Bold-74" transform="translate(72.021484 0.015625)"/>
     <use xlink:href="#DejaVuSans-Bold-61" transform="translate(119.824219 0.015625)"/>
     <use xlink:href="#DejaVuSans-Bold-74" transform="translate(187.304688 0.015625)"/>
     <use xlink:href="#DejaVuSans-Bold-75" transform="translate(235.107422 0.015625)"/>
     <use xlink:href="#DejaVuSans-Bold-73" transform="translate(306.298828 0.015625)"/>
     <use xlink:href="#DejaVuSans-3a" transform="translate(365.820312 0.015625)"/>
     <use xlink:href="#DejaVuSans-20" transform="translate(399.511719 0.015625)"/>
     <use xlink:href="#DejaVuSans-43" transform="translate(431.298828 0.015625)"/>
     <use xlink:href="#DejaVuSans-4f" transform="translate(501.123047 0.015625)"/>
     <use xlink:href="#DejaVuSans-4e" transform="translate(579.833984 0.015625)"/>
     <use xlink:href="#DejaVuSans-56" transform="translate(654.638672 0.015625)"/>
     <use xlink:href="#DejaVuSans-45" transform="translate(723.046875 0.015625)"/>
     <use xlink:href="#DejaVuSans-52" transform="translate(786.230469 0.015625)"/>
     <use xlink:href="#DejaVuSans-47" transform="translate(855.712891 0.015625)"/>
     <use xlink:href="#DejaVuSans-45" transform="translate(933.203125 0.015625)"/>
     <use xlink:href="#DejaVuSans-44" transform="translate(996.386719 0.015625)"/>
     <use xlink:href="#DejaVuSans-20" transform="translate(1073.388672 0.015625)"/>
     <use xlink:href="#DejaVuSans-77" transform="translate(1105.175781 0.015625)"/>
     <use xlink:href="#DejaVuSans-69" transform="translate(1186.962891 0.015625)"/>
     <use xlink:href="#DejaVuSans-74" transform="translate(1214.746094 0.015625)"/>
     <use xlink:href="#DejaVuSans-68" transform="translate(1253.955078 0.015625)"/>
     <use xlink:href="#DejaVuSans-69" transform="translate(1317.333984 0.015625)"/>
     <use xlink:href="#DejaVuSans-6e" transform="translate(1345.117188 0.015625)"/>
     <use xlink:href="#DejaVuSans-20" transform="translate(1408.496094 0.015625)"/>
     <use xlink:href="#DejaVuSans-6c" transform="translate(1440.283203 0.015625)"/>
     <use xlink:href="#DejaVuSans-6f" transform="translate(1468.066406 0.015625)"/>
     <use xlink:href="#DejaVuSans-6f" transform="translate(1529.248047 0.015625)"/>
     <use xlink:href="#DejaVuSans-73" transform="translate(1590.429688 0.015625)"/>
     <use xlink:href="#DejaVuSans-65" transform="translate(1642.529297 0.015625)"/>
     <use xlink:href="#DejaVuSans-20" transform="translate(1704.052734 0.015625)"/>
     <use xlink:href="#DejaVuSans-74" transform="translate(1735.839844 0.015625)"/>
     <use xlink:href="#DejaVuSans-61" transform="translate(1775.048828 0.015625)"/>
     <use xlink:href="#DejaVuSans-72" transform="translate(1836.328125 0.015625)"/>
     <use xlink:href="#DejaVuSans-67" transform="translate(1877.441406 0.015625)"/>
     <use xlink:href="#DejaVuSans-65" transform="translate(1940.917969 0.015625)"/>
     <use xlink:href="#DejaVuSans-74" transform="translate(2002.441406 0.015625)"/>
     <use xlink:href="#DejaVuSans-3b" transform="translate(2041.650391 0.015625)"/>
     <use xlink:href="#DejaVuSans-20" transform="translate(2075.341797 0.015625)"/>
     <use xlink:href="#DejaVuSans-68" transform="translate(2107.128906 0.015625)"/>
     <use xlink:href="#DejaVuSans-20" transform="translate(2170.507812 0.015625)"/>
     <use xlink:href="#DejaVuSans-66" transform="translate(2202.294922 0.015625)"/>
     <use xlink:href="#DejaVuSans-69" transform="translate(2237.5 0.015625)"/>
     <use xlink:href="#DejaVuSans-65" transform="translate(2265.283203 0.015625)"/>
     <use xlink:href="#DejaVuSans-6c" transform="translate(2326.806641 0.015625)"/>
     <use xlink:href="#DejaVuSans-64" transform="translate(2354.589844 0.015625)"/>
     <use xlink:href="#DejaVuSans-20" transform="translate(2418.066406 0.015625)"/>
     <use xlink:href="#DejaVuSans-36" transform="translate(2449.853516 0.015625)"/>
     <use xlink:href="#DejaVuSans-2e" transform="translate(2513.476562 0.015625)"/>
     <use xlink:href="#DejaVuSans-34" transform="translate(2545.263672 0.015625)"/>
     <use xlink:href="#DejaVuSans-36" transform="translate(2608.886719 0.015625)"/>
     <use xlink:href="#DejaVuSans-65" transform="translate(2672.509766 0.015625)"/>
     <use xlink:href="#DejaVuSans-2d" transform="translate(2734.033203 0.015625)"/>
     <use xlink:href="#DejaVuSans-34" transform="translate(2770.117188 0.015625)"/>
    </g>
    <!-- (thermal coupling partially converged but above -->
    <g style="fill: #9aa3ad" transform="translate(60.686493 55.9634) scale(0.09 -0.09)">
     <defs>
      <path id="DejaVuSans-6d" d="M 3328 2828 
Q 3544 3216 3844 3400 
Q 4144 3584 4550 3584 
Q 5097 3584 5394 3201 
Q 5691 2819 5691 2113 
L 5691 0 
L 5113 0 
L 5113 2094 
Q 5113 2597 4934 2840 
Q 4756 3084 4391 3084 
Q 3944 3084 3684 2787 
Q 3425 2491 3425 1978 
L 3425 0 
L 2847 0 
L 2847 2094 
Q 2847 2600 2669 2842 
Q 2491 3084 2119 3084 
Q 1678 3084 1418 2786 
Q 1159 2488 1159 1978 
L 1159 0 
L 581 0 
L 581 3500 
L 1159 3500 
L 1159 2956 
Q 1356 3278 1631 3431 
Q 1906 3584 2284 3584 
Q 2666 3584 2933 3390 
Q 3200 3197 3328 2828 
z
" transform="scale(0.015625)"/>
      <path id="DejaVuSans-76" d="M 191 3500 
L 800 3500 
L 1894 563 
L 2988 3500 
L 3597 3500 
L 2284 0 
L 1503 0 
L 191 3500 
z
" transform="scale(0.015625)"/>
      <path id="DejaVuSans-62" d="M 3116 1747 
Q 3116 2381 2855 2742 
Q 2594 3103 2138 3103 
Q 1681 3103 1420 2742 
Q 1159 2381 1159 1747 
Q 1159 1113 1420 752 
Q 1681 391 2138 391 
Q 2594 391 2855 752 
Q 3116 1113 3116 1747 
z
M 1159 2969 
Q 1341 3281 1617 3432 
Q 1894 3584 2278 3584 
Q 2916 3584 3314 3078 
Q 3713 2572 3713 1747 
Q 3713 922 3314 415 
Q 2916 -91 2278 -91 
Q 1894 -91 1617 61 
Q 1341 213 1159 525 
L 1159 0 
L 581 0 
L 581 4863 
L 1159 4863 
L 1159 2969 
z
" transform="scale(0.015625)"/>
     </defs>
     <use xlink:href="#DejaVuSans-28"/>
     <use xlink:href="#DejaVuSans-74" x="39.013672"/>
     <use xlink:href="#DejaVuSans-68" x="78.222656"/>
     <use xlink:href="#DejaVuSans-65" x="141.601562"/>
     <use xlink:href="#DejaVuSans-72" x="203.125"/>
     <use xlink:href="#DejaVuSans-6d" x="242.488281"/>
     <use xlink:href="#DejaVuSans-61" x="339.900391"/>
     <use xlink:href="#DejaVuSans-6c" x="401.179688"/>
     <use xlink:href="#DejaVuSans-20" x="428.962891"/>
     <use xlink:href="#DejaVuSans-63" x="460.75"/>
     <use xlink:href="#DejaVuSans-6f" x="515.730469"/>
     <use xlink:href="#DejaVuSans-75" x="576.912109"/>
     <use xlink:href="#DejaVuSans-70" x="640.291016"/>
     <use xlink:href="#DejaVuSans-6c" x="703.767578"/>
     <use xlink:href="#DejaVuSans-69" x="731.550781"/>
     <use xlink:href="#DejaVuSans-6e" x="759.333984"/>
     <use xlink:href="#DejaVuSans-67" x="822.712891"/>
     <use xlink:href="#DejaVuSans-20" x="886.189453"/>
     <use xlink:href="#DejaVuSans-70" x="917.976562"/>
     <use xlink:href="#DejaVuSans-61" x="981.453125"/>
     <use xlink:href="#DejaVuSans-72" x="1042.732422"/>
     <use xlink:href="#DejaVuSans-74" x="1083.845703"/>
     <use xlink:href="#DejaVuSans-69" x="1123.054688"/>
     <use xlink:href="#DejaVuSans-61" x="1150.837891"/>
     <use xlink:href="#DejaVuSans-6c" x="1212.117188"/>
     <use xlink:href="#DejaVuSans-6c" x="1239.900391"/>
     <use xlink:href="#DejaVuSans-79" x="1267.683594"/>
     <use xlink:href="#DejaVuSans-20" x="1326.863281"/>
     <use xlink:href="#DejaVuSans-63" x="1358.650391"/>
     <use xlink:href="#DejaVuSans-6f" x="1413.630859"/>
     <use xlink:href="#DejaVuSans-6e" x="1474.8125"/>
     <use xlink:href="#DejaVuSans-76" x="1538.191406"/>
     <use xlink:href="#DejaVuSans-65" x="1597.371094"/>
     <use xlink:href="#DejaVuSans-72" x="1658.894531"/>
     <use xlink:href="#DejaVuSans-67" x="1698.257812"/>
     <use xlink:href="#DejaVuSans-65" x="1761.734375"/>
     <use xlink:href="#DejaVuSans-64" x="1823.257812"/>
     <use xlink:href="#DejaVuSans-20" x="1886.734375"/>
     <use xlink:href="#DejaVuSans-62" x="1918.521484"/>
     <use xlink:href="#DejaVuSans-75" x="1981.998047"/>
     <use xlink:href="#DejaVuSans-74" x="2045.376953"/>
     <use xlink:href="#DejaVuSans-20" x="2084.585938"/>
     <use xlink:href="#DejaVuSans-61" x="2116.373047"/>
     <use xlink:href="#DejaVuSans-62" x="2177.652344"/>
     <use xlink:href="#DejaVuSans-6f" x="2241.128906"/>
     <use xlink:href="#DejaVuSans-76" x="2302.310547"/>
     <use xlink:href="#DejaVuSans-65" x="2361.490234"/>
    </g>
    <!-- the tightened 1e-6 residualControl — documented in report) -->
    <g style="fill: #9aa3ad" transform="translate(60.686493 66.041431) scale(0.09 -0.09)">
     <defs>
      <path id="DejaVuSans-2014" d="M 313 1978 
L 6088 1978 
L 6088 1528 
L 313 1528 
L 313 1978 
z
" transform="scale(0.015625)"/>
     </defs>
     <use xlink:href="#DejaVuSans-74"/>
     <use xlink:href="#DejaVuSans-68" x="39.208984"/>
     <use xlink:href="#DejaVuSans-65" x="102.587891"/>
     <use xlink:href="#DejaVuSans-20" x="164.111328"/>
     <use xlink:href="#DejaVuSans-74" x="195.898438"/>
     <use xlink:href="#DejaVuSans-69" x="235.107422"/>
     <use xlink:href="#DejaVuSans-67" x="262.890625"/>
     <use xlink:href="#DejaVuSans-68" x="326.367188"/>
     <use xlink:href="#DejaVuSans-74" x="389.746094"/>
     <use xlink:href="#DejaVuSans-65" x="428.955078"/>
     <use xlink:href="#DejaVuSans-6e" x="490.478516"/>
     <use xlink:href="#DejaVuSans-65" x="553.857422"/>
     <use xlink:href="#DejaVuSans-64" x="615.380859"/>
     <use xlink:href="#DejaVuSans-20" x="678.857422"/>
     <use xlink:href="#DejaVuSans-31" x="710.644531"/>
     <use xlink:href="#DejaVuSans-65" x="774.267578"/>
     <use xlink:href="#DejaVuSans-2d" x="835.791016"/>
     <use xlink:href="#DejaVuSans-36" x="871.875"/>
     <use xlink:href="#DejaVuSans-20" x="935.498047"/>
     <use xlink:href="#DejaVuSans-72" x="967.285156"/>
     <use xlink:href="#DejaVuSans-65" x="1006.148438"/>
     <use xlink:href="#DejaVuSans-73" x="1067.671875"/>
     <use xlink:href="#DejaVuSans-69" x="1119.771484"/>
     <use xlink:href="#DejaVuSans-64" x="1147.554688"/>
     <use xlink:href="#DejaVuSans-75" x="1211.03125"/>
     <use xlink:href="#DejaVuSans-61" x="1274.410156"/>
     <use xlink:href="#DejaVuSans-6c" x="1335.689453"/>
     <use xlink:href="#DejaVuSans-43" x="1363.472656"/>
     <use xlink:href="#DejaVuSans-6f" x="1433.296875"/>
     <use xlink:href="#DejaVuSans-6e" x="1494.478516"/>
     <use xlink:href="#DejaVuSans-74" x="1557.857422"/>
     <use xlink:href="#DejaVuSans-72" x="1597.066406"/>
     <use xlink:href="#DejaVuSans-6f" x="1635.929688"/>
     <use xlink:href="#DejaVuSans-6c" x="1697.111328"/>
     <use xlink:href="#DejaVuSans-20" x="1724.894531"/>
     <use xlink:href="#DejaVuSans-2014" x="1756.681641"/>
     <use xlink:href="#DejaVuSans-20" x="1856.681641"/>
     <use xlink:href="#DejaVuSans-64" x="1888.46875"/>
     <use xlink:href="#DejaVuSans-6f" x="1951.945312"/>
     <use xlink:href="#DejaVuSans-63" x="2013.126953"/>
     <use xlink:href="#DejaVuSans-75" x="2068.107422"/>
     <use xlink:href="#DejaVuSans-6d" x="2131.486328"/>
     <use xlink:href="#DejaVuSans-65" x="2228.898438"/>
     <use xlink:href="#DejaVuSans-6e" x="2290.421875"/>
     <use xlink:href="#DejaVuSans-74" x="2353.800781"/>
     <use xlink:href="#DejaVuSans-65" x="2393.009766"/>
     <use xlink:href="#DejaVuSans-64" x="2454.533203"/>
     <use xlink:href="#DejaVuSans-20" x="2518.009766"/>
     <use xlink:href="#DejaVuSans-69" x="2549.796875"/>
     <use xlink:href="#DejaVuSans-6e" x="2577.580078"/>
     <use xlink:href="#DejaVuSans-20" x="2640.958984"/>
     <use xlink:href="#DejaVuSans-72" x="2672.746094"/>
     <use xlink:href="#DejaVuSans-65" x="2711.609375"/>
     <use xlink:href="#DejaVuSans-70" x="2773.132812"/>
     <use xlink:href="#DejaVuSans-6f" x="2836.609375"/>
     <use xlink:href="#DejaVuSans-72" x="2897.791016"/>
     <use xlink:href="#DejaVuSans-74" x="2938.904297"/>
     <use xlink:href="#DejaVuSans-29" x="2978.113281"/>
    </g>
   </g>
   <g id="text_20">
    <!-- Residual convergence at commit c3a1a4c (nOuterCorrectors=80) -->
    <g style="fill: #e6e8eb" transform="translate(159.903414 15.558281) scale(0.11 -0.11)">
     <defs>
      <path id="DejaVuSans-3d" d="M 678 2906 
L 4684 2906 
L 4684 2381 
L 678 2381 
L 678 2906 
z
M 678 1631 
L 4684 1631 
L 4684 1100 
L 678 1100 
L 678 1631 
z
" transform="scale(0.015625)"/>
     </defs>
     <use xlink:href="#DejaVuSans-52"/>
     <use xlink:href="#DejaVuSans-65" x="64.982422"/>
     <use xlink:href="#DejaVuSans-73" x="126.505859"/>
     <use xlink:href="#DejaVuSans-69" x="178.605469"/>
     <use xlink:href="#DejaVuSans-64" x="206.388672"/>
     <use xlink:href="#DejaVuSans-75" x="269.865234"/>
     <use xlink:href="#DejaVuSans-61" x="333.244141"/>
     <use xlink:href="#DejaVuSans-6c" x="394.523438"/>
     <use xlink:href="#DejaVuSans-20" x="422.306641"/>
     <use xlink:href="#DejaVuSans-63" x="454.09375"/>
     <use xlink:href="#DejaVuSans-6f" x="509.074219"/>
     <use xlink:href="#DejaVuSans-6e" x="570.255859"/>
     <use xlink:href="#DejaVuSans-76" x="633.634766"/>
     <use xlink:href="#DejaVuSans-65" x="692.814453"/>
     <use xlink:href="#DejaVuSans-72" x="754.337891"/>
     <use xlink:href="#DejaVuSans-67" x="793.701172"/>
     <use xlink:href="#DejaVuSans-65" x="857.177734"/>
     <use xlink:href="#DejaVuSans-6e" x="918.701172"/>
     <use xlink:href="#DejaVuSans-63" x="982.080078"/>
     <use xlink:href="#DejaVuSans-65" x="1037.060547"/>
     <use xlink:href="#DejaVuSans-20" x="1098.583984"/>
     <use xlink:href="#DejaVuSans-61" x="1130.371094"/>
     <use xlink:href="#DejaVuSans-74" x="1191.650391"/>
     <use xlink:href="#DejaVuSans-20" x="1230.859375"/>
     <use xlink:href="#DejaVuSans-63" x="1262.646484"/>
     <use xlink:href="#DejaVuSans-6f" x="1317.626953"/>
     <use xlink:href="#DejaVuSans-6d" x="1378.808594"/>
     <use xlink:href="#DejaVuSans-6d" x="1476.220703"/>
     <use xlink:href="#DejaVuSans-69" x="1573.632812"/>
     <use xlink:href="#DejaVuSans-74" x="1601.416016"/>
     <use xlink:href="#DejaVuSans-20" x="1640.625"/>
     <use xlink:href="#DejaVuSans-63" x="1672.412109"/>
     <use xlink:href="#DejaVuSans-33" x="1727.392578"/>
     <use xlink:href="#DejaVuSans-61" x="1791.015625"/>
     <use xlink:href="#DejaVuSans-31" x="1852.294922"/>
     <use xlink:href="#DejaVuSans-61" x="1915.917969"/>
     <use xlink:href="#DejaVuSans-34" x="1977.197266"/>
     <use xlink:href="#DejaVuSans-63" x="2040.820312"/>
     <use xlink:href="#DejaVuSans-20" x="2095.800781"/>
     <use xlink:href="#DejaVuSans-28" x="2127.587891"/>
     <use xlink:href="#DejaVuSans-6e" x="2166.601562"/>
     <use xlink:href="#DejaVuSans-4f" x="2229.980469"/>
     <use xlink:href="#DejaVuSans-75" x="2308.691406"/>
     <use xlink:href="#DejaVuSans-74" x="2372.070312"/>
     <use xlink:href="#DejaVuSans-65" x="2411.279297"/>
     <use xlink:href="#DejaVuSans-72" x="2472.802734"/>
     <use xlink:href="#DejaVuSans-43" x="2513.916016"/>
     <use xlink:href="#DejaVuSans-6f" x="2583.740234"/>
     <use xlink:href="#DejaVuSans-72" x="2644.921875"/>
     <use xlink:href="#DejaVuSans-72" x="2684.285156"/>
     <use xlink:href="#DejaVuSans-65" x="2723.148438"/>
     <use xlink:href="#DejaVuSans-63" x="2784.671875"/>
     <use xlink:href="#DejaVuSans-74" x="2839.652344"/>
     <use xlink:href="#DejaVuSans-6f" x="2878.861328"/>
     <use xlink:href="#DejaVuSans-72" x="2940.042969"/>
     <use xlink:href="#DejaVuSans-73" x="2981.15625"/>
     <use xlink:href="#DejaVuSans-3d" x="3033.255859"/>
     <use xlink:href="#DejaVuSans-38" x="3117.044922"/>
     <use xlink:href="#DejaVuSans-30" x="3180.667969"/>
     <use xlink:href="#DejaVuSans-29" x="3244.291016"/>
    </g>
    <!-- source: auto_verify_report.yaml -->
    <g style="fill: #e6e8eb" transform="translate(253.168805 27.875875) scale(0.11 -0.11)">
     <use xlink:href="#DejaVuSans-73"/>
     <use xlink:href="#DejaVuSans-6f" x="52.099609"/>
     <use xlink:href="#DejaVuSans-75" x="113.28125"/>
     <use xlink:href="#DejaVuSans-72" x="176.660156"/>
     <use xlink:href="#DejaVuSans-63" x="215.523438"/>
     <use xlink:href="#DejaVuSans-65" x="270.503906"/>
     <use xlink:href="#DejaVuSans-3a" x="332.027344"/>
     <use xlink:href="#DejaVuSans-20" x="365.71875"/>
     <use xlink:href="#DejaVuSans-61" x="397.505859"/>
     <use xlink:href="#DejaVuSans-75" x="458.785156"/>
     <use xlink:href="#DejaVuSans-74" x="522.164062"/>
     <use xlink:href="#DejaVuSans-6f" x="561.373047"/>
     <use xlink:href="#DejaVuSans-5f" x="622.554688"/>
     <use xlink:href="#DejaVuSans-76" x="672.554688"/>
     <use xlink:href="#DejaVuSans-65" x="731.734375"/>
     <use xlink:href="#DejaVuSans-72" x="793.257812"/>
     <use xlink:href="#DejaVuSans-69" x="834.371094"/>
     <use xlink:href="#DejaVuSans-66" x="862.154297"/>
     <use xlink:href="#DejaVuSans-79" x="895.609375"/>
     <use xlink:href="#DejaVuSans-5f" x="954.789062"/>
     <use xlink:href="#DejaVuSans-72" x="1004.789062"/>
     <use xlink:href="#DejaVuSans-65" x="1043.652344"/>
     <use xlink:href="#DejaVuSans-70" x="1105.175781"/>
     <use xlink:href="#DejaVuSans-6f" x="1168.652344"/>
     <use xlink:href="#DejaVuSans-72" x="1229.833984"/>
     <use xlink:href="#DejaVuSans-74" x="1270.947266"/>
     <use xlink:href="#DejaVuSans-2e" x="1310.15625"/>
     <use xlink:href="#DejaVuSans-79" x="1341.943359"/>
     <use xlink:href="#DejaVuSans-61" x="1401.123047"/>
     <use xlink:href="#DejaVuSans-6d" x="1462.402344"/>
     <use xlink:href="#DejaVuSans-6c" x="1559.814453"/>
    </g>
   </g>
   <g id="legend_1">
    <g id="patch_12">
     <path d="M 493.032922 80.706812 
L 625.646516 80.706812 
Q 627.446516 80.706812 627.446516 78.906812 
L 627.446516 40.175875 
Q 627.446516 38.375875 625.646516 38.375875 
L 493.032922 38.375875 
Q 491.232922 38.375875 491.232922 40.175875 
L 491.232922 78.906812 
Q 491.232922 80.706812 493.032922 80.706812 
z
" style="fill: #181d24; opacity: 0.8; stroke: #6b7580; stroke-linejoin: miter"/>
    </g>
    <g id="line2d_56">
     <path d="M 494.832922 45.664469 
L 503.832922 45.664469 
L 512.832922 45.664469 
" style="fill: none; stroke-dasharray: 3.7,1.6; stroke-dashoffset: 0; stroke: #4aa3ff; stroke-opacity: 0.7"/>
    </g>
    <g id="text_21">
     <!-- target 1e-4 (default) -->
     <g style="fill: #e6e8eb" transform="translate(520.032922 48.814469) scale(0.09 -0.09)">
      <use xlink:href="#DejaVuSans-74"/>
      <use xlink:href="#DejaVuSans-61" x="39.208984"/>
      <use xlink:href="#DejaVuSans-72" x="100.488281"/>
      <use xlink:href="#DejaVuSans-67" x="139.851562"/>
      <use xlink:href="#DejaVuSans-65" x="203.328125"/>
      <use xlink:href="#DejaVuSans-74" x="264.851562"/>
      <use xlink:href="#DejaVuSans-20" x="304.060547"/>
      <use xlink:href="#DejaVuSans-31" x="335.847656"/>
      <use xlink:href="#DejaVuSans-65" x="399.470703"/>
      <use xlink:href="#DejaVuSans-2d" x="460.994141"/>
      <use xlink:href="#DejaVuSans-34" x="497.078125"/>
      <use xlink:href="#DejaVuSans-20" x="560.701172"/>
      <use xlink:href="#DejaVuSans-28" x="592.488281"/>
      <use xlink:href="#DejaVuSans-64" x="631.501953"/>
      <use xlink:href="#DejaVuSans-65" x="694.978516"/>
      <use xlink:href="#DejaVuSans-66" x="756.501953"/>
      <use xlink:href="#DejaVuSans-61" x="791.707031"/>
      <use xlink:href="#DejaVuSans-75" x="852.986328"/>
      <use xlink:href="#DejaVuSans-6c" x="916.365234"/>
      <use xlink:href="#DejaVuSans-74" x="944.148438"/>
      <use xlink:href="#DejaVuSans-29" x="983.357422"/>
     </g>
    </g>
    <g id="line2d_57">
     <path d="M 494.832922 58.874781 
L 503.832922 58.874781 
L 512.832922 58.874781 
" style="fill: none; stroke-dasharray: 3.7,1.6; stroke-dashoffset: 0; stroke: #bc8cff; stroke-opacity: 0.7"/>
    </g>
    <g id="text_22">
     <!-- target 1e-5 (tightened) -->
     <g style="fill: #e6e8eb" transform="translate(520.032922 62.024781) scale(0.09 -0.09)">
      <use xlink:href="#DejaVuSans-74"/>
      <use xlink:href="#DejaVuSans-61" x="39.208984"/>
      <use xlink:href="#DejaVuSans-72" x="100.488281"/>
      <use xlink:href="#DejaVuSans-67" x="139.851562"/>
      <use xlink:href="#DejaVuSans-65" x="203.328125"/>
      <use xlink:href="#DejaVuSans-74" x="264.851562"/>
      <use xlink:href="#DejaVuSans-20" x="304.060547"/>
      <use xlink:href="#DejaVuSans-31" x="335.847656"/>
      <use xlink:href="#DejaVuSans-65" x="399.470703"/>
      <use xlink:href="#DejaVuSans-2d" x="460.994141"/>
      <use xlink:href="#DejaVuSans-35" x="497.078125"/>
      <use xlink:href="#DejaVuSans-20" x="560.701172"/>
      <use xlink:href="#DejaVuSans-28" x="592.488281"/>
      <use xlink:href="#DejaVuSans-74" x="631.501953"/>
      <use xlink:href="#DejaVuSans-69" x="670.710938"/>
      <use xlink:href="#DejaVuSans-67" x="698.494141"/>
      <use xlink:href="#DejaVuSans-68" x="761.970703"/>
      <use xlink:href="#DejaVuSans-74" x="825.349609"/>
      <use xlink:href="#DejaVuSans-65" x="864.558594"/>
      <use xlink:href="#DejaVuSans-6e" x="926.082031"/>
      <use xlink:href="#DejaVuSans-65" x="989.460938"/>
      <use xlink:href="#DejaVuSans-64" x="1050.984375"/>
      <use xlink:href="#DejaVuSans-29" x="1114.460938"/>
     </g>
    </g>
    <g id="line2d_58">
     <path d="M 494.832922 72.085094 
L 503.832922 72.085094 
L 512.832922 72.085094 
" style="fill: none; stroke-dasharray: 1,1.65; stroke-dashoffset: 0; stroke: #f85149; stroke-opacity: 0.7"/>
    </g>
    <g id="text_23">
     <!-- target 1e-6 (thermal) -->
     <g style="fill: #e6e8eb" transform="translate(520.032922 75.235094) scale(0.09 -0.09)">
      <use xlink:href="#DejaVuSans-74"/>
      <use xlink:href="#DejaVuSans-61" x="39.208984"/>
      <use xlink:href="#DejaVuSans-72" x="100.488281"/>
      <use xlink:href="#DejaVuSans-67" x="139.851562"/>
      <use xlink:href="#DejaVuSans-65" x="203.328125"/>
      <use xlink:href="#DejaVuSans-74" x="264.851562"/>
      <use xlink:href="#DejaVuSans-20" x="304.060547"/>
      <use xlink:href="#DejaVuSans-31" x="335.847656"/>
      <use xlink:href="#DejaVuSans-65" x="399.470703"/>
      <use xlink:href="#DejaVuSans-2d" x="460.994141"/>
      <use xlink:href="#DejaVuSans-36" x="497.078125"/>
      <use xlink:href="#DejaVuSans-20" x="560.701172"/>
      <use xlink:href="#DejaVuSans-28" x="592.488281"/>
      <use xlink:href="#DejaVuSans-74" x="631.501953"/>
      <use xlink:href="#DejaVuSans-68" x="670.710938"/>
      <use xlink:href="#DejaVuSans-65" x="734.089844"/>
      <use xlink:href="#DejaVuSans-72" x="795.613281"/>
      <use xlink:href="#DejaVuSans-6d" x="834.976562"/>
      <use xlink:href="#DejaVuSans-61" x="932.388672"/>
      <use xlink:href="#DejaVuSans-6c" x="993.667969"/>
      <use xlink:href="#DejaVuSans-29" x="1021.451172"/>
     </g>
    </g>
   </g>
  </g>
 </g>
 <defs>
  <clipPath id="paf49cea516">
   <rect x="49.028125" y="33.875875" width="582.918391" height="257.560625"/>
  </clipPath>
 </defs>
</svg>
