<?xml version="1.0" encoding="utf-8" standalone="no"?>
<!DOCTYPE svg PUBLIC "-//W3C//DTD SVG 1.1//EN"
  "http://www.w3.org/Graphics/SVG/1.1/DTD/svg11.dtd">
<svg xmlns:xlink="http://www.w3.org/1999/xlink" width="748.016599pt" height="351.816703pt" viewBox="0 0 748.016599 351.816703" xmlns="http://www.w3.org/2000/svg" version="1.1">
 <metadata>
  <rdf:RDF xmlns:dc="http://purl.org/dc/elements/1.1/" xmlns:cc="http://creativecommons.org/ns#" xmlns:rdf="http://www.w3.org/1999/02/22-rdf-syntax-ns#">
   <cc:Work>
    <dc:type rdf:resource="http://purl.org/dc/dcmitype/StillImage"/>
    <dc:date>2026-04-19T11:58:42.442112</dc:date>
    <dc:format>image/svg+xml</dc:format>
    <dc:creator>
     <cc:Agent>
      <dc:title>Matplotlib v3.9.4, https://matplotlib.org/</dc:title>
     </cc:Agent>
    </dc:creator>
   </cc:Work>
  </rdf:RDF>
 </metadata>
 <defs>
  <style type="text/css">*{stroke-linejoin: round; stroke-linecap: butt}</style>
 </defs>
 <g id="figure_1">
  <g id="patch_1">
   <path d="M 0 351.816703 
L 748.016599 351.816703 
L 748.016599 0 
L 0 0 
z
" style="fill: #0b0d10"/>
  </g>
  <g id="axes_1">
   <g id="patch_2">
    <path d="M 45.158438 300.835875 
L 631.417528 300.835875 
L 631.417528 33.875875 
L 45.158438 33.875875 
z
" style="fill: #0b0d10"/>
   </g>
   <g id="patch_3">
    <path d="M 45.158438 256.823551 
L 631.417528 256.823551 
L 631.417528 243.836307 
L 45.158438 243.836307 
z
" clip-path="url(#pb7cc4a1b9e)" style="fill: #3fb950; opacity: 0.12; stroke: #3fb950; stroke-linejoin: miter"/>
   </g>
   <g id="patch_4">
    <path d="M 45.158438 149.318037 
L 631.417528 149.318037 
L 631.417528 62.736416 
L 45.158438 62.736416 
z
" clip-path="url(#pb7cc4a1b9e)" style="fill: #bc8cff; opacity: 0.1; stroke: #bc8cff; stroke-linejoin: miter"/>
   </g>
   <g id="matplotlib.axis_1">
    <g id="xtick_1">
     <g id="line2d_1">
      <defs>
       <path id="m7d718956f4" d="M 0 0 
L 0 3.5 
" style="stroke: #9aa3ad; stroke-width: 0.8"/>
      </defs>
      <g>
       <use xlink:href="#m7d718956f4" x="71.806578" y="300.835875" style="fill: #9aa3ad; stroke: #9aa3ad; stroke-width: 0.8"/>
      </g>
     </g>
     <g id="text_1">
      <!-- #1 -->
      <g style="fill: #9aa3ad" transform="translate(65.541148 314.294547) scale(0.085 -0.085)">
       <defs>
        <path id="DejaVuSans-23" d="M 3272 2816 
L 2363 2816 
L 2100 1772 
L 3016 1772 
L 3272 2816 
z
M 2803 4594 
L 2478 3297 
L 3391 3297 
L 3719 4594 
L 4219 4594 
L 3897 3297 
L 4872 3297 
L 4872 2816 
L 3775 2816 
L 3519 1772 
L 4513 1772 
L 4513 1294 
L 3397 1294 
L 3072 0 
L 2572 0 
L 2894 1294 
L 1978 1294 
L 1656 0 
L 1153 0 
L 1478 1294 
L 494 1294 
L 494 1772 
L 1594 1772 
L 1856 2816 
L 850 2816 
L 850 3297 
L 1978 3297 
L 2297 4594 
L 2803 4594 
z
" transform="scale(0.015625)"/>
        <path id="DejaVuSans-31" d="M 794 531 
L 1825 531 
L 1825 4091 
L 703 3866 
L 703 4441 
L 1819 4666 
L 2450 4666 
L 2450 531 
L 3481 531 
L 3481 0 
L 794 0 
L 794 531 
z
" transform="scale(0.015625)"/>
       </defs>
       <use xlink:href="#DejaVuSans-23"/>
       <use xlink:href="#DejaVuSans-31" x="83.789062"/>
      </g>
      <!-- pre-EX-1-007 -->
      <g style="fill: #9aa3ad" transform="translate(44.041461 323.812687) scale(0.085 -0.085)">
       <defs>
        <path id="DejaVuSans-70" d="M 1159 525 
L 1159 -1331 
L 581 -1331 
L 581 3500 
L 1159 3500 
L 1159 2969 
Q 1341 3281 1617 3432 
Q 1894 3584 2278 3584 
Q 2916 3584 3314 3078 
Q 3713 2572 3713 1747 
Q 3713 922 3314 415 
Q 2916 -91 2278 -91 
Q 1894 -91 1617 61 
Q 1341 213 1159 525 
z
M 3116 1747 
Q 3116 2381 2855 2742 
Q 2594 3103 2138 3103 
Q 1681 3103 1420 2742 
Q 1159 2381 1159 1747 
Q 1159 1113 1420 752 
Q 1681 391 2138 391 
Q 2594 391 2855 752 
Q 3116 1113 3116 1747 
z
" transform="scale(0.015625)"/>
        <path id="DejaVuSans-72" d="M 2631 2963 
Q 2534 3019 2420 3045 
Q 2306 3072 2169 3072 
Q 1681 3072 1420 2755 
Q 1159 2438 1159 1844 
L 1159 0 
L 581 0 
L 581 3500 
L 1159 3500 
L 1159 2956 
Q 1341 3275 1631 3429 
Q 1922 3584 2338 3584 
Q 2397 3584 2469 3576 
Q 2541 3569 2628 3553 
L 2631 2963 
z
" transform="scale(0.015625)"/>
        <path id="DejaVuSans-65" d="M 3597 1894 
L 3597 1613 
L 953 1613 
Q 991 1019 1311 708 
Q 1631 397 2203 397 
Q 2534 397 2845 478 
Q 3156 559 3463 722 
L 3463 178 
Q 3153 47 2828 -22 
Q 2503 -91 2169 -91 
Q 1331 -91 842 396 
Q 353 884 353 1716 
Q 353 2575 817 3079 
Q 1281 3584 2069 3584 
Q 2775 3584 3186 3129 
Q 3597 2675 3597 1894 
z
M 3022 2063 
Q 3016 2534 2758 2815 
Q 2500 3097 2075 3097 
Q 1594 3097 1305 2825 
Q 1016 2553 972 2059 
L 3022 2063 
z
" transform="scale(0.015625)"/>
        <path id="DejaVuSans-2d" d="M 313 2009 
L 1997 2009 
L 1997 1497 
L 313 1497 
L 313 2009 
z
" transform="scale(0.015625)"/>
        <path id="DejaVuSans-45" d="M 628 4666 
L 3578 4666 
L 3578 4134 
L 1259 4134 
L 1259 2753 
L 3481 2753 
L 3481 2222 
L 1259 2222 
L 1259 531 
L 3634 531 
L 3634 0 
L 628 0 
L 628 4666 
z
" transform="scale(0.015625)"/>
        <path id="DejaVuSans-58" d="M 403 4666 
L 1081 4666 
L 2241 2931 
L 3406 4666 
L 4084 4666 
L 2584 2425 
L 4184 0 
L 3506 0 
L 2194 1984 
L 872 0 
L 191 0 
L 1856 2491 
L 403 4666 
z
" transform="scale(0.015625)"/>
        <path id="DejaVuSans-30" d="M 2034 4250 
Q 1547 4250 1301 3770 
Q 1056 3291 1056 2328 
Q 1056 1369 1301 889 
Q 1547 409 2034 409 
Q 2525 409 2770 889 
Q 3016 1369 3016 2328 
Q 3016 3291 2770 3770 
Q 2525 4250 2034 4250 
z
M 2034 4750 
Q 2819 4750 3233 4129 
Q 3647 3509 3647 2328 
Q 3647 1150 3233 529 
Q 2819 -91 2034 -91 
Q 1250 -91 836 529 
Q 422 1150 422 2328 
Q 422 3509 836 4129 
Q 1250 4750 2034 4750 
z
" transform="scale(0.015625)"/>
        <path id="DejaVuSans-37" d="M 525 4666 
L 3525 4666 
L 3525 4397 
L 1831 0 
L 1172 0 
L 2766 4134 
L 525 4134 
L 525 4666 
z
" transform="scale(0.015625)"/>
       </defs>
       <use xlink:href="#DejaVuSans-70"/>
       <use xlink:href="#DejaVuSans-72" x="63.476562"/>
       <use xlink:href="#DejaVuSans-65" x="102.339844"/>
       <use xlink:href="#DejaVuSans-2d" x="163.863281"/>
       <use xlink:href="#DejaVuSans-45" x="199.947266"/>
       <use xlink:href="#DejaVuSans-58" x="263.130859"/>
       <use xlink:href="#DejaVuSans-2d" x="326.636719"/>
       <use xlink:href="#DejaVuSans-31" x="362.720703"/>
       <use xlink:href="#DejaVuSans-2d" x="426.34375"/>
       <use xlink:href="#DejaVuSans-30" x="462.427734"/>
       <use xlink:href="#DejaVuSans-30" x="526.050781"/>
       <use xlink:href="#DejaVuSans-37" x="589.673828"/>
      </g>
      <!-- 40-cell -->
      <g style="fill: #9aa3ad" transform="translate(57.551812 333.330828) scale(0.085 -0.085)">
       <defs>
        <path id="DejaVuSans-34" d="M 2419 4116 
L 825 1625 
L 2419 1625 
L 2419 4116 
z
M 2253 4666 
L 3047 4666 
L 3047 1625 
L 3713 1625 
L 3713 1100 
L 3047 1100 
L 3047 0 
L 2419 0 
L 2419 1100 
L 313 1100 
L 313 1709 
L 2253 4666 
z
" transform="scale(0.015625)"/>
        <path id="DejaVuSans-63" d="M 3122 3366 
L 3122 2828 
Q 2878 2963 2633 3030 
Q 2388 3097 2138 3097 
Q 1578 3097 1268 2742 
Q 959 2388 959 1747 
Q 959 1106 1268 751 
Q 1578 397 2138 397 
Q 2388 397 2633 464 
Q 2878 531 3122 666 
L 3122 134 
Q 2881 22 2623 -34 
Q 2366 -91 2075 -91 
Q 1284 -91 818 406 
Q 353 903 353 1747 
Q 353 2603 823 3093 
Q 1294 3584 2113 3584 
Q 2378 3584 2631 3529 
Q 2884 3475 3122 3366 
z
" transform="scale(0.015625)"/>
        <path id="DejaVuSans-6c" d="M 603 4863 
L 1178 4863 
L 1178 0 
L 603 0 
L 603 4863 
z
" transform="scale(0.015625)"/>
       </defs>
       <use xlink:href="#DejaVuSans-34"/>
       <use xlink:href="#DejaVuSans-30" x="63.623047"/>
       <use xlink:href="#DejaVuSans-2d" x="127.246094"/>
       <use xlink:href="#DejaVuSans-63" x="163.330078"/>
       <use xlink:href="#DejaVuSans-65" x="218.310547"/>
       <use xlink:href="#DejaVuSans-6c" x="279.833984"/>
       <use xlink:href="#DejaVuSans-6c" x="307.617188"/>
      </g>
      <!-- zeroGradient T -->
      <g style="fill: #9aa3ad" transform="translate(40.264273 342.848969) scale(0.085 -0.085)">
       <defs>
        <path id="DejaVuSans-7a" d="M 353 3500 
L 3084 3500 
L 3084 2975 
L 922 459 
L 3084 459 
L 3084 0 
L 275 0 
L 275 525 
L 2438 3041 
L 353 3041 
L 353 3500 
z
" transform="scale(0.015625)"/>
        <path id="DejaVuSans-6f" d="M 1959 3097 
Q 1497 3097 1228 2736 
Q 959 2375 959 1747 
Q 959 1119 1226 758 
Q 1494 397 1959 397 
Q 2419 397 2687 759 
Q 2956 1122 2956 1747 
Q 2956 2369 2687 2733 
Q 2419 3097 1959 3097 
z
M 1959 3584 
Q 2709 3584 3137 3096 
Q 3566 2609 3566 1747 
Q 3566 888 3137 398 
Q 2709 -91 1959 -91 
Q 1206 -91 779 398 
Q 353 888 353 1747 
Q 353 2609 779 3096 
Q 1206 3584 1959 3584 
z
" transform="scale(0.015625)"/>
        <path id="DejaVuSans-47" d="M 3809 666 
L 3809 1919 
L 2778 1919 
L 2778 2438 
L 4434 2438 
L 4434 434 
Q 4069 175 3628 42 
Q 3188 -91 2688 -91 
Q 1594 -91 976 548 
Q 359 1188 359 2328 
Q 359 3472 976 4111 
Q 1594 4750 2688 4750 
Q 3144 4750 3555 4637 
Q 3966 4525 4313 4306 
L 4313 3634 
Q 3963 3931 3569 4081 
Q 3175 4231 2741 4231 
Q 1884 4231 1454 3753 
Q 1025 3275 1025 2328 
Q 1025 1384 1454 906 
Q 1884 428 2741 428 
Q 3075 428 3337 486 
Q 3600 544 3809 666 
z
" transform="scale(0.015625)"/>
        <path id="DejaVuSans-61" d="M 2194 1759 
Q 1497 1759 1228 1600 
Q 959 1441 959 1056 
Q 959 750 1161 570 
Q 1363 391 1709 391 
Q 2188 391 2477 730 
Q 2766 1069 2766 1631 
L 2766 1759 
L 2194 1759 
z
M 3341 1997 
L 3341 0 
L 2766 0 
L 2766 531 
Q 2569 213 2275 61 
Q 1981 -91 1556 -91 
Q 1019 -91 701 211 
Q 384 513 384 1019 
Q 384 1609 779 1909 
Q 1175 2209 1959 2209 
L 2766 2209 
L 2766 2266 
Q 2766 2663 2505 2880 
Q 2244 3097 1772 3097 
Q 1472 3097 1187 3025 
Q 903 2953 641 2809 
L 641 3341 
Q 956 3463 1253 3523 
Q 1550 3584 1831 3584 
Q 2591 3584 2966 3190 
Q 3341 2797 3341 1997 
z
" transform="scale(0.015625)"/>
        <path id="DejaVuSans-64" d="M 2906 2969 
L 2906 4863 
L 3481 4863 
L 3481 0 
L 2906 0 
L 2906 525 
Q 2725 213 2448 61 
Q 2172 -91 1784 -91 
Q 1150 -91 751 415 
Q 353 922 353 1747 
Q 353 2572 751 3078 
Q 1150 3584 1784 3584 
Q 2172 3584 2448 3432 
Q 2725 3281 2906 2969 
z
M 947 1747 
Q 947 1113 1208 752 
Q 1469 391 1925 391 
Q 2381 391 2643 752 
Q 2906 1113 2906 1747 
Q 2906 2381 2643 2742 
Q 2381 3103 1925 3103 
Q 1469 3103 1208 2742 
Q 947 2381 947 1747 
z
" transform="scale(0.015625)"/>
        <path id="DejaVuSans-69" d="M 603 3500 
L 1178 3500 
L 1178 0 
L 603 0 
L 603 3500 
z
M 603 4863 
L 1178 4863 
L 1178 4134 
L 603 4134 
L 603 4863 
z
" transform="scale(0.015625)"/>
        <path id="DejaVuSans-6e" d="M 3513 2113 
L 3513 0 
L 2938 0 
L 2938 2094 
Q 2938 2591 2744 2837 
Q 2550 3084 2163 3084 
Q 1697 3084 1428 2787 
Q 1159 2491 1159 1978 
L 1159 0 
L 581 0 
L 581 3500 
L 1159 3500 
L 1159 2956 
Q 1366 3272 1645 3428 
Q 1925 3584 2291 3584 
Q 2894 3584 3203 3211 
Q 3513 2838 3513 2113 
z
" transform="scale(0.015625)"/>
        <path id="DejaVuSans-74" d="M 1172 4494 
L 1172 3500 
L 2356 3500 
L 2356 3053 
L 1172 3053 
L 1172 1153 
Q 1172 725 1289 603 
Q 1406 481 1766 481 
L 2356 481 
L 2356 0 
L 1766 0 
Q 1100 0 847 248 
Q 594 497 594 1153 
L 594 3053 
L 172 3053 
L 172 3500 
L 594 3500 
L 594 4494 
L 1172 4494 
z
" transform="scale(0.015625)"/>
        <path id="DejaVuSans-20" transform="scale(0.015625)"/>
        <path id="DejaVuSans-54" d="M -19 4666 
L 3928 4666 
L 3928 4134 
L 2272 4134 
L 2272 0 
L 1638 0 
L 1638 4134 
L -19 4134 
L -19 4666 
z
" transform="scale(0.015625)"/>
       </defs>
       <use xlink:href="#DejaVuSans-7a"/>
       <use xlink:href="#DejaVuSans-65" x="52.490234"/>
       <use xlink:href="#DejaVuSans-72" x="114.013672"/>
       <use xlink:href="#DejaVuSans-6f" x="152.876953"/>
       <use xlink:href="#DejaVuSans-47" x="214.058594"/>
       <use xlink:href="#DejaVuSans-72" x="291.548828"/>
       <use xlink:href="#DejaVuSans-61" x="332.662109"/>
       <use xlink:href="#DejaVuSans-64" x="393.941406"/>
       <use xlink:href="#DejaVuSans-69" x="457.417969"/>
       <use xlink:href="#DejaVuSans-65" x="485.201172"/>
       <use xlink:href="#DejaVuSans-6e" x="546.724609"/>
       <use xlink:href="#DejaVuSans-74" x="610.103516"/>
       <use xlink:href="#DejaVuSans-20" x="649.3125"/>
       <use xlink:href="#DejaVuSans-54" x="681.099609"/>
      </g>
     </g>
    </g>
    <g id="xtick_2">
     <g id="line2d_2">
      <g>
       <use xlink:href="#m7d718956f4" x="205.04728" y="300.835875" style="fill: #9aa3ad; stroke: #9aa3ad; stroke-width: 0.8"/>
      </g>
     </g>
     <g id="text_2">
      <!-- #2 -->
      <g style="fill: #9aa3ad" transform="translate(198.781851 314.294547) scale(0.085 -0.085)">
       <defs>
        <path id="DejaVuSans-32" d="M 1228 531 
L 3431 531 
L 3431 0 
L 469 0 
L 469 531 
Q 828 903 1448 1529 
Q 2069 2156 2228 2338 
Q 2531 2678 2651 2914 
Q 2772 3150 2772 3378 
Q 2772 3750 2511 3984 
Q 2250 4219 1831 4219 
Q 1534 4219 1204 4116 
Q 875 4013 500 3803 
L 500 4441 
Q 881 4594 1212 4672 
Q 1544 4750 1819 4750 
Q 2544 4750 2975 4387 
Q 3406 4025 3406 3419 
Q 3406 3131 3298 2873 
Q 3191 2616 2906 2266 
Q 2828 2175 2409 1742 
Q 1991 1309 1228 531 
z
" transform="scale(0.015625)"/>
       </defs>
       <use xlink:href="#DejaVuSans-23"/>
       <use xlink:href="#DejaVuSans-32" x="83.789062"/>
      </g>
      <!-- 80-cell -->
      <g style="fill: #9aa3ad" transform="translate(190.792515 323.812687) scale(0.085 -0.085)">
       <defs>
        <path id="DejaVuSans-38" d="M 2034 2216 
Q 1584 2216 1326 1975 
Q 1069 1734 1069 1313 
Q 1069 891 1326 650 
Q 1584 409 2034 409 
Q 2484 409 2743 651 
Q 3003 894 3003 1313 
Q 3003 1734 2745 1975 
Q 2488 2216 2034 2216 
z
M 1403 2484 
Q 997 2584 770 2862 
Q 544 3141 544 3541 
Q 544 4100 942 4425 
Q 1341 4750 2034 4750 
Q 2731 4750 3128 4425 
Q 3525 4100 3525 3541 
Q 3525 3141 3298 2862 
Q 3072 2584 2669 2484 
Q 3125 2378 3379 2068 
Q 3634 1759 3634 1313 
Q 3634 634 3220 271 
Q 2806 -91 2034 -91 
Q 1263 -91 848 271 
Q 434 634 434 1313 
Q 434 1759 690 2068 
Q 947 2378 1403 2484 
z
M 1172 3481 
Q 1172 3119 1398 2916 
Q 1625 2713 2034 2713 
Q 2441 2713 2670 2916 
Q 2900 3119 2900 3481 
Q 2900 3844 2670 4047 
Q 2441 4250 2034 4250 
Q 1625 4250 1398 4047 
Q 1172 3844 1172 3481 
z
" transform="scale(0.015625)"/>
       </defs>
       <use xlink:href="#DejaVuSans-38"/>
       <use xlink:href="#DejaVuSans-30" x="63.623047"/>
       <use xlink:href="#DejaVuSans-2d" x="127.246094"/>
       <use xlink:href="#DejaVuSans-63" x="163.330078"/>
       <use xlink:href="#DejaVuSans-65" x="218.310547"/>
       <use xlink:href="#DejaVuSans-6c" x="279.833984"/>
       <use xlink:href="#DejaVuSans-6c" x="307.617188"/>
      </g>
      <!-- fixedValue T -->
      <g style="fill: #9aa3ad" transform="translate(179.056538 333.330828) scale(0.085 -0.085)">
       <defs>
        <path id="DejaVuSans-66" d="M 2375 4863 
L 2375 4384 
L 1825 4384 
Q 1516 4384 1395 4259 
Q 1275 4134 1275 3809 
L 1275 3500 
L 2222 3500 
L 2222 3053 
L 1275 3053 
L 1275 0 
L 697 0 
L 697 3053 
L 147 3053 
L 147 3500 
L 697 3500 
L 697 3744 
Q 697 4328 969 4595 
Q 1241 4863 1831 4863 
L 2375 4863 
z
" transform="scale(0.015625)"/>
        <path id="DejaVuSans-78" d="M 3513 3500 
L 2247 1797 
L 3578 0 
L 2900 0 
L 1881 1375 
L 863 0 
L 184 0 
L 1544 1831 
L 300 3500 
L 978 3500 
L 1906 2253 
L 2834 3500 
L 3513 3500 
z
" transform="scale(0.015625)"/>
        <path id="DejaVuSans-56" d="M 1831 0 
L 50 4666 
L 709 4666 
L 2188 738 
L 3669 4666 
L 4325 4666 
L 2547 0 
L 1831 0 
z
" transform="scale(0.015625)"/>
        <path id="DejaVuSans-75" d="M 544 1381 
L 544 3500 
L 1119 3500 
L 1119 1403 
Q 1119 906 1312 657 
Q 1506 409 1894 409 
Q 2359 409 2629 706 
Q 2900 1003 2900 1516 
L 2900 3500 
L 3475 3500 
L 3475 0 
L 2900 0 
L 2900 538 
Q 2691 219 2414 64 
Q 2138 -91 1772 -91 
Q 1169 -91 856 284 
Q 544 659 544 1381 
z
M 1991 3584 
L 1991 3584 
z
" transform="scale(0.015625)"/>
       </defs>
       <use xlink:href="#DejaVuSans-66"/>
       <use xlink:href="#DejaVuSans-69" x="35.205078"/>
       <use xlink:href="#DejaVuSans-78" x="62.988281"/>
       <use xlink:href="#DejaVuSans-65" x="119.042969"/>
       <use xlink:href="#DejaVuSans-64" x="180.566406"/>
       <use xlink:href="#DejaVuSans-56" x="244.042969"/>
       <use xlink:href="#DejaVuSans-61" x="304.701172"/>
       <use xlink:href="#DejaVuSans-6c" x="365.980469"/>
       <use xlink:href="#DejaVuSans-75" x="393.763672"/>
       <use xlink:href="#DejaVuSans-65" x="457.142578"/>
       <use xlink:href="#DejaVuSans-20" x="518.666016"/>
       <use xlink:href="#DejaVuSans-54" x="550.453125"/>
      </g>
     </g>
    </g>
    <g id="xtick_3">
     <g id="line2d_3">
      <g>
       <use xlink:href="#m7d718956f4" x="338.287983" y="300.835875" style="fill: #9aa3ad; stroke: #9aa3ad; stroke-width: 0.8"/>
      </g>
     </g>
     <g id="text_3">
      <!-- #3 -->
      <g style="fill: #9aa3ad" transform="translate(332.022553 314.294547) scale(0.085 -0.085)">
       <defs>
        <path id="DejaVuSans-33" d="M 2597 2516 
Q 3050 2419 3304 2112 
Q 3559 1806 3559 1356 
Q 3559 666 3084 287 
Q 2609 -91 1734 -91 
Q 1441 -91 1130 -33 
Q 819 25 488 141 
L 488 750 
Q 750 597 1062 519 
Q 1375 441 1716 441 
Q 2309 441 2620 675 
Q 2931 909 2931 1356 
Q 2931 1769 2642 2001 
Q 2353 2234 1838 2234 
L 1294 2234 
L 1294 2753 
L 1863 2753 
Q 2328 2753 2575 2939 
Q 2822 3125 2822 3475 
Q 2822 3834 2567 4026 
Q 2313 4219 1838 4219 
Q 1578 4219 1281 4162 
Q 984 4106 628 3988 
L 628 4550 
Q 988 4650 1302 4700 
Q 1616 4750 1894 4750 
Q 2613 4750 3031 4423 
Q 3450 4097 3450 3541 
Q 3450 3153 3228 2886 
Q 3006 2619 2597 2516 
z
" transform="scale(0.015625)"/>
       </defs>
       <use xlink:href="#DejaVuSans-23"/>
       <use xlink:href="#DejaVuSans-33" x="83.789062"/>
      </g>
      <!-- c3a1a4c -->
      <g style="fill: #9aa3ad" transform="translate(320.293217 323.812687) scale(0.085 -0.085)">
       <use xlink:href="#DejaVuSans-63"/>
       <use xlink:href="#DejaVuSans-33" x="54.980469"/>
       <use xlink:href="#DejaVuSans-61" x="118.603516"/>
       <use xlink:href="#DejaVuSans-31" x="179.882812"/>
       <use xlink:href="#DejaVuSans-61" x="243.505859"/>
       <use xlink:href="#DejaVuSans-34" x="304.785156"/>
       <use xlink:href="#DejaVuSans-63" x="368.408203"/>
      </g>
      <!-- nOuter=80 -->
      <g style="fill: #9aa3ad" transform="translate(314.55771 333.330828) scale(0.085 -0.085)">
       <defs>
        <path id="DejaVuSans-4f" d="M 2522 4238 
Q 1834 4238 1429 3725 
Q 1025 3213 1025 2328 
Q 1025 1447 1429 934 
Q 1834 422 2522 422 
Q 3209 422 3611 934 
Q 4013 1447 4013 2328 
Q 4013 3213 3611 3725 
Q 3209 4238 2522 4238 
z
M 2522 4750 
Q 3503 4750 4090 4092 
Q 4678 3434 4678 2328 
Q 4678 1225 4090 567 
Q 3503 -91 2522 -91 
Q 1538 -91 948 565 
Q 359 1222 359 2328 
Q 359 3434 948 4092 
Q 1538 4750 2522 4750 
z
" transform="scale(0.015625)"/>
        <path id="DejaVuSans-3d" d="M 678 2906 
L 4684 2906 
L 4684 2381 
L 678 2381 
L 678 2906 
z
M 678 1631 
L 4684 1631 
L 4684 1100 
L 678 1100 
L 678 1631 
z
" transform="scale(0.015625)"/>
       </defs>
       <use xlink:href="#DejaVuSans-6e"/>
       <use xlink:href="#DejaVuSans-4f" x="63.378906"/>
       <use xlink:href="#DejaVuSans-75" x="142.089844"/>
       <use xlink:href="#DejaVuSans-74" x="205.46875"/>
       <use xlink:href="#DejaVuSans-65" x="244.677734"/>
       <use xlink:href="#DejaVuSans-72" x="306.201172"/>
       <use xlink:href="#DejaVuSans-3d" x="347.314453"/>
       <use xlink:href="#DejaVuSans-38" x="431.103516"/>
       <use xlink:href="#DejaVuSans-30" x="494.726562"/>
      </g>
      <!-- tighter URFs -->
      <g style="fill: #9aa3ad" transform="translate(311.948608 342.848969) scale(0.085 -0.085)">
       <defs>
        <path id="DejaVuSans-67" d="M 2906 1791 
Q 2906 2416 2648 2759 
Q 2391 3103 1925 3103 
Q 1463 3103 1205 2759 
Q 947 2416 947 1791 
Q 947 1169 1205 825 
Q 1463 481 1925 481 
Q 2391 481 2648 825 
Q 2906 1169 2906 1791 
z
M 3481 434 
Q 3481 -459 3084 -895 
Q 2688 -1331 1869 -1331 
Q 1566 -1331 1297 -1286 
Q 1028 -1241 775 -1147 
L 775 -588 
Q 1028 -725 1275 -790 
Q 1522 -856 1778 -856 
Q 2344 -856 2625 -561 
Q 2906 -266 2906 331 
L 2906 616 
Q 2728 306 2450 153 
Q 2172 0 1784 0 
Q 1141 0 747 490 
Q 353 981 353 1791 
Q 353 2603 747 3093 
Q 1141 3584 1784 3584 
Q 2172 3584 2450 3431 
Q 2728 3278 2906 2969 
L 2906 3500 
L 3481 3500 
L 3481 434 
z
" transform="scale(0.015625)"/>
        <path id="DejaVuSans-68" d="M 3513 2113 
L 3513 0 
L 2938 0 
L 2938 2094 
Q 2938 2591 2744 2837 
Q 2550 3084 2163 3084 
Q 1697 3084 1428 2787 
Q 1159 2491 1159 1978 
L 1159 0 
L 581 0 
L 581 4863 
L 1159 4863 
L 1159 2956 
Q 1366 3272 1645 3428 
Q 1925 3584 2291 3584 
Q 2894 3584 3203 3211 
Q 3513 2838 3513 2113 
z
" transform="scale(0.015625)"/>
        <path id="DejaVuSans-55" d="M 556 4666 
L 1191 4666 
L 1191 1831 
Q 1191 1081 1462 751 
Q 1734 422 2344 422 
Q 2950 422 3222 751 
Q 3494 1081 3494 1831 
L 3494 4666 
L 4128 4666 
L 4128 1753 
Q 4128 841 3676 375 
Q 3225 -91 2344 -91 
Q 1459 -91 1007 375 
Q 556 841 556 1753 
L 556 4666 
z
" transform="scale(0.015625)"/>
        <path id="DejaVuSans-52" d="M 2841 2188 
Q 3044 2119 3236 1894 
Q 3428 1669 3622 1275 
L 4263 0 
L 3584 0 
L 2988 1197 
Q 2756 1666 2539 1819 
Q 2322 1972 1947 1972 
L 1259 1972 
L 1259 0 
L 628 0 
L 628 4666 
L 2053 4666 
Q 2853 4666 3247 4331 
Q 3641 3997 3641 3322 
Q 3641 2881 3436 2590 
Q 3231 2300 2841 2188 
z
M 1259 4147 
L 1259 2491 
L 2053 2491 
Q 2509 2491 2742 2702 
Q 2975 2913 2975 3322 
Q 2975 3731 2742 3939 
Q 2509 4147 2053 4147 
L 1259 4147 
z
" transform="scale(0.015625)"/>
        <path id="DejaVuSans-46" d="M 628 4666 
L 3309 4666 
L 3309 4134 
L 1259 4134 
L 1259 2759 
L 3109 2759 
L 3109 2228 
L 1259 2228 
L 1259 0 
L 628 0 
L 628 4666 
z
" transform="scale(0.015625)"/>
        <path id="DejaVuSans-73" d="M 2834 3397 
L 2834 2853 
Q 2591 2978 2328 3040 
Q 2066 3103 1784 3103 
Q 1356 3103 1142 2972 
Q 928 2841 928 2578 
Q 928 2378 1081 2264 
Q 1234 2150 1697 2047 
L 1894 2003 
Q 2506 1872 2764 1633 
Q 3022 1394 3022 966 
Q 3022 478 2636 193 
Q 2250 -91 1575 -91 
Q 1294 -91 989 -36 
Q 684 19 347 128 
L 347 722 
Q 666 556 975 473 
Q 1284 391 1588 391 
Q 1994 391 2212 530 
Q 2431 669 2431 922 
Q 2431 1156 2273 1281 
Q 2116 1406 1581 1522 
L 1381 1569 
Q 847 1681 609 1914 
Q 372 2147 372 2553 
Q 372 3047 722 3315 
Q 1072 3584 1716 3584 
Q 2034 3584 2315 3537 
Q 2597 3491 2834 3397 
z
" transform="scale(0.015625)"/>
       </defs>
       <use xlink:href="#DejaVuSans-74"/>
       <use xlink:href="#DejaVuSans-69" x="39.208984"/>
       <use xlink:href="#DejaVuSans-67" x="66.992188"/>
       <use xlink:href="#DejaVuSans-68" x="130.46875"/>
       <use xlink:href="#DejaVuSans-74" x="193.847656"/>
       <use xlink:href="#DejaVuSans-65" x="233.056641"/>
       <use xlink:href="#DejaVuSans-72" x="294.580078"/>
       <use xlink:href="#DejaVuSans-20" x="335.693359"/>
       <use xlink:href="#DejaVuSans-55" x="367.480469"/>
       <use xlink:href="#DejaVuSans-52" x="440.673828"/>
       <use xlink:href="#DejaVuSans-46" x="510.15625"/>
       <use xlink:href="#DejaVuSans-73" x="567.675781"/>
      </g>
     </g>
    </g>
    <g id="xtick_4">
     <g id="line2d_4">
      <g>
       <use xlink:href="#m7d718956f4" x="471.528685" y="300.835875" style="fill: #9aa3ad; stroke: #9aa3ad; stroke-width: 0.8"/>
      </g>
     </g>
     <g id="text_4">
      <!-- #4 -->
      <g style="fill: #9aa3ad" transform="translate(465.263256 314.294547) scale(0.085 -0.085)">
       <use xlink:href="#DejaVuSans-23"/>
       <use xlink:href="#DejaVuSans-34" x="83.789062"/>
      </g>
      <!-- EX-1-007 B1 -->
      <g style="fill: #9aa3ad" transform="translate(445.290912 323.812687) scale(0.085 -0.085)">
       <defs>
        <path id="DejaVuSans-42" d="M 1259 2228 
L 1259 519 
L 2272 519 
Q 2781 519 3026 730 
Q 3272 941 3272 1375 
Q 3272 1813 3026 2020 
Q 2781 2228 2272 2228 
L 1259 2228 
z
M 1259 4147 
L 1259 2741 
L 2194 2741 
Q 2656 2741 2882 2914 
Q 3109 3088 3109 3444 
Q 3109 3797 2882 3972 
Q 2656 4147 2194 4147 
L 1259 4147 
z
M 628 4666 
L 2241 4666 
Q 2963 4666 3353 4366 
Q 3744 4066 3744 3513 
Q 3744 3084 3544 2831 
Q 3344 2578 2956 2516 
Q 3422 2416 3680 2098 
Q 3938 1781 3938 1306 
Q 3938 681 3513 340 
Q 3088 0 2303 0 
L 628 0 
L 628 4666 
z
" transform="scale(0.015625)"/>
       </defs>
       <use xlink:href="#DejaVuSans-45"/>
       <use xlink:href="#DejaVuSans-58" x="63.183594"/>
       <use xlink:href="#DejaVuSans-2d" x="126.689453"/>
       <use xlink:href="#DejaVuSans-31" x="162.773438"/>
       <use xlink:href="#DejaVuSans-2d" x="226.396484"/>
       <use xlink:href="#DejaVuSans-30" x="262.480469"/>
       <use xlink:href="#DejaVuSans-30" x="326.103516"/>
       <use xlink:href="#DejaVuSans-37" x="389.726562"/>
       <use xlink:href="#DejaVuSans-20" x="453.349609"/>
       <use xlink:href="#DejaVuSans-42" x="485.136719"/>
       <use xlink:href="#DejaVuSans-31" x="553.740234"/>
      </g>
      <!-- 256² graded=6 -->
      <g style="fill: #9aa3ad" transform="translate(439.035443 333.330828) scale(0.085 -0.085)">
       <defs>
        <path id="DejaVuSans-35" d="M 691 4666 
L 3169 4666 
L 3169 4134 
L 1269 4134 
L 1269 2991 
Q 1406 3038 1543 3061 
Q 1681 3084 1819 3084 
Q 2600 3084 3056 2656 
Q 3513 2228 3513 1497 
Q 3513 744 3044 326 
Q 2575 -91 1722 -91 
Q 1428 -91 1123 -41 
Q 819 9 494 109 
L 494 744 
Q 775 591 1075 516 
Q 1375 441 1709 441 
Q 2250 441 2565 725 
Q 2881 1009 2881 1497 
Q 2881 1984 2565 2268 
Q 2250 2553 1709 2553 
Q 1456 2553 1204 2497 
Q 953 2441 691 2322 
L 691 4666 
z
" transform="scale(0.015625)"/>
        <path id="DejaVuSans-36" d="M 2113 2584 
Q 1688 2584 1439 2293 
Q 1191 2003 1191 1497 
Q 1191 994 1439 701 
Q 1688 409 2113 409 
Q 2538 409 2786 701 
Q 3034 994 3034 1497 
Q 3034 2003 2786 2293 
Q 2538 2584 2113 2584 
z
M 3366 4563 
L 3366 3988 
Q 3128 4100 2886 4159 
Q 2644 4219 2406 4219 
Q 1781 4219 1451 3797 
Q 1122 3375 1075 2522 
Q 1259 2794 1537 2939 
Q 1816 3084 2150 3084 
Q 2853 3084 3261 2657 
Q 3669 2231 3669 1497 
Q 3669 778 3244 343 
Q 2819 -91 2113 -91 
Q 1303 -91 875 529 
Q 447 1150 447 2328 
Q 447 3434 972 4092 
Q 1497 4750 2381 4750 
Q 2619 4750 2861 4703 
Q 3103 4656 3366 4563 
z
" transform="scale(0.015625)"/>
        <path id="DejaVuSans-b2" d="M 838 2444 
L 2163 2444 
L 2163 2088 
L 294 2088 
L 294 2431 
Q 400 2528 597 2703 
Q 1672 3656 1672 3950 
Q 1672 4156 1509 4282 
Q 1347 4409 1081 4409 
Q 919 4409 728 4354 
Q 538 4300 313 4191 
L 313 4575 
Q 553 4663 761 4706 
Q 969 4750 1147 4750 
Q 1600 4750 1872 4544 
Q 2144 4338 2144 4000 
Q 2144 3566 1109 2678 
Q 934 2528 838 2444 
z
" transform="scale(0.015625)"/>
       </defs>
       <use xlink:href="#DejaVuSans-32"/>
       <use xlink:href="#DejaVuSans-35" x="63.623047"/>
       <use xlink:href="#DejaVuSans-36" x="127.246094"/>
       <use xlink:href="#DejaVuSans-b2" x="190.869141"/>
       <use xlink:href="#DejaVuSans-20" x="230.957031"/>
       <use xlink:href="#DejaVuSans-67" x="262.744141"/>
       <use xlink:href="#DejaVuSans-72" x="326.220703"/>
       <use xlink:href="#DejaVuSans-61" x="367.333984"/>
       <use xlink:href="#DejaVuSans-64" x="428.613281"/>
       <use xlink:href="#DejaVuSans-65" x="492.089844"/>
       <use xlink:href="#DejaVuSans-64" x="553.613281"/>
       <use xlink:href="#DejaVuSans-3d" x="617.089844"/>
       <use xlink:href="#DejaVuSans-36" x="700.878906"/>
      </g>
      <!-- local mid-height -->
      <g style="fill: #9aa3ad" transform="translate(437.176068 342.848969) scale(0.085 -0.085)">
       <defs>
        <path id="DejaVuSans-6d" d="M 3328 2828 
Q 3544 3216 3844 3400 
Q 4144 3584 4550 3584 
Q 5097 3584 5394 3201 
Q 5691 2819 5691 2113 
L 5691 0 
L 5113 0 
L 5113 2094 
Q 5113 2597 4934 2840 
Q 4756 3084 4391 3084 
Q 3944 3084 3684 2787 
Q 3425 2491 3425 1978 
L 3425 0 
L 2847 0 
L 2847 2094 
Q 2847 2600 2669 2842 
Q 2491 3084 2119 3084 
Q 1678 3084 1418 2786 
Q 1159 2488 1159 1978 
L 1159 0 
L 581 0 
L 581 3500 
L 1159 3500 
L 1159 2956 
Q 1356 3278 1631 3431 
Q 1906 3584 2284 3584 
Q 2666 3584 2933 3390 
Q 3200 3197 3328 2828 
z
" transform="scale(0.015625)"/>
       </defs>
       <use xlink:href="#DejaVuSans-6c"/>
       <use xlink:href="#DejaVuSans-6f" x="27.783203"/>
       <use xlink:href="#DejaVuSans-63" x="88.964844"/>
       <use xlink:href="#DejaVuSans-61" x="143.945312"/>
       <use xlink:href="#DejaVuSans-6c" x="205.224609"/>
       <use xlink:href="#DejaVuSans-20" x="233.007812"/>
       <use xlink:href="#DejaVuSans-6d" x="264.794922"/>
       <use xlink:href="#DejaVuSans-69" x="362.207031"/>
       <use xlink:href="#DejaVuSans-64" x="389.990234"/>
       <use xlink:href="#DejaVuSans-2d" x="453.466797"/>
       <use xlink:href="#DejaVuSans-68" x="489.550781"/>
       <use xlink:href="#DejaVuSans-65" x="552.929688"/>
       <use xlink:href="#DejaVuSans-69" x="614.453125"/>
       <use xlink:href="#DejaVuSans-67" x="642.236328"/>
       <use xlink:href="#DejaVuSans-68" x="705.712891"/>
       <use xlink:href="#DejaVuSans-74" x="769.091797"/>
      </g>
     </g>
    </g>
    <g id="xtick_5">
     <g id="line2d_5">
      <g>
       <use xlink:href="#m7d718956f4" x="604.769388" y="300.835875" style="fill: #9aa3ad; stroke: #9aa3ad; stroke-width: 0.8"/>
      </g>
     </g>
     <g id="text_5">
      <!-- #5 -->
      <g style="fill: #9aa3ad" transform="translate(598.503958 314.294547) scale(0.085 -0.085)">
       <use xlink:href="#DejaVuSans-23"/>
       <use xlink:href="#DejaVuSans-35" x="83.789062"/>
      </g>
      <!-- EX-1-008 -->
      <g style="fill: #9aa3ad" transform="translate(585.502279 323.812687) scale(0.085 -0.085)">
       <use xlink:href="#DejaVuSans-45"/>
       <use xlink:href="#DejaVuSans-58" x="63.183594"/>
       <use xlink:href="#DejaVuSans-2d" x="126.689453"/>
       <use xlink:href="#DejaVuSans-31" x="162.773438"/>
       <use xlink:href="#DejaVuSans-2d" x="226.396484"/>
       <use xlink:href="#DejaVuSans-30" x="262.480469"/>
       <use xlink:href="#DejaVuSans-30" x="326.103516"/>
       <use xlink:href="#DejaVuSans-38" x="389.726562"/>
      </g>
      <!-- 256² graded -->
      <g style="fill: #9aa3ad" transform="translate(578.541575 333.330828) scale(0.085 -0.085)">
       <use xlink:href="#DejaVuSans-32"/>
       <use xlink:href="#DejaVuSans-35" x="63.623047"/>
       <use xlink:href="#DejaVuSans-36" x="127.246094"/>
       <use xlink:href="#DejaVuSans-b2" x="190.869141"/>
       <use xlink:href="#DejaVuSans-20" x="230.957031"/>
       <use xlink:href="#DejaVuSans-67" x="262.744141"/>
       <use xlink:href="#DejaVuSans-72" x="326.220703"/>
       <use xlink:href="#DejaVuSans-61" x="367.333984"/>
       <use xlink:href="#DejaVuSans-64" x="428.613281"/>
       <use xlink:href="#DejaVuSans-65" x="492.089844"/>
       <use xlink:href="#DejaVuSans-64" x="553.613281"/>
      </g>
      <!-- mean-over-y -->
      <g style="fill: #9aa3ad" transform="translate(577.922005 342.848969) scale(0.085 -0.085)">
       <defs>
        <path id="DejaVuSans-76" d="M 191 3500 
L 800 3500 
L 1894 563 
L 2988 3500 
L 3597 3500 
L 2284 0 
L 1503 0 
L 191 3500 
z
" transform="scale(0.015625)"/>
        <path id="DejaVuSans-79" d="M 2059 -325 
Q 1816 -950 1584 -1140 
Q 1353 -1331 966 -1331 
L 506 -1331 
L 506 -850 
L 844 -850 
Q 1081 -850 1212 -737 
Q 1344 -625 1503 -206 
L 1606 56 
L 191 3500 
L 800 3500 
L 1894 763 
L 2988 3500 
L 3597 3500 
L 2059 -325 
z
" transform="scale(0.015625)"/>
       </defs>
       <use xlink:href="#DejaVuSans-6d"/>
       <use xlink:href="#DejaVuSans-65" x="97.412109"/>
       <use xlink:href="#DejaVuSans-61" x="158.935547"/>
       <use xlink:href="#DejaVuSans-6e" x="220.214844"/>
       <use xlink:href="#DejaVuSans-2d" x="283.59375"/>
       <use xlink:href="#DejaVuSans-6f" x="321.552734"/>
       <use xlink:href="#DejaVuSans-76" x="382.734375"/>
       <use xlink:href="#DejaVuSans-65" x="441.914062"/>
       <use xlink:href="#DejaVuSans-72" x="503.4375"/>
       <use xlink:href="#DejaVuSans-2d" x="538.175781"/>
       <use xlink:href="#DejaVuSans-79" x="572.509766"/>
      </g>
     </g>
    </g>
   </g>
   <g id="matplotlib.axis_2">
    <g id="ytick_1">
     <g id="line2d_6">
      <path d="M 45.158438 293.62074 
L 631.417528 293.62074 
" clip-path="url(#pb7cc4a1b9e)" style="fill: none; stroke-dasharray: 2.96,1.28; stroke-dashoffset: 0; stroke: #6b7580; stroke-opacity: 0.2; stroke-width: 0.8"/>
     </g>
     <g id="line2d_7">
      <defs>
       <path id="m187a93dc0a" d="M 0 0 
L -3.5 0 
" style="stroke: #9aa3ad; stroke-width: 0.8"/>
      </defs>
      <g>
       <use xlink:href="#m187a93dc0a" x="45.158438" y="293.62074" style="fill: #9aa3ad; stroke: #9aa3ad; stroke-width: 0.8"/>
      </g>
     </g>
     <g id="text_6">
      <!-- 0 -->
      <g style="fill: #9aa3ad" transform="translate(32.432188 297.040037) scale(0.09 -0.09)">
       <use xlink:href="#DejaVuSans-30"/>
      </g>
     </g>
    </g>
    <g id="ytick_2">
     <g id="line2d_8">
      <path d="M 45.158438 257.545064 
L 631.417528 257.545064 
" clip-path="url(#pb7cc4a1b9e)" style="fill: none; stroke-dasharray: 2.96,1.28; stroke-dashoffset: 0; stroke: #6b7580; stroke-opacity: 0.2; stroke-width: 0.8"/>
     </g>
     <g id="line2d_9">
      <g>
       <use xlink:href="#m187a93dc0a" x="45.158438" y="257.545064" style="fill: #9aa3ad; stroke: #9aa3ad; stroke-width: 0.8"/>
      </g>
     </g>
     <g id="text_7">
      <!-- 25 -->
      <g style="fill: #9aa3ad" transform="translate(26.705938 260.964361) scale(0.09 -0.09)">
       <use xlink:href="#DejaVuSans-32"/>
       <use xlink:href="#DejaVuSans-35" x="63.623047"/>
      </g>
     </g>
    </g>
    <g id="ytick_3">
     <g id="line2d_10">
      <path d="M 45.158438 221.469389 
L 631.417528 221.469389 
" clip-path="url(#pb7cc4a1b9e)" style="fill: none; stroke-dasharray: 2.96,1.28; stroke-dashoffset: 0; stroke: #6b7580; stroke-opacity: 0.2; stroke-width: 0.8"/>
     </g>
     <g id="line2d_11">
      <g>
       <use xlink:href="#m187a93dc0a" x="45.158438" y="221.469389" style="fill: #9aa3ad; stroke: #9aa3ad; stroke-width: 0.8"/>
      </g>
     </g>
     <g id="text_8">
      <!-- 50 -->
      <g style="fill: #9aa3ad" transform="translate(26.705938 224.888685) scale(0.09 -0.09)">
       <use xlink:href="#DejaVuSans-35"/>
       <use xlink:href="#DejaVuSans-30" x="63.623047"/>
      </g>
     </g>
    </g>
    <g id="ytick_4">
     <g id="line2d_12">
      <path d="M 45.158438 185.393713 
L 631.417528 185.393713 
" clip-path="url(#pb7cc4a1b9e)" style="fill: none; stroke-dasharray: 2.96,1.28; stroke-dashoffset: 0; stroke: #6b7580; stroke-opacity: 0.2; stroke-width: 0.8"/>
     </g>
     <g id="line2d_13">
      <g>
       <use xlink:href="#m187a93dc0a" x="45.158438" y="185.393713" style="fill: #9aa3ad; stroke: #9aa3ad; stroke-width: 0.8"/>
      </g>
     </g>
     <g id="text_9">
      <!-- 75 -->
      <g style="fill: #9aa3ad" transform="translate(26.705938 188.81301) scale(0.09 -0.09)">
       <use xlink:href="#DejaVuSans-37"/>
       <use xlink:href="#DejaVuSans-35" x="63.623047"/>
      </g>
     </g>
    </g>
    <g id="ytick_5">
     <g id="line2d_14">
      <path d="M 45.158438 149.318037 
L 631.417528 149.318037 
" clip-path="url(#pb7cc4a1b9e)" style="fill: none; stroke-dasharray: 2.96,1.28; stroke-dashoffset: 0; stroke: #6b7580; stroke-opacity: 0.2; stroke-width: 0.8"/>
     </g>
     <g id="line2d_15">
      <g>
       <use xlink:href="#m187a93dc0a" x="45.158438" y="149.318037" style="fill: #9aa3ad; stroke: #9aa3ad; stroke-width: 0.8"/>
      </g>
     </g>
     <g id="text_10">
      <!-- 100 -->
      <g style="fill: #9aa3ad" transform="translate(20.979688 152.737334) scale(0.09 -0.09)">
       <use xlink:href="#DejaVuSans-31"/>
       <use xlink:href="#DejaVuSans-30" x="63.623047"/>
       <use xlink:href="#DejaVuSans-30" x="127.246094"/>
      </g>
     </g>
    </g>
    <g id="ytick_6">
     <g id="line2d_16">
      <path d="M 45.158438 113.242361 
L 631.417528 113.242361 
" clip-path="url(#pb7cc4a1b9e)" style="fill: none; stroke-dasharray: 2.96,1.28; stroke-dashoffset: 0; stroke: #6b7580; stroke-opacity: 0.2; stroke-width: 0.8"/>
     </g>
     <g id="line2d_17">
      <g>
       <use xlink:href="#m187a93dc0a" x="45.158438" y="113.242361" style="fill: #9aa3ad; stroke: #9aa3ad; stroke-width: 0.8"/>
      </g>
     </g>
     <g id="text_11">
      <!-- 125 -->
      <g style="fill: #9aa3ad" transform="translate(20.979688 116.661658) scale(0.09 -0.09)">
       <use xlink:href="#DejaVuSans-31"/>
       <use xlink:href="#DejaVuSans-32" x="63.623047"/>
       <use xlink:href="#DejaVuSans-35" x="127.246094"/>
      </g>
     </g>
    </g>
    <g id="ytick_7">
     <g id="line2d_18">
      <path d="M 45.158438 77.166686 
L 631.417528 77.166686 
" clip-path="url(#pb7cc4a1b9e)" style="fill: none; stroke-dasharray: 2.96,1.28; stroke-dashoffset: 0; stroke: #6b7580; stroke-opacity: 0.2; stroke-width: 0.8"/>
     </g>
     <g id="line2d_19">
      <g>
       <use xlink:href="#m187a93dc0a" x="45.158438" y="77.166686" style="fill: #9aa3ad; stroke: #9aa3ad; stroke-width: 0.8"/>
      </g>
     </g>
     <g id="text_12">
      <!-- 150 -->
      <g style="fill: #9aa3ad" transform="translate(20.979688 80.585983) scale(0.09 -0.09)">
       <use xlink:href="#DejaVuSans-31"/>
       <use xlink:href="#DejaVuSans-35" x="63.623047"/>
       <use xlink:href="#DejaVuSans-30" x="127.246094"/>
      </g>
     </g>
    </g>
    <g id="ytick_8">
     <g id="line2d_20">
      <path d="M 45.158438 41.09101 
L 631.417528 41.09101 
" clip-path="url(#pb7cc4a1b9e)" style="fill: none; stroke-dasharray: 2.96,1.28; stroke-dashoffset: 0; stroke: #6b7580; stroke-opacity: 0.2; stroke-width: 0.8"/>
     </g>
     <g id="line2d_21">
      <g>
       <use xlink:href="#m187a93dc0a" x="45.158438" y="41.09101" style="fill: #9aa3ad; stroke: #9aa3ad; stroke-width: 0.8"/>
      </g>
     </g>
     <g id="text_13">
      <!-- 175 -->
      <g style="fill: #9aa3ad" transform="translate(20.979688 44.510307) scale(0.09 -0.09)">
       <use xlink:href="#DejaVuSans-31"/>
       <use xlink:href="#DejaVuSans-37" x="63.623047"/>
       <use xlink:href="#DejaVuSans-35" x="127.246094"/>
      </g>
     </g>
    </g>
    <g id="text_14">
     <!-- Nu_mean at Ra=10¹⁰ -->
     <g style="fill: #e6e8eb" transform="translate(14.621875 220.134781) rotate(-90) scale(0.1 -0.1)">
      <defs>
       <path id="DejaVuSans-4e" d="M 628 4666 
L 1478 4666 
L 3547 763 
L 3547 4666 
L 4159 4666 
L 4159 0 
L 3309 0 
L 1241 3903 
L 1241 0 
L 628 0 
L 628 4666 
z
" transform="scale(0.015625)"/>
       <path id="DejaVuSans-5f" d="M 3263 -1063 
L 3263 -1509 
L -63 -1509 
L -63 -1063 
L 3263 -1063 
z
" transform="scale(0.015625)"/>
       <path id="DejaVuSans-b9" d="M 488 2431 
L 1125 2431 
L 1125 4341 
L 428 4213 
L 428 4575 
L 1147 4697 
L 1575 4697 
L 1575 2431 
L 2216 2431 
L 2216 2088 
L 488 2088 
L 488 2431 
z
" transform="scale(0.015625)"/>
       <path id="DejaVuSans-2070" d="M 1781 4203 
Q 1625 4472 1309 4472 
Q 994 4472 838 4203 
Q 678 3934 678 3397 
Q 678 2856 838 2588 
Q 994 2319 1309 2319 
Q 1625 2319 1781 2588 
Q 1941 2856 1941 3397 
Q 1941 3934 1781 4203 
z
M 1309 4750 
Q 1813 4750 2078 4403 
Q 2344 4056 2344 3397 
Q 2344 2734 2078 2387 
Q 1813 2041 1309 2041 
Q 803 2041 537 2387 
Q 272 2734 272 3397 
Q 272 4056 537 4403 
Q 803 4750 1309 4750 
z
" transform="scale(0.015625)"/>
      </defs>
      <use xlink:href="#DejaVuSans-4e"/>
      <use xlink:href="#DejaVuSans-75" x="74.804688"/>
      <use xlink:href="#DejaVuSans-5f" x="138.183594"/>
      <use xlink:href="#DejaVuSans-6d" x="188.183594"/>
      <use xlink:href="#DejaVuSans-65" x="285.595703"/>
      <use xlink:href="#DejaVuSans-61" x="347.119141"/>
      <use xlink:href="#DejaVuSans-6e" x="408.398438"/>
      <use xlink:href="#DejaVuSans-20" x="471.777344"/>
      <use xlink:href="#DejaVuSans-61" x="503.564453"/>
      <use xlink:href="#DejaVuSans-74" x="564.84375"/>
      <use xlink:href="#DejaVuSans-20" x="604.052734"/>
      <use xlink:href="#DejaVuSans-52" x="635.839844"/>
      <use xlink:href="#DejaVuSans-61" x="703.072266"/>
      <use xlink:href="#DejaVuSans-3d" x="764.351562"/>
      <use xlink:href="#DejaVuSans-31" x="848.140625"/>
      <use xlink:href="#DejaVuSans-30" x="911.763672"/>
      <use xlink:href="#DejaVuSans-b9" x="975.386719"/>
      <use xlink:href="#DejaVuSans-2070" x="1015.474609"/>
     </g>
    </g>
   </g>
   <g id="line2d_22">
    <path d="M 45.158438 250.329929 
L 631.417528 250.329929 
" clip-path="url(#pb7cc4a1b9e)" style="fill: none; stroke: #3fb950; stroke-width: 1.5; stroke-linecap: square"/>
   </g>
   <g id="line2d_23">
    <path d="M 71.806578 289.291659 
L 205.04728 285.179032 
L 338.287983 285.179032 
L 471.528685 198.020199 
L 604.769388 181.324377 
" clip-path="url(#pb7cc4a1b9e)" style="fill: none; stroke: #6b7580; stroke-opacity: 0.6; stroke-width: 1.3; stroke-linecap: square"/>
   </g>
   <g id="patch_5">
    <path d="M 45.158438 300.835875 
L 45.158438 33.875875 
" style="fill: none; stroke: #6b7580; stroke-width: 0.8; stroke-linejoin: miter; stroke-linecap: square"/>
   </g>
   <g id="patch_6">
    <path d="M 45.158438 300.835875 
L 631.417528 300.835875 
" style="fill: none; stroke: #6b7580; stroke-width: 0.8; stroke-linejoin: miter; stroke-linecap: square"/>
   </g>
   <g id="text_15">
    <!-- 3.00 -->
    <g style="fill: #f85149" transform="translate(60.087437 282.076524) scale(0.095 -0.095)">
     <defs>
      <path id="DejaVuSans-Bold-33" d="M 2981 2516 
Q 3453 2394 3698 2092 
Q 3944 1791 3944 1325 
Q 3944 631 3412 270 
Q 2881 -91 1863 -91 
Q 1503 -91 1142 -33 
Q 781 25 428 141 
L 428 1069 
Q 766 900 1098 814 
Q 1431 728 1753 728 
Q 2231 728 2486 893 
Q 2741 1059 2741 1369 
Q 2741 1688 2480 1852 
Q 2219 2016 1709 2016 
L 1228 2016 
L 1228 2791 
L 1734 2791 
Q 2188 2791 2409 2933 
Q 2631 3075 2631 3366 
Q 2631 3634 2415 3781 
Q 2200 3928 1806 3928 
Q 1516 3928 1219 3862 
Q 922 3797 628 3669 
L 628 4550 
Q 984 4650 1334 4700 
Q 1684 4750 2022 4750 
Q 2931 4750 3382 4451 
Q 3834 4153 3834 3553 
Q 3834 3144 3618 2883 
Q 3403 2622 2981 2516 
z
" transform="scale(0.015625)"/>
      <path id="DejaVuSans-Bold-2e" d="M 653 1209 
L 1778 1209 
L 1778 0 
L 653 0 
L 653 1209 
z
" transform="scale(0.015625)"/>
      <path id="DejaVuSans-Bold-30" d="M 2944 2338 
Q 2944 3213 2780 3570 
Q 2616 3928 2228 3928 
Q 1841 3928 1675 3570 
Q 1509 3213 1509 2338 
Q 1509 1453 1675 1090 
Q 1841 728 2228 728 
Q 2613 728 2778 1090 
Q 2944 1453 2944 2338 
z
M 4147 2328 
Q 4147 1169 3647 539 
Q 3147 -91 2228 -91 
Q 1306 -91 806 539 
Q 306 1169 306 2328 
Q 306 3491 806 4120 
Q 1306 4750 2228 4750 
Q 3147 4750 3647 4120 
Q 4147 3491 4147 2328 
z
" transform="scale(0.015625)"/>
     </defs>
     <use xlink:href="#DejaVuSans-Bold-33"/>
     <use xlink:href="#DejaVuSans-Bold-2e" x="69.580078"/>
     <use xlink:href="#DejaVuSans-Bold-30" x="107.568359"/>
     <use xlink:href="#DejaVuSans-Bold-30" x="177.148438"/>
    </g>
   </g>
   <g id="text_16">
    <!-- 5.85 -->
    <g style="fill: #f85149" transform="translate(193.32814 277.963897) scale(0.095 -0.095)">
     <defs>
      <path id="DejaVuSans-Bold-35" d="M 678 4666 
L 3669 4666 
L 3669 3781 
L 1638 3781 
L 1638 3059 
Q 1775 3097 1914 3117 
Q 2053 3138 2203 3138 
Q 3056 3138 3531 2711 
Q 4006 2284 4006 1522 
Q 4006 766 3489 337 
Q 2972 -91 2053 -91 
Q 1656 -91 1267 -14 
Q 878 63 494 219 
L 494 1166 
Q 875 947 1217 837 
Q 1559 728 1863 728 
Q 2300 728 2551 942 
Q 2803 1156 2803 1522 
Q 2803 1891 2551 2103 
Q 2300 2316 1863 2316 
Q 1603 2316 1309 2248 
Q 1016 2181 678 2041 
L 678 4666 
z
" transform="scale(0.015625)"/>
      <path id="DejaVuSans-Bold-38" d="M 2228 2088 
Q 1891 2088 1709 1903 
Q 1528 1719 1528 1375 
Q 1528 1031 1709 848 
Q 1891 666 2228 666 
Q 2563 666 2741 848 
Q 2919 1031 2919 1375 
Q 2919 1722 2741 1905 
Q 2563 2088 2228 2088 
z
M 1350 2484 
Q 925 2613 709 2878 
Q 494 3144 494 3541 
Q 494 4131 934 4440 
Q 1375 4750 2228 4750 
Q 3075 4750 3515 4442 
Q 3956 4134 3956 3541 
Q 3956 3144 3739 2878 
Q 3522 2613 3097 2484 
Q 3572 2353 3814 2058 
Q 4056 1763 4056 1313 
Q 4056 619 3595 264 
Q 3134 -91 2228 -91 
Q 1319 -91 855 264 
Q 391 619 391 1313 
Q 391 1763 633 2058 
Q 875 2353 1350 2484 
z
M 1631 3419 
Q 1631 3141 1786 2991 
Q 1941 2841 2228 2841 
Q 2509 2841 2662 2991 
Q 2816 3141 2816 3419 
Q 2816 3697 2662 3845 
Q 2509 3994 2228 3994 
Q 1941 3994 1786 3844 
Q 1631 3694 1631 3419 
z
" transform="scale(0.015625)"/>
     </defs>
     <use xlink:href="#DejaVuSans-Bold-35"/>
     <use xlink:href="#DejaVuSans-Bold-2e" x="69.580078"/>
     <use xlink:href="#DejaVuSans-Bold-38" x="107.568359"/>
     <use xlink:href="#DejaVuSans-Bold-35" x="177.148438"/>
    </g>
   </g>
   <g id="text_17">
    <!-- 5.85 -->
    <g style="fill: #f85149" transform="translate(326.568842 277.963897) scale(0.095 -0.095)">
     <use xlink:href="#DejaVuSans-Bold-35"/>
     <use xlink:href="#DejaVuSans-Bold-2e" x="69.580078"/>
     <use xlink:href="#DejaVuSans-Bold-38" x="107.568359"/>
     <use xlink:href="#DejaVuSans-Bold-35" x="177.148438"/>
    </g>
   </g>
   <g id="text_18">
    <!-- 66.25 -->
    <g style="fill: #d29922" transform="translate(456.504584 190.805064) scale(0.095 -0.095)">
     <defs>
      <path id="DejaVuSans-Bold-36" d="M 2316 2303 
Q 2000 2303 1842 2098 
Q 1684 1894 1684 1484 
Q 1684 1075 1842 870 
Q 2000 666 2316 666 
Q 2634 666 2792 870 
Q 2950 1075 2950 1484 
Q 2950 1894 2792 2098 
Q 2634 2303 2316 2303 
z
M 3803 4544 
L 3803 3681 
Q 3506 3822 3243 3889 
Q 2981 3956 2731 3956 
Q 2194 3956 1894 3657 
Q 1594 3359 1544 2772 
Q 1750 2925 1990 3001 
Q 2231 3078 2516 3078 
Q 3231 3078 3670 2659 
Q 4109 2241 4109 1563 
Q 4109 813 3618 361 
Q 3128 -91 2303 -91 
Q 1394 -91 895 523 
Q 397 1138 397 2266 
Q 397 3422 980 4083 
Q 1563 4744 2578 4744 
Q 2900 4744 3203 4694 
Q 3506 4644 3803 4544 
z
" transform="scale(0.015625)"/>
      <path id="DejaVuSans-Bold-32" d="M 1844 884 
L 3897 884 
L 3897 0 
L 506 0 
L 506 884 
L 2209 2388 
Q 2438 2594 2547 2791 
Q 2656 2988 2656 3200 
Q 2656 3528 2436 3728 
Q 2216 3928 1850 3928 
Q 1569 3928 1234 3808 
Q 900 3688 519 3450 
L 519 4475 
Q 925 4609 1322 4679 
Q 1719 4750 2100 4750 
Q 2938 4750 3402 4381 
Q 3866 4013 3866 3353 
Q 3866 2972 3669 2642 
Q 3472 2313 2841 1759 
L 1844 884 
z
" transform="scale(0.015625)"/>
     </defs>
     <use xlink:href="#DejaVuSans-Bold-36"/>
     <use xlink:href="#DejaVuSans-Bold-36" x="69.580078"/>
     <use xlink:href="#DejaVuSans-Bold-2e" x="139.160156"/>
     <use xlink:href="#DejaVuSans-Bold-32" x="177.148438"/>
     <use xlink:href="#DejaVuSans-Bold-35" x="246.728516"/>
    </g>
   </g>
   <g id="text_19">
    <!-- 77.82 -->
    <g style="fill: #bc8cff" transform="translate(589.745286 174.109241) scale(0.095 -0.095)">
     <defs>
      <path id="DejaVuSans-Bold-37" d="M 428 4666 
L 3944 4666 
L 3944 3988 
L 2125 0 
L 953 0 
L 2675 3781 
L 428 3781 
L 428 4666 
z
" transform="scale(0.015625)"/>
     </defs>
     <use xlink:href="#DejaVuSans-Bold-37"/>
     <use xlink:href="#DejaVuSans-Bold-37" x="69.580078"/>
     <use xlink:href="#DejaVuSans-Bold-2e" x="139.160156"/>
     <use xlink:href="#DejaVuSans-Bold-38" x="177.148438"/>
     <use xlink:href="#DejaVuSans-Bold-32" x="246.728516"/>
    </g>
   </g>
   <g id="patch_7">
    <path d="M 675.068995 126.942435 
Q 640.709762 153.521842 607.67701 179.075116 
" style="fill: none; stroke: #bc8cff; stroke-width: 1.5; stroke-linecap: round"/>
    <path d="M 612.064587 178.209571 
L 607.67701 179.075116 
L 609.61712 175.045727 
" style="fill: none; stroke: #bc8cff; stroke-width: 1.5; stroke-linecap: round"/>
   </g>
   <g id="text_20">
    <!-- FUSE -->
    <g style="fill: #bc8cff" transform="translate(644.741599 110.363768) scale(0.1 -0.1)">
     <defs>
      <path id="DejaVuSans-Bold-46" d="M 588 4666 
L 3834 4666 
L 3834 3756 
L 1791 3756 
L 1791 2888 
L 3713 2888 
L 3713 1978 
L 1791 1978 
L 1791 0 
L 588 0 
L 588 4666 
z
" transform="scale(0.015625)"/>
      <path id="DejaVuSans-Bold-55" d="M 588 4666 
L 1791 4666 
L 1791 1869 
Q 1791 1291 1980 1042 
Q 2169 794 2597 794 
Q 3028 794 3217 1042 
Q 3406 1291 3406 1869 
L 3406 4666 
L 4609 4666 
L 4609 1869 
Q 4609 878 4112 393 
Q 3616 -91 2597 -91 
Q 1581 -91 1084 393 
Q 588 878 588 1869 
L 588 4666 
z
" transform="scale(0.015625)"/>
      <path id="DejaVuSans-Bold-53" d="M 3834 4519 
L 3834 3531 
Q 3450 3703 3084 3790 
Q 2719 3878 2394 3878 
Q 1963 3878 1756 3759 
Q 1550 3641 1550 3391 
Q 1550 3203 1689 3098 
Q 1828 2994 2194 2919 
L 2706 2816 
Q 3484 2659 3812 2340 
Q 4141 2022 4141 1434 
Q 4141 663 3683 286 
Q 3225 -91 2284 -91 
Q 1841 -91 1394 -6 
Q 947 78 500 244 
L 500 1259 
Q 947 1022 1364 901 
Q 1781 781 2169 781 
Q 2563 781 2772 912 
Q 2981 1044 2981 1288 
Q 2981 1506 2839 1625 
Q 2697 1744 2272 1838 
L 1806 1941 
Q 1106 2091 782 2419 
Q 459 2747 459 3303 
Q 459 4000 909 4375 
Q 1359 4750 2203 4750 
Q 2588 4750 2994 4692 
Q 3400 4634 3834 4519 
z
" transform="scale(0.015625)"/>
      <path id="DejaVuSans-Bold-45" d="M 588 4666 
L 3834 4666 
L 3834 3756 
L 1791 3756 
L 1791 2888 
L 3713 2888 
L 3713 1978 
L 1791 1978 
L 1791 909 
L 3903 909 
L 3903 0 
L 588 0 
L 588 4666 
z
" transform="scale(0.015625)"/>
     </defs>
     <use xlink:href="#DejaVuSans-Bold-46"/>
     <use xlink:href="#DejaVuSans-Bold-55" x="68.310547"/>
     <use xlink:href="#DejaVuSans-Bold-53" x="149.511719"/>
     <use xlink:href="#DejaVuSans-Bold-45" x="221.533203"/>
    </g>
    <!-- (cycle 2 aborted) -->
    <g style="fill: #bc8cff" transform="translate(644.741599 121.56158) scale(0.1 -0.1)">
     <defs>
      <path id="DejaVuSans-Bold-28" d="M 2413 -844 
L 1484 -844 
Q 1006 -72 778 623 
Q 550 1319 550 2003 
Q 550 2688 779 3389 
Q 1009 4091 1484 4856 
L 2413 4856 
Q 2013 4116 1813 3408 
Q 1613 2700 1613 2009 
Q 1613 1319 1811 609 
Q 2009 -100 2413 -844 
z
" transform="scale(0.015625)"/>
      <path id="DejaVuSans-Bold-63" d="M 3366 3391 
L 3366 2478 
Q 3138 2634 2908 2709 
Q 2678 2784 2431 2784 
Q 1963 2784 1702 2511 
Q 1441 2238 1441 1747 
Q 1441 1256 1702 982 
Q 1963 709 2431 709 
Q 2694 709 2930 787 
Q 3166 866 3366 1019 
L 3366 103 
Q 3103 6 2833 -42 
Q 2563 -91 2291 -91 
Q 1344 -91 809 395 
Q 275 881 275 1747 
Q 275 2613 809 3098 
Q 1344 3584 2291 3584 
Q 2566 3584 2833 3536 
Q 3100 3488 3366 3391 
z
" transform="scale(0.015625)"/>
      <path id="DejaVuSans-Bold-79" d="M 78 3500 
L 1197 3500 
L 2138 1125 
L 2938 3500 
L 4056 3500 
L 2584 -331 
Q 2363 -916 2067 -1148 
Q 1772 -1381 1288 -1381 
L 641 -1381 
L 641 -647 
L 991 -647 
Q 1275 -647 1404 -556 
Q 1534 -466 1606 -231 
L 1638 -134 
L 78 3500 
z
" transform="scale(0.015625)"/>
      <path id="DejaVuSans-Bold-6c" d="M 538 4863 
L 1656 4863 
L 1656 0 
L 538 0 
L 538 4863 
z
" transform="scale(0.015625)"/>
      <path id="DejaVuSans-Bold-65" d="M 4031 1759 
L 4031 1441 
L 1416 1441 
Q 1456 1047 1700 850 
Q 1944 653 2381 653 
Q 2734 653 3104 758 
Q 3475 863 3866 1075 
L 3866 213 
Q 3469 63 3072 -14 
Q 2675 -91 2278 -91 
Q 1328 -91 801 392 
Q 275 875 275 1747 
Q 275 2603 792 3093 
Q 1309 3584 2216 3584 
Q 3041 3584 3536 3087 
Q 4031 2591 4031 1759 
z
M 2881 2131 
Q 2881 2450 2695 2645 
Q 2509 2841 2209 2841 
Q 1884 2841 1681 2658 
Q 1478 2475 1428 2131 
L 2881 2131 
z
" transform="scale(0.015625)"/>
      <path id="DejaVuSans-Bold-20" transform="scale(0.015625)"/>
      <path id="DejaVuSans-Bold-61" d="M 2106 1575 
Q 1756 1575 1579 1456 
Q 1403 1338 1403 1106 
Q 1403 894 1545 773 
Q 1688 653 1941 653 
Q 2256 653 2472 879 
Q 2688 1106 2688 1447 
L 2688 1575 
L 2106 1575 
z
M 3816 1997 
L 3816 0 
L 2688 0 
L 2688 519 
Q 2463 200 2181 54 
Q 1900 -91 1497 -91 
Q 953 -91 614 226 
Q 275 544 275 1050 
Q 275 1666 698 1953 
Q 1122 2241 2028 2241 
L 2688 2241 
L 2688 2328 
Q 2688 2594 2478 2717 
Q 2269 2841 1825 2841 
Q 1466 2841 1156 2769 
Q 847 2697 581 2553 
L 581 3406 
Q 941 3494 1303 3539 
Q 1666 3584 2028 3584 
Q 2975 3584 3395 3211 
Q 3816 2838 3816 1997 
z
" transform="scale(0.015625)"/>
      <path id="DejaVuSans-Bold-62" d="M 2400 722 
Q 2759 722 2948 984 
Q 3138 1247 3138 1747 
Q 3138 2247 2948 2509 
Q 2759 2772 2400 2772 
Q 2041 2772 1848 2508 
Q 1656 2244 1656 1747 
Q 1656 1250 1848 986 
Q 2041 722 2400 722 
z
M 1656 2988 
Q 1888 3294 2169 3439 
Q 2450 3584 2816 3584 
Q 3463 3584 3878 3070 
Q 4294 2556 4294 1747 
Q 4294 938 3878 423 
Q 3463 -91 2816 -91 
Q 2450 -91 2169 54 
Q 1888 200 1656 506 
L 1656 0 
L 538 0 
L 538 4863 
L 1656 4863 
L 1656 2988 
z
" transform="scale(0.015625)"/>
      <path id="DejaVuSans-Bold-6f" d="M 2203 2784 
Q 1831 2784 1636 2517 
Q 1441 2250 1441 1747 
Q 1441 1244 1636 976 
Q 1831 709 2203 709 
Q 2569 709 2762 976 
Q 2956 1244 2956 1747 
Q 2956 2250 2762 2517 
Q 2569 2784 2203 2784 
z
M 2203 3584 
Q 3106 3584 3614 3096 
Q 4122 2609 4122 1747 
Q 4122 884 3614 396 
Q 3106 -91 2203 -91 
Q 1297 -91 786 396 
Q 275 884 275 1747 
Q 275 2609 786 3096 
Q 1297 3584 2203 3584 
z
" transform="scale(0.015625)"/>
      <path id="DejaVuSans-Bold-72" d="M 3138 2547 
Q 2991 2616 2845 2648 
Q 2700 2681 2553 2681 
Q 2122 2681 1889 2404 
Q 1656 2128 1656 1613 
L 1656 0 
L 538 0 
L 538 3500 
L 1656 3500 
L 1656 2925 
Q 1872 3269 2151 3426 
Q 2431 3584 2822 3584 
Q 2878 3584 2943 3579 
Q 3009 3575 3134 3559 
L 3138 2547 
z
" transform="scale(0.015625)"/>
      <path id="DejaVuSans-Bold-74" d="M 1759 4494 
L 1759 3500 
L 2913 3500 
L 2913 2700 
L 1759 2700 
L 1759 1216 
Q 1759 972 1856 886 
Q 1953 800 2241 800 
L 2816 800 
L 2816 0 
L 1856 0 
Q 1194 0 917 276 
Q 641 553 641 1216 
L 641 2700 
L 84 2700 
L 84 3500 
L 641 3500 
L 641 4494 
L 1759 4494 
z
" transform="scale(0.015625)"/>
      <path id="DejaVuSans-Bold-64" d="M 2919 2988 
L 2919 4863 
L 4044 4863 
L 4044 0 
L 2919 0 
L 2919 506 
Q 2688 197 2409 53 
Q 2131 -91 1766 -91 
Q 1119 -91 703 423 
Q 288 938 288 1747 
Q 288 2556 703 3070 
Q 1119 3584 1766 3584 
Q 2128 3584 2408 3439 
Q 2688 3294 2919 2988 
z
M 2181 722 
Q 2541 722 2730 984 
Q 2919 1247 2919 1747 
Q 2919 2247 2730 2509 
Q 2541 2772 2181 2772 
Q 1825 2772 1636 2509 
Q 1447 2247 1447 1747 
Q 1447 1247 1636 984 
Q 1825 722 2181 722 
z
" transform="scale(0.015625)"/>
      <path id="DejaVuSans-Bold-29" d="M 513 -844 
Q 913 -100 1113 609 
Q 1313 1319 1313 2009 
Q 1313 2700 1113 3408 
Q 913 4116 513 4856 
L 1441 4856 
Q 1916 4091 2145 3389 
Q 2375 2688 2375 2003 
Q 2375 1319 2147 623 
Q 1919 -72 1441 -844 
L 513 -844 
z
" transform="scale(0.015625)"/>
     </defs>
     <use xlink:href="#DejaVuSans-Bold-28"/>
     <use xlink:href="#DejaVuSans-Bold-63" x="45.703125"/>
     <use xlink:href="#DejaVuSans-Bold-79" x="104.980469"/>
     <use xlink:href="#DejaVuSans-Bold-63" x="170.166016"/>
     <use xlink:href="#DejaVuSans-Bold-6c" x="229.443359"/>
     <use xlink:href="#DejaVuSans-Bold-65" x="263.720703"/>
     <use xlink:href="#DejaVuSans-Bold-20" x="331.542969"/>
     <use xlink:href="#DejaVuSans-Bold-32" x="366.357422"/>
     <use xlink:href="#DejaVuSans-Bold-20" x="435.9375"/>
     <use xlink:href="#DejaVuSans-Bold-61" x="470.751953"/>
     <use xlink:href="#DejaVuSans-Bold-62" x="538.232422"/>
     <use xlink:href="#DejaVuSans-Bold-6f" x="609.814453"/>
     <use xlink:href="#DejaVuSans-Bold-72" x="678.515625"/>
     <use xlink:href="#DejaVuSans-Bold-74" x="727.832031"/>
     <use xlink:href="#DejaVuSans-Bold-65" x="775.634766"/>
     <use xlink:href="#DejaVuSans-Bold-64" x="843.457031"/>
     <use xlink:href="#DejaVuSans-Bold-29" x="915.039062"/>
    </g>
   </g>
   <g id="text_21">
    <!-- DHC Nusselt-number evolution across 5 measurement stages -->
    <g style="fill: #e6e8eb" transform="translate(168.558842 15.558281) scale(0.11 -0.11)">
     <defs>
      <path id="DejaVuSans-44" d="M 1259 4147 
L 1259 519 
L 2022 519 
Q 2988 519 3436 956 
Q 3884 1394 3884 2338 
Q 3884 3275 3436 3711 
Q 2988 4147 2022 4147 
L 1259 4147 
z
M 628 4666 
L 1925 4666 
Q 3281 4666 3915 4102 
Q 4550 3538 4550 2338 
Q 4550 1131 3912 565 
Q 3275 0 1925 0 
L 628 0 
L 628 4666 
z
" transform="scale(0.015625)"/>
      <path id="DejaVuSans-48" d="M 628 4666 
L 1259 4666 
L 1259 2753 
L 3553 2753 
L 3553 4666 
L 4184 4666 
L 4184 0 
L 3553 0 
L 3553 2222 
L 1259 2222 
L 1259 0 
L 628 0 
L 628 4666 
z
" transform="scale(0.015625)"/>
      <path id="DejaVuSans-43" d="M 4122 4306 
L 4122 3641 
Q 3803 3938 3442 4084 
Q 3081 4231 2675 4231 
Q 1875 4231 1450 3742 
Q 1025 3253 1025 2328 
Q 1025 1406 1450 917 
Q 1875 428 2675 428 
Q 3081 428 3442 575 
Q 3803 722 4122 1019 
L 4122 359 
Q 3791 134 3420 21 
Q 3050 -91 2638 -91 
Q 1578 -91 968 557 
Q 359 1206 359 2328 
Q 359 3453 968 4101 
Q 1578 4750 2638 4750 
Q 3056 4750 3426 4639 
Q 3797 4528 4122 4306 
z
" transform="scale(0.015625)"/>
      <path id="DejaVuSans-62" d="M 3116 1747 
Q 3116 2381 2855 2742 
Q 2594 3103 2138 3103 
Q 1681 3103 1420 2742 
Q 1159 2381 1159 1747 
Q 1159 1113 1420 752 
Q 1681 391 2138 391 
Q 2594 391 2855 752 
Q 3116 1113 3116 1747 
z
M 1159 2969 
Q 1341 3281 1617 3432 
Q 1894 3584 2278 3584 
Q 2916 3584 3314 3078 
Q 3713 2572 3713 1747 
Q 3713 922 3314 415 
Q 2916 -91 2278 -91 
Q 1894 -91 1617 61 
Q 1341 213 1159 525 
L 1159 0 
L 581 0 
L 581 4863 
L 1159 4863 
L 1159 2969 
z
" transform="scale(0.015625)"/>
     </defs>
     <use xlink:href="#DejaVuSans-44"/>
     <use xlink:href="#DejaVuSans-48" x="77.001953"/>
     <use xlink:href="#DejaVuSans-43" x="152.197266"/>
     <use xlink:href="#DejaVuSans-20" x="222.021484"/>
     <use xlink:href="#DejaVuSans-4e" x="253.808594"/>
     <use xlink:href="#DejaVuSans-75" x="328.613281"/>
     <use xlink:href="#DejaVuSans-73" x="391.992188"/>
     <use xlink:href="#DejaVuSans-73" x="444.091797"/>
     <use xlink:href="#DejaVuSans-65" x="496.191406"/>
     <use xlink:href="#DejaVuSans-6c" x="557.714844"/>
     <use xlink:href="#DejaVuSans-74" x="585.498047"/>
     <use xlink:href="#DejaVuSans-2d" x="624.707031"/>
     <use xlink:href="#DejaVuSans-6e" x="660.791016"/>
     <use xlink:href="#DejaVuSans-75" x="724.169922"/>
     <use xlink:href="#DejaVuSans-6d" x="787.548828"/>
     <use xlink:href="#DejaVuSans-62" x="884.960938"/>
     <use xlink:href="#DejaVuSans-65" x="948.4375"/>
     <use xlink:href="#DejaVuSans-72" x="1009.960938"/>
     <use xlink:href="#DejaVuSans-20" x="1051.074219"/>
     <use xlink:href="#DejaVuSans-65" x="1082.861328"/>
     <use xlink:href="#DejaVuSans-76" x="1144.384766"/>
     <use xlink:href="#DejaVuSans-6f" x="1203.564453"/>
     <use xlink:href="#DejaVuSans-6c" x="1264.746094"/>
     <use xlink:href="#DejaVuSans-75" x="1292.529297"/>
     <use xlink:href="#DejaVuSans-74" x="1355.908203"/>
     <use xlink:href="#DejaVuSans-69" x="1395.117188"/>
     <use xlink:href="#DejaVuSans-6f" x="1422.900391"/>
     <use xlink:href="#DejaVuSans-6e" x="1484.082031"/>
     <use xlink:href="#DejaVuSans-20" x="1547.460938"/>
     <use xlink:href="#DejaVuSans-61" x="1579.248047"/>
     <use xlink:href="#DejaVuSans-63" x="1640.527344"/>
     <use xlink:href="#DejaVuSans-72" x="1695.507812"/>
     <use xlink:href="#DejaVuSans-6f" x="1734.371094"/>
     <use xlink:href="#DejaVuSans-73" x="1795.552734"/>
     <use xlink:href="#DejaVuSans-73" x="1847.652344"/>
     <use xlink:href="#DejaVuSans-20" x="1899.751953"/>
     <use xlink:href="#DejaVuSans-35" x="1931.539062"/>
     <use xlink:href="#DejaVuSans-20" x="1995.162109"/>
     <use xlink:href="#DejaVuSans-6d" x="2026.949219"/>
     <use xlink:href="#DejaVuSans-65" x="2124.361328"/>
     <use xlink:href="#DejaVuSans-61" x="2185.884766"/>
     <use xlink:href="#DejaVuSans-73" x="2247.164062"/>
     <use xlink:href="#DejaVuSans-75" x="2299.263672"/>
     <use xlink:href="#DejaVuSans-72" x="2362.642578"/>
     <use xlink:href="#DejaVuSans-65" x="2401.505859"/>
     <use xlink:href="#DejaVuSans-6d" x="2463.029297"/>
     <use xlink:href="#DejaVuSans-65" x="2560.441406"/>
     <use xlink:href="#DejaVuSans-6e" x="2621.964844"/>
     <use xlink:href="#DejaVuSans-74" x="2685.34375"/>
     <use xlink:href="#DejaVuSans-20" x="2724.552734"/>
     <use xlink:href="#DejaVuSans-73" x="2756.339844"/>
     <use xlink:href="#DejaVuSans-74" x="2808.439453"/>
     <use xlink:href="#DejaVuSans-61" x="2847.648438"/>
     <use xlink:href="#DejaVuSans-67" x="2908.927734"/>
     <use xlink:href="#DejaVuSans-65" x="2972.404297"/>
     <use xlink:href="#DejaVuSans-73" x="3033.927734"/>
    </g>
    <!-- sources: DEC-ADWM-004 FUSE record + ex1_007 measurement_result.yaml -->
    <g style="fill: #e6e8eb" transform="translate(129.190014 27.875875) scale(0.11 -0.11)">
     <defs>
      <path id="DejaVuSans-3a" d="M 750 794 
L 1409 794 
L 1409 0 
L 750 0 
L 750 794 
z
M 750 3309 
L 1409 3309 
L 1409 2516 
L 750 2516 
L 750 3309 
z
" transform="scale(0.015625)"/>
      <path id="DejaVuSans-41" d="M 2188 4044 
L 1331 1722 
L 3047 1722 
L 2188 4044 
z
M 1831 4666 
L 2547 4666 
L 4325 0 
L 3669 0 
L 3244 1197 
L 1141 1197 
L 716 0 
L 50 0 
L 1831 4666 
z
" transform="scale(0.015625)"/>
      <path id="DejaVuSans-57" d="M 213 4666 
L 850 4666 
L 1831 722 
L 2809 4666 
L 3519 4666 
L 4500 722 
L 5478 4666 
L 6119 4666 
L 4947 0 
L 4153 0 
L 3169 4050 
L 2175 0 
L 1381 0 
L 213 4666 
z
" transform="scale(0.015625)"/>
      <path id="DejaVuSans-4d" d="M 628 4666 
L 1569 4666 
L 2759 1491 
L 3956 4666 
L 4897 4666 
L 4897 0 
L 4281 0 
L 4281 4097 
L 3078 897 
L 2444 897 
L 1241 4097 
L 1241 0 
L 628 0 
L 628 4666 
z
" transform="scale(0.015625)"/>
      <path id="DejaVuSans-53" d="M 3425 4513 
L 3425 3897 
Q 3066 4069 2747 4153 
Q 2428 4238 2131 4238 
Q 1616 4238 1336 4038 
Q 1056 3838 1056 3469 
Q 1056 3159 1242 3001 
Q 1428 2844 1947 2747 
L 2328 2669 
Q 3034 2534 3370 2195 
Q 3706 1856 3706 1288 
Q 3706 609 3251 259 
Q 2797 -91 1919 -91 
Q 1588 -91 1214 -16 
Q 841 59 441 206 
L 441 856 
Q 825 641 1194 531 
Q 1563 422 1919 422 
Q 2459 422 2753 634 
Q 3047 847 3047 1241 
Q 3047 1584 2836 1778 
Q 2625 1972 2144 2069 
L 1759 2144 
Q 1053 2284 737 2584 
Q 422 2884 422 3419 
Q 422 4038 858 4394 
Q 1294 4750 2059 4750 
Q 2388 4750 2728 4690 
Q 3069 4631 3425 4513 
z
" transform="scale(0.015625)"/>
      <path id="DejaVuSans-2b" d="M 2944 4013 
L 2944 2272 
L 4684 2272 
L 4684 1741 
L 2944 1741 
L 2944 0 
L 2419 0 
L 2419 1741 
L 678 1741 
L 678 2272 
L 2419 2272 
L 2419 4013 
L 2944 4013 
z
" transform="scale(0.015625)"/>
      <path id="DejaVuSans-2e" d="M 684 794 
L 1344 794 
L 1344 0 
L 684 0 
L 684 794 
z
" transform="scale(0.015625)"/>
     </defs>
     <use xlink:href="#DejaVuSans-73"/>
     <use xlink:href="#DejaVuSans-6f" x="52.099609"/>
     <use xlink:href="#DejaVuSans-75" x="113.28125"/>
     <use xlink:href="#DejaVuSans-72" x="176.660156"/>
     <use xlink:href="#DejaVuSans-63" x="215.523438"/>
     <use xlink:href="#DejaVuSans-65" x="270.503906"/>
     <use xlink:href="#DejaVuSans-73" x="332.027344"/>
     <use xlink:href="#DejaVuSans-3a" x="384.126953"/>
     <use xlink:href="#DejaVuSans-20" x="417.818359"/>
     <use xlink:href="#DejaVuSans-44" x="449.605469"/>
     <use xlink:href="#DejaVuSans-45" x="526.607422"/>
     <use xlink:href="#DejaVuSans-43" x="589.791016"/>
     <use xlink:href="#DejaVuSans-2d" x="659.615234"/>
     <use xlink:href="#DejaVuSans-41" x="693.449219"/>
     <use xlink:href="#DejaVuSans-44" x="761.857422"/>
     <use xlink:href="#DejaVuSans-57" x="838.859375"/>
     <use xlink:href="#DejaVuSans-4d" x="937.736328"/>
     <use xlink:href="#DejaVuSans-2d" x="1024.015625"/>
     <use xlink:href="#DejaVuSans-30" x="1060.099609"/>
     <use xlink:href="#DejaVuSans-30" x="1123.722656"/>
     <use xlink:href="#DejaVuSans-34" x="1187.345703"/>
     <use xlink:href="#DejaVuSans-20" x="1250.96875"/>
     <use xlink:href="#DejaVuSans-46" x="1282.755859"/>
     <use xlink:href="#DejaVuSans-55" x="1340.275391"/>
     <use xlink:href="#DejaVuSans-53" x="1413.46875"/>
     <use xlink:href="#DejaVuSans-45" x="1476.945312"/>
     <use xlink:href="#DejaVuSans-20" x="1540.128906"/>
     <use xlink:href="#DejaVuSans-72" x="1571.916016"/>
     <use xlink:href="#DejaVuSans-65" x="1610.779297"/>
     <use xlink:href="#DejaVuSans-63" x="1672.302734"/>
     <use xlink:href="#DejaVuSans-6f" x="1727.283203"/>
     <use xlink:href="#DejaVuSans-72" x="1788.464844"/>
     <use xlink:href="#DejaVuSans-64" x="1827.828125"/>
     <use xlink:href="#DejaVuSans-20" x="1891.304688"/>
     <use xlink:href="#DejaVuSans-2b" x="1923.091797"/>
     <use xlink:href="#DejaVuSans-20" x="2006.880859"/>
     <use xlink:href="#DejaVuSans-65" x="2038.667969"/>
     <use xlink:href="#DejaVuSans-78" x="2098.441406"/>
     <use xlink:href="#DejaVuSans-31" x="2157.621094"/>
     <use xlink:href="#DejaVuSans-5f" x="2221.244141"/>
     <use xlink:href="#DejaVuSans-30" x="2271.244141"/>
     <use xlink:href="#DejaVuSans-30" x="2334.867188"/>
     <use xlink:href="#DejaVuSans-37" x="2398.490234"/>
     <use xlink:href="#DejaVuSans-20" x="2462.113281"/>
     <use xlink:href="#DejaVuSans-6d" x="2493.900391"/>
     <use xlink:href="#DejaVuSans-65" x="2591.3125"/>
     <use xlink:href="#DejaVuSans-61" x="2652.835938"/>
     <use xlink:href="#DejaVuSans-73" x="2714.115234"/>
     <use xlink:href="#DejaVuSans-75" x="2766.214844"/>
     <use xlink:href="#DejaVuSans-72" x="2829.59375"/>
     <use xlink:href="#DejaVuSans-65" x="2868.457031"/>
     <use xlink:href="#DejaVuSans-6d" x="2929.980469"/>
     <use xlink:href="#DejaVuSans-65" x="3027.392578"/>
     <use xlink:href="#DejaVuSans-6e" x="3088.916016"/>
     <use xlink:href="#DejaVuSans-74" x="3152.294922"/>
     <use xlink:href="#DejaVuSans-5f" x="3191.503906"/>
     <use xlink:href="#DejaVuSans-72" x="3241.503906"/>
     <use xlink:href="#DejaVuSans-65" x="3280.367188"/>
     <use xlink:href="#DejaVuSans-73" x="3341.890625"/>
     <use xlink:href="#DejaVuSans-75" x="3393.990234"/>
     <use xlink:href="#DejaVuSans-6c" x="3457.369141"/>
     <use xlink:href="#DejaVuSans-74" x="3485.152344"/>
     <use xlink:href="#DejaVuSans-2e" x="3524.361328"/>
     <use xlink:href="#DejaVuSans-79" x="3556.148438"/>
     <use xlink:href="#DejaVuSans-61" x="3615.328125"/>
     <use xlink:href="#DejaVuSans-6d" x="3676.607422"/>
     <use xlink:href="#DejaVuSans-6c" x="3774.019531"/>
    </g>
   </g>
   <g id="PathCollection_1">
    <defs>
     <path id="mf9c16fec73" d="M 0 7.745967 
C 2.054254 7.745967 4.024648 6.929803 5.477226 5.477226 
C 6.929803 4.024648 7.745967 2.054254 7.745967 0 
C 7.745967 -2.054254 6.929803 -4.024648 5.477226 -5.477226 
C 4.024648 -6.929803 2.054254 -7.745967 0 -7.745967 
C -2.054254 -7.745967 -4.024648 -6.929803 -5.477226 -5.477226 
C -6.929803 -4.024648 -7.745967 -2.054254 -7.745967 0 
C -7.745967 2.054254 -6.929803 4.024648 -5.477226 5.477226 
C -4.024648 6.929803 -2.054254 7.745967 0 7.745967 
z
" style="stroke: #e6e8eb; stroke-width: 1.5"/>
    </defs>
    <g clip-path="url(#pb7cc4a1b9e)">
     <use xlink:href="#mf9c16fec73" x="71.806578" y="289.291659" style="fill: #f85149; stroke: #e6e8eb; stroke-width: 1.5"/>
    </g>
   </g>
   <g id="PathCollection_2">
    <g clip-path="url(#pb7cc4a1b9e)">
     <use xlink:href="#mf9c16fec73" x="205.04728" y="285.179032" style="fill: #f85149; stroke: #e6e8eb; stroke-width: 1.5"/>
    </g>
   </g>
   <g id="PathCollection_3">
    <g clip-path="url(#pb7cc4a1b9e)">
     <use xlink:href="#mf9c16fec73" x="338.287983" y="285.179032" style="fill: #f85149; stroke: #e6e8eb; stroke-width: 1.5"/>
    </g>
   </g>
   <g id="PathCollection_4">
    <defs>
     <path id="m6559d8e0b9" d="M 0 7.745967 
C 2.054254 7.745967 4.024648 6.929803 5.477226 5.477226 
C 6.929803 4.024648 7.745967 2.054254 7.745967 0 
C 7.745967 -2.054254 6.929803 -4.024648 5.477226 -5.477226 
C 4.024648 -6.929803 2.054254 -7.745967 0 -7.745967 
C -2.054254 -7.745967 -4.024648 -6.929803 -5.477226 -5.477226 
C -6.929803 -4.024648 -7.745967 -2.054254 -7.745967 0 
C -7.745967 2.054254 -6.929803 4.024648 -5.477226 5.477226 
C -4.024648 6.929803 -2.054254 7.745967 0 7.745967 
z
" style="stroke: #e6e8eb; stroke-width: 1.5"/>
    </defs>
    <g clip-path="url(#pb7cc4a1b9e)">
     <use xlink:href="#m6559d8e0b9" x="471.528685" y="198.020199" style="fill: #d29922; stroke: #e6e8eb; stroke-width: 1.5"/>
    </g>
   </g>
   <g id="PathCollection_5">
    <defs>
     <path id="mea58cd3852" d="M 0 7.745967 
C 2.054254 7.745967 4.024648 6.929803 5.477226 5.477226 
C 6.929803 4.024648 7.745967 2.054254 7.745967 0 
C 7.745967 -2.054254 6.929803 -4.024648 5.477226 -5.477226 
C 4.024648 -6.929803 2.054254 -7.745967 0 -7.745967 
C -2.054254 -7.745967 -4.024648 -6.929803 -5.477226 -5.477226 
C -6.929803 -4.024648 -7.745967 -2.054254 -7.745967 0 
C -7.745967 2.054254 -6.929803 4.024648 -5.477226 5.477226 
C -4.024648 6.929803 -2.054254 7.745967 0 7.745967 
z
" style="stroke: #e6e8eb; stroke-width: 1.5"/>
    </defs>
    <g clip-path="url(#pb7cc4a1b9e)">
     <use xlink:href="#mea58cd3852" x="604.769388" y="181.324377" style="fill: #bc8cff; stroke: #e6e8eb; stroke-width: 1.5"/>
    </g>
   </g>
   <g id="legend_1">
    <g id="patch_8">
     <path d="M 51.108438 78.3415 
L 232.018984 78.3415 
Q 233.718984 78.3415 233.718984 76.6415 
L 233.718984 39.825875 
Q 233.718984 38.125875 232.018984 38.125875 
L 51.108438 38.125875 
Q 49.408438 38.125875 49.408438 39.825875 
L 49.408438 76.6415 
Q 49.408438 78.3415 51.108438 78.3415 
z
" style="fill: #181d24; opacity: 0.9; stroke: #6b7580; stroke-linejoin: miter"/>
    </g>
    <g id="patch_9">
     <path d="M 52.808438 47.984547 
L 69.808437 47.984547 
L 69.808437 42.034547 
L 52.808438 42.034547 
z
" style="fill: #3fb950; opacity: 0.12; stroke: #3fb950; stroke-linejoin: miter"/>
    </g>
    <g id="text_22">
     <!-- gold tolerance band (30 ± 15%) -->
     <g style="fill: #e6e8eb" transform="translate(76.608438 47.984547) scale(0.085 -0.085)">
      <defs>
       <path id="DejaVuSans-28" d="M 1984 4856 
Q 1566 4138 1362 3434 
Q 1159 2731 1159 2009 
Q 1159 1288 1364 580 
Q 1569 -128 1984 -844 
L 1484 -844 
Q 1016 -109 783 600 
Q 550 1309 550 2009 
Q 550 2706 781 3412 
Q 1013 4119 1484 4856 
L 1984 4856 
z
" transform="scale(0.015625)"/>
       <path id="DejaVuSans-b1" d="M 2944 4013 
L 2944 2803 
L 4684 2803 
L 4684 2272 
L 2944 2272 
L 2944 1063 
L 2419 1063 
L 2419 2272 
L 678 2272 
L 678 2803 
L 2419 2803 
L 2419 4013 
L 2944 4013 
z
M 678 531 
L 4684 531 
L 4684 0 
L 678 0 
L 678 531 
z
" transform="scale(0.015625)"/>
       <path id="DejaVuSans-25" d="M 4653 2053 
Q 4381 2053 4226 1822 
Q 4072 1591 4072 1178 
Q 4072 772 4226 539 
Q 4381 306 4653 306 
Q 4919 306 5073 539 
Q 5228 772 5228 1178 
Q 5228 1588 5073 1820 
Q 4919 2053 4653 2053 
z
M 4653 2450 
Q 5147 2450 5437 2106 
Q 5728 1763 5728 1178 
Q 5728 594 5436 251 
Q 5144 -91 4653 -91 
Q 4153 -91 3862 251 
Q 3572 594 3572 1178 
Q 3572 1766 3864 2108 
Q 4156 2450 4653 2450 
z
M 1428 4353 
Q 1159 4353 1004 4120 
Q 850 3888 850 3481 
Q 850 3069 1003 2837 
Q 1156 2606 1428 2606 
Q 1700 2606 1854 2837 
Q 2009 3069 2009 3481 
Q 2009 3884 1853 4118 
Q 1697 4353 1428 4353 
z
M 4250 4750 
L 4750 4750 
L 1831 -91 
L 1331 -91 
L 4250 4750 
z
M 1428 4750 
Q 1922 4750 2215 4408 
Q 2509 4066 2509 3481 
Q 2509 2891 2217 2550 
Q 1925 2209 1428 2209 
Q 931 2209 642 2551 
Q 353 2894 353 3481 
Q 353 4063 643 4406 
Q 934 4750 1428 4750 
z
" transform="scale(0.015625)"/>
       <path id="DejaVuSans-29" d="M 513 4856 
L 1013 4856 
Q 1481 4119 1714 3412 
Q 1947 2706 1947 2009 
Q 1947 1309 1714 600 
Q 1481 -109 1013 -844 
L 513 -844 
Q 928 -128 1133 580 
Q 1338 1288 1338 2009 
Q 1338 2731 1133 3434 
Q 928 4138 513 4856 
z
" transform="scale(0.015625)"/>
      </defs>
      <use xlink:href="#DejaVuSans-67"/>
      <use xlink:href="#DejaVuSans-6f" x="63.476562"/>
      <use xlink:href="#DejaVuSans-6c" x="124.658203"/>
      <use xlink:href="#DejaVuSans-64" x="152.441406"/>
      <use xlink:href="#DejaVuSans-20" x="215.917969"/>
      <use xlink:href="#DejaVuSans-74" x="247.705078"/>
      <use xlink:href="#DejaVuSans-6f" x="286.914062"/>
      <use xlink:href="#DejaVuSans-6c" x="348.095703"/>
      <use xlink:href="#DejaVuSans-65" x="375.878906"/>
      <use xlink:href="#DejaVuSans-72" x="437.402344"/>
      <use xlink:href="#DejaVuSans-61" x="478.515625"/>
      <use xlink:href="#DejaVuSans-6e" x="539.794922"/>
      <use xlink:href="#DejaVuSans-63" x="603.173828"/>
      <use xlink:href="#DejaVuSans-65" x="658.154297"/>
      <use xlink:href="#DejaVuSans-20" x="719.677734"/>
      <use xlink:href="#DejaVuSans-62" x="751.464844"/>
      <use xlink:href="#DejaVuSans-61" x="814.941406"/>
      <use xlink:href="#DejaVuSans-6e" x="876.220703"/>
      <use xlink:href="#DejaVuSans-64" x="939.599609"/>
      <use xlink:href="#DejaVuSans-20" x="1003.076172"/>
      <use xlink:href="#DejaVuSans-28" x="1034.863281"/>
      <use xlink:href="#DejaVuSans-33" x="1073.876953"/>
      <use xlink:href="#DejaVuSans-30" x="1137.5"/>
      <use xlink:href="#DejaVuSans-20" x="1201.123047"/>
      <use xlink:href="#DejaVuSans-b1" x="1232.910156"/>
      <use xlink:href="#DejaVuSans-20" x="1316.699219"/>
      <use xlink:href="#DejaVuSans-31" x="1348.486328"/>
      <use xlink:href="#DejaVuSans-35" x="1412.109375"/>
      <use xlink:href="#DejaVuSans-25" x="1475.732422"/>
      <use xlink:href="#DejaVuSans-29" x="1570.751953"/>
     </g>
    </g>
    <g id="line2d_24">
     <path d="M 52.808438 57.485953 
L 61.308438 57.485953 
L 69.808437 57.485953 
" style="fill: none; stroke: #3fb950; stroke-width: 1.5; stroke-linecap: square"/>
    </g>
    <g id="text_23">
     <!-- gold ref_value = 30.0 -->
     <g style="fill: #e6e8eb" transform="translate(76.608438 60.460953) scale(0.085 -0.085)">
      <use xlink:href="#DejaVuSans-67"/>
      <use xlink:href="#DejaVuSans-6f" x="63.476562"/>
      <use xlink:href="#DejaVuSans-6c" x="124.658203"/>
      <use xlink:href="#DejaVuSans-64" x="152.441406"/>
      <use xlink:href="#DejaVuSans-20" x="215.917969"/>
      <use xlink:href="#DejaVuSans-72" x="247.705078"/>
      <use xlink:href="#DejaVuSans-65" x="286.568359"/>
      <use xlink:href="#DejaVuSans-66" x="348.091797"/>
      <use xlink:href="#DejaVuSans-5f" x="383.296875"/>
      <use xlink:href="#DejaVuSans-76" x="433.296875"/>
      <use xlink:href="#DejaVuSans-61" x="492.476562"/>
      <use xlink:href="#DejaVuSans-6c" x="553.755859"/>
      <use xlink:href="#DejaVuSans-75" x="581.539062"/>
      <use xlink:href="#DejaVuSans-65" x="644.917969"/>
      <use xlink:href="#DejaVuSans-20" x="706.441406"/>
      <use xlink:href="#DejaVuSans-3d" x="738.228516"/>
      <use xlink:href="#DejaVuSans-20" x="822.017578"/>
      <use xlink:href="#DejaVuSans-33" x="853.804688"/>
      <use xlink:href="#DejaVuSans-30" x="917.427734"/>
      <use xlink:href="#DejaVuSans-2e" x="981.050781"/>
      <use xlink:href="#DejaVuSans-30" x="1012.837891"/>
     </g>
    </g>
    <g id="patch_10">
     <path d="M 52.808438 73.173766 
L 69.808437 73.173766 
L 69.808437 67.223766 
L 52.808438 67.223766 
z
" style="fill: #bc8cff; opacity: 0.1; stroke: #bc8cff; stroke-linejoin: miter"/>
    </g>
    <g id="text_24">
     <!-- literature Ra=1e10 range (100-160) -->
     <g style="fill: #e6e8eb" transform="translate(76.608438 73.173766) scale(0.085 -0.085)">
      <use xlink:href="#DejaVuSans-6c"/>
      <use xlink:href="#DejaVuSans-69" x="27.783203"/>
      <use xlink:href="#DejaVuSans-74" x="55.566406"/>
      <use xlink:href="#DejaVuSans-65" x="94.775391"/>
      <use xlink:href="#DejaVuSans-72" x="156.298828"/>
      <use xlink:href="#DejaVuSans-61" x="197.412109"/>
      <use xlink:href="#DejaVuSans-74" x="258.691406"/>
      <use xlink:href="#DejaVuSans-75" x="297.900391"/>
      <use xlink:href="#DejaVuSans-72" x="361.279297"/>
      <use xlink:href="#DejaVuSans-65" x="400.142578"/>
      <use xlink:href="#DejaVuSans-20" x="461.666016"/>
      <use xlink:href="#DejaVuSans-52" x="493.453125"/>
      <use xlink:href="#DejaVuSans-61" x="560.685547"/>
      <use xlink:href="#DejaVuSans-3d" x="621.964844"/>
      <use xlink:href="#DejaVuSans-31" x="705.753906"/>
      <use xlink:href="#DejaVuSans-65" x="769.376953"/>
      <use xlink:href="#DejaVuSans-31" x="830.900391"/>
      <use xlink:href="#DejaVuSans-30" x="894.523438"/>
      <use xlink:href="#DejaVuSans-20" x="958.146484"/>
      <use xlink:href="#DejaVuSans-72" x="989.933594"/>
      <use xlink:href="#DejaVuSans-61" x="1031.046875"/>
      <use xlink:href="#DejaVuSans-6e" x="1092.326172"/>
      <use xlink:href="#DejaVuSans-67" x="1155.705078"/>
      <use xlink:href="#DejaVuSans-65" x="1219.181641"/>
      <use xlink:href="#DejaVuSans-20" x="1280.705078"/>
      <use xlink:href="#DejaVuSans-28" x="1312.492188"/>
      <use xlink:href="#DejaVuSans-31" x="1351.505859"/>
      <use xlink:href="#DejaVuSans-30" x="1415.128906"/>
      <use xlink:href="#DejaVuSans-30" x="1478.751953"/>
      <use xlink:href="#DejaVuSans-2d" x="1542.375"/>
      <use xlink:href="#DejaVuSans-31" x="1578.458984"/>
      <use xlink:href="#DejaVuSans-36" x="1642.082031"/>
      <use xlink:href="#DejaVuSans-30" x="1705.705078"/>
      <use xlink:href="#DejaVuSans-29" x="1769.328125"/>
     </g>
    </g>
   </g>
  </g>
 </g>
 <defs>
  <clipPath id="pb7cc4a1b9e">
   <rect x="45.158438" y="33.875875" width="586.259091" height="266.96"/>
  </clipPath>
 </defs>
</svg>
