solid inlet
facet normal 0.8197131663174275 0.4925333605385309 0.2923717047227369
outer loop
vertex 0.18136756474522156 0.12493102665828769 0.03351186411547519
vertex 0.14704655985469645 0.16874238867430408 0.05593134630410097
vertex 0.14498522354392135 0.1355950139946823 0.11755116815115478
endloop
endfacet
facet normal 0.8197131663174274 0.4925333605385308 0.2923717047227368
outer loop
vertex 0.18136756474522156 0.12493102665828769 0.03351186411547519
vertex 0.14498522354392135 0.1355950139946823 0.11755116815115478
vertex 0.17930622843444646 0.0917836519786659 0.095131685962529
endloop
endfacet
endsolid inlet
solid outlet
facet normal -0.5720167481754185 0.7301893669336063 0.37365803647709644
outer loop
vertex -0.05274955653714217 0.1775597750201719 0.05399083792571465
vertex -0.1019323465161878 0.14800777338786006 0.03644853564235044
vertex -0.10399368282696289 0.11486039870823825 0.09806835748940425
endloop
endfacet
facet normal -0.5720167481754186 0.7301893669336064 0.37365803647709633
outer loop
vertex -0.05274955653714217 0.1775597750201719 0.05399083792571465
vertex -0.10399368282696289 0.11486039870823825 0.09806835748940425
vertex -0.05481089284791725 0.1444124003405501 0.11561065977276845
endloop
endfacet
endsolid outlet
solid walls
facet normal -0.029447661582501193 -0.47353392399459693 0.8802831692436256
outer loop
vertex -0.001030668155387542 -0.0165736873398109 0.030809910923526904
vertex 0.17930622843444646 0.0917836519786659 0.095131685962529
vertex 0.14498522354392135 0.1355950139946823 0.11755116815115478
endloop
endfacet
facet normal 0.029447661582501193 0.47353392399459693 -0.8802831692436256
outer loop
vertex 0.14704655985469645 0.16874238867430408 0.05593134630410097
vertex 0.18136756474522156 0.12493102665828769 0.03351186411547519
vertex 0.001030668155387542 0.0165736873398109 -0.030809910923526904
endloop
endfacet
facet normal -0.029447661582501207 -0.47353392399459704 0.8802831692436257
outer loop
vertex -0.001030668155387542 -0.0165736873398109 0.030809910923526904
vertex 0.14498522354392135 0.1355950139946823 0.11755116815115478
vertex 0.013831116933132978 0.056789676308517334 0.07077169539551689
endloop
endfacet
facet normal 0.029447661582501186 0.47353392399459693 -0.8802831692436258
outer loop
vertex 0.01589245324390806 0.08993705098813913 0.009151873548463087
vertex 0.14704655985469645 0.16874238867430408 0.05593134630410097
vertex 0.001030668155387542 0.0165736873398109 -0.030809910923526904
endloop
endfacet
facet normal -0.029447661582501342 -0.47353392399459693 0.8802831692436257
outer loop
vertex -0.001030668155387542 -0.0165736873398109 0.030809910923526904
vertex 0.013831116933132978 0.056789676308517334 0.07077169539551689
vertex -0.05481089284791725 0.1444124003405501 0.11561065977276845
endloop
endfacet
facet normal 0.029447661582501224 0.473533923994597 -0.8802831692436257
outer loop
vertex -0.05274955653714217 0.1775597750201719 0.05399083792571465
vertex 0.01589245324390806 0.08993705098813913 0.009151873548463087
vertex 0.001030668155387542 0.0165736873398109 -0.030809910923526904
endloop
endfacet
facet normal -0.029447661582501096 -0.4735339239945969 0.8802831692436257
outer loop
vertex -0.001030668155387542 -0.0165736873398109 0.030809910923526904
vertex -0.05481089284791725 0.1444124003405501 0.11561065977276845
vertex -0.10399368282696289 0.11486039870823825 0.09806835748940425
endloop
endfacet
facet normal 0.029447661582501436 0.473533923994597 -0.8802831692436256
outer loop
vertex -0.1019323465161878 0.14800777338786006 0.03644853564235044
vertex -0.05274955653714217 0.1775597750201719 0.05399083792571465
vertex 0.001030668155387542 0.0165736873398109 -0.030809910923526904
endloop
endfacet
facet normal 0.5720167481754184 -0.7301893669336065 -0.3736580364770961
outer loop
vertex 0.001030668155387542 0.0165736873398109 -0.030809910923526904
vertex 0.18136756474522156 0.12493102665828769 0.03351186411547519
vertex 0.17930622843444646 0.0917836519786659 0.095131685962529
endloop
endfacet
facet normal 0.5720167481754186 -0.7301893669336064 -0.37365803647709617
outer loop
vertex 0.001030668155387542 0.0165736873398109 -0.030809910923526904
vertex 0.17930622843444646 0.0917836519786659 0.095131685962529
vertex -0.001030668155387542 -0.0165736873398109 0.030809910923526904
endloop
endfacet
facet normal -0.5720167481754185 0.7301893669336064 0.37365803647709644
outer loop
vertex 0.14704655985469645 0.16874238867430408 0.05593134630410097
vertex 0.01589245324390806 0.08993705098813913 0.009151873548463087
vertex 0.013831116933132978 0.056789676308517334 0.07077169539551689
endloop
endfacet
facet normal -0.5720167481754187 0.7301893669336064 0.3736580364770961
outer loop
vertex 0.14704655985469645 0.16874238867430408 0.05593134630410097
vertex 0.013831116933132978 0.056789676308517334 0.07077169539551689
vertex 0.14498522354392135 0.1355950139946823 0.11755116815115478
endloop
endfacet
facet normal 0.8197131663174273 0.4925333605385309 0.2923717047227367
outer loop
vertex 0.01589245324390806 0.08993705098813913 0.009151873548463087
vertex -0.05274955653714217 0.1775597750201719 0.05399083792571465
vertex -0.05481089284791725 0.1444124003405501 0.11561065977276845
endloop
endfacet
facet normal 0.8197131663174275 0.4925333605385308 0.29237170472273677
outer loop
vertex 0.01589245324390806 0.08993705098813913 0.009151873548463087
vertex -0.05481089284791725 0.1444124003405501 0.11561065977276845
vertex 0.013831116933132978 0.056789676308517334 0.07077169539551689
endloop
endfacet
facet normal -0.8197131663174274 -0.49253336053853086 -0.29237170472273677
outer loop
vertex -0.1019323465161878 0.14800777338786006 0.03644853564235044
vertex 0.001030668155387542 0.0165736873398109 -0.030809910923526904
vertex -0.001030668155387542 -0.0165736873398109 0.030809910923526904
endloop
endfacet
facet normal -0.8197131663174272 -0.49253336053853075 -0.29237170472273705
outer loop
vertex -0.1019323465161878 0.14800777338786006 0.03644853564235044
vertex -0.001030668155387542 -0.0165736873398109 0.030809910923526904
vertex -0.10399368282696289 0.11486039870823825 0.09806835748940425
endloop
endfacet
endsolid walls
